Snippet.ufo
<glyph name="exclam" format="1">
  <advance width="270"/>
  <unicode hex="0021"/>
  <outline>
    <contour>
      <point x="176" y="239" type="curve" smooth="yes"/>
      <point x="176" y="326"/>
      <point x="236" y="684"/>
      <point x="236" y="684" type="curve"/>
      <point x="178" y="684" type="line"/>
      <point x="178" y="684"/>
      <point x="120" y="326"/>
      <point x="120" y="239" type="curve" smooth="yes"/>
      <point x="120" y="203"/>
      <point x="130" y="173"/>
      <point x="130" y="173" type="curve"/>
      <point x="186" y="185" type="line"/>
      <point x="186" y="185"/>
      <point x="176" y="209"/>
    </contour>
    <contour>
      <point x="127" y="45" type="curve" smooth="yes"/>
      <point x="127" y="14"/>
      <point x="153" y="-11"/>
      <point x="183" y="-11" type="curve" smooth="yes"/>
      <point x="215" y="-11"/>
      <point x="240" y="14"/>
      <point x="240" y="45" type="curve" smooth="yes"/>
      <point x="240" y="76"/>
      <point x="215" y="102"/>
      <point x="183" y="102" type="curve" smooth="yes"/>
      <point x="153" y="102"/>
      <point x="127" y="76"/>
    </contour>
  </outline>
</glyph>
<glyph name="numbersign" format="1">
  <advance width="464"/>
  <unicode hex="0023"/>
  <outline>
    <contour>
      <point x="40" y="238" type="line"/>
      <point x="40" y="184" type="line"/>
      <point x="106" y="184" type="line"/>
      <point x="70" y="0" type="line"/>
      <point x="128" y="0" type="line"/>
      <point x="164" y="184" type="line"/>
      <point x="257" y="184" type="line"/>
      <point x="221" y="0" type="line"/>
      <point x="279" y="0" type="line"/>
      <point x="316" y="184" type="line"/>
      <point x="399" y="184" type="line"/>
      <point x="399" y="238" type="line"/>
      <point x="327" y="238" type="line"/>
      <point x="347" y="345" type="line"/>
      <point x="424" y="345" type="line"/>
      <point x="424" y="399" type="line"/>
      <point x="359" y="399" type="line"/>
      <point x="394" y="578" type="line"/>
      <point x="336" y="578" type="line"/>
      <point x="301" y="399" type="line"/>
      <point x="208" y="399" type="line"/>
      <point x="243" y="578" type="line"/>
      <point x="185" y="578" type="line"/>
      <point x="149" y="399" type="line"/>
      <point x="65" y="399" type="line"/>
      <point x="65" y="345" type="line"/>
      <point x="137" y="345" type="line"/>
      <point x="117" y="238" type="line"/>
    </contour>
    <contour>
      <point x="196" y="345" type="line"/>
      <point x="288" y="345" type="line"/>
      <point x="268" y="238" type="line"/>
      <point x="176" y="238" type="line"/>
    </contour>
  </outline>
</glyph>
<glyph name="dollar" format="1">
  <advance width="557"/>
  <unicode hex="0024"/>
  <outline>
    <contour>
      <point x="300" y="750" type="line"/>
      <point x="300" y="662" type="line"/>
      <point x="375" y="656"/>
      <point x="445" y="626"/>
      <point x="495" y="590" type="curve"/>
      <point x="462" y="542" type="line"/>
      <point x="420" y="568"/>
      <point x="366" y="597"/>
      <point x="300" y="606" type="curve"/>
      <point x="300" y="364" type="line"/>
      <point x="395" y="334"/>
      <point x="497" y="300"/>
      <point x="497" y="169" type="curve" smooth="yes"/>
      <point x="497" y="51"/>
      <point x="403" y="0"/>
      <point x="300" y="-8" type="curve"/>
      <point x="300" y="-70" type="line"/>
      <point x="242" y="-70" type="line"/>
      <point x="242" y="-9" type="line"/>
      <point x="164" y="-4"/>
      <point x="91" y="26"/>
      <point x="40" y="64" type="curve"/>
      <point x="73" y="112" type="line"/>
      <point x="116" y="85"/>
      <point x="173" y="55"/>
      <point x="242" y="47" type="curve"/>
      <point x="242" y="322" type="line"/>
      <point x="156" y="350"/>
      <point x="75" y="391"/>
      <point x="75" y="510" type="curve" smooth="yes"/>
      <point x="75" y="587"/>
      <point x="139" y="652"/>
      <point x="242" y="662" type="curve"/>
      <point x="242" y="750" type="line"/>
    </contour>
    <contour>
      <point x="435" y="169" type="curve" smooth="yes"/>
      <point x="435" y="249"/>
      <point x="372" y="279"/>
      <point x="300" y="303" type="curve"/>
      <point x="300" y="46" type="line"/>
      <point x="374" y="52"/>
      <point x="435" y="85"/>
    </contour>
    <contour>
      <point x="137" y="510" type="curve" smooth="yes"/>
      <point x="137" y="440"/>
      <point x="183" y="407"/>
      <point x="242" y="384" type="curve"/>
      <point x="242" y="608" type="line"/>
      <point x="175" y="601"/>
      <point x="137" y="560"/>
    </contour>
  </outline>
</glyph>
<glyph name="percent" format="1">
  <advance width="750"/>
  <unicode hex="0025"/>
  <outline>
    <contour>
      <point x="220" y="366" type="curve" smooth="yes"/>
      <point x="292" y="366"/>
      <point x="340" y="430"/>
      <point x="340" y="514" type="curve" smooth="yes"/>
      <point x="340" y="598"/>
      <point x="292" y="663"/>
      <point x="220" y="663" type="curve" smooth="yes"/>
      <point x="147" y="663"/>
      <point x="100" y="599"/>
      <point x="100" y="514" type="curve" smooth="yes"/>
      <point x="100" y="430"/>
      <point x="147" y="366"/>
    </contour>
    <contour>
      <point x="220" y="623" type="curve" smooth="yes"/>
      <point x="260" y="623"/>
      <point x="286" y="578"/>
      <point x="286" y="514" type="curve" smooth="yes"/>
      <point x="286" y="451"/>
      <point x="260" y="406"/>
      <point x="220" y="406" type="curve" smooth="yes"/>
      <point x="180" y="406"/>
      <point x="154" y="451"/>
      <point x="154" y="514" type="curve" smooth="yes"/>
      <point x="154" y="578"/>
      <point x="180" y="623"/>
    </contour>
    <contour>
      <point x="495" y="653" type="line"/>
      <point x="276" y="0" type="line"/>
      <point x="335" y="0" type="line"/>
      <point x="553" y="653" type="line"/>
    </contour>
    <contour>
      <point x="610" y="-10" type="curve" smooth="yes"/>
      <point x="682" y="-10"/>
      <point x="730" y="54"/>
      <point x="730" y="138" type="curve" smooth="yes"/>
      <point x="730" y="222"/>
      <point x="682" y="287"/>
      <point x="610" y="287" type="curve" smooth="yes"/>
      <point x="537" y="287"/>
      <point x="490" y="223"/>
      <point x="490" y="138" type="curve" smooth="yes"/>
      <point x="490" y="54"/>
      <point x="537" y="-10"/>
    </contour>
    <contour>
      <point x="610" y="247" type="curve" smooth="yes"/>
      <point x="650" y="247"/>
      <point x="676" y="202"/>
      <point x="676" y="138" type="curve" smooth="yes"/>
      <point x="676" y="75"/>
      <point x="650" y="30"/>
      <point x="610" y="30" type="curve" smooth="yes"/>
      <point x="570" y="30"/>
      <point x="544" y="75"/>
      <point x="544" y="138" type="curve" smooth="yes"/>
      <point x="544" y="202"/>
      <point x="570" y="247"/>
    </contour>
  </outline>
</glyph>
<glyph name="ampersand" format="1">
  <advance width="606"/>
  <unicode hex="0026"/>
  <outline>
    <contour>
      <point x="596" y="38" type="line"/>
      <point x="505" y="123" type="line"/>
      <point x="540" y="178"/>
      <point x="558" y="246"/>
      <point x="558" y="315" type="curve" smooth="yes"/>
      <point x="558" y="357" type="line"/>
      <point x="505" y="357" type="line"/>
      <point x="505" y="317" type="line" smooth="yes"/>
      <point x="505" y="261"/>
      <point x="492" y="206"/>
      <point x="465" y="159" type="curve"/>
      <point x="314" y="301" type="line"/>
      <point x="256" y="354"/>
      <point x="185" y="407"/>
      <point x="185" y="480" type="curve" smooth="yes"/>
      <point x="185" y="535"/>
      <point x="211" y="582"/>
      <point x="290" y="582" type="curve" smooth="yes"/>
      <point x="324" y="582"/>
      <point x="359" y="578"/>
      <point x="411" y="574" type="curve"/>
      <point x="411" y="626" type="line"/>
      <point x="366" y="630"/>
      <point x="337" y="634"/>
      <point x="297" y="634" type="curve" smooth="yes"/>
      <point x="177" y="634"/>
      <point x="120" y="564"/>
      <point x="120" y="480" type="curve" smooth="yes"/>
      <point x="120" y="427"/>
      <point x="141" y="387"/>
      <point x="171" y="352" type="curve"/>
      <point x="96" y="315"/>
      <point x="60" y="238"/>
      <point x="60" y="166" type="curve" smooth="yes"/>
      <point x="60" y="57"/>
      <point x="146" y="-10"/>
      <point x="255" y="-10" type="curve" smooth="yes"/>
      <point x="348" y="-10"/>
      <point x="420" y="25"/>
      <point x="471" y="79" type="curve"/>
      <point x="560" y="-3" type="line"/>
    </contour>
    <contour>
      <point x="283" y="252" type="line"/>
      <point x="432" y="114" type="line"/>
      <point x="391" y="70"/>
      <point x="332" y="42"/>
      <point x="255" y="42" type="curve" smooth="yes"/>
      <point x="181" y="42"/>
      <point x="117" y="90"/>
      <point x="117" y="170" type="curve" smooth="yes"/>
      <point x="117" y="225"/>
      <point x="146" y="285"/>
      <point x="210" y="314" type="curve"/>
    </contour>
  </outline>
</glyph>
<glyph name="quotesingle" format="1">
  <advance width="172"/>
  <unicode hex="0027"/>
  <outline>
    <contour>
      <point x="60" y="492" type="line"/>
      <point x="112" y="492" type="line"/>
      <point x="122" y="684" type="line"/>
      <point x="50" y="684" type="line"/>
    </contour>
  </outline>
</glyph>
<glyph name="parenleft" format="1">
  <advance width="383"/>
  <unicode hex="0028"/>
  <outline>
    <contour>
      <point x="333" y="-118" type="line"/>
      <point x="204" y="-44"/>
      <point x="111" y="131"/>
      <point x="111" y="294" type="curve" smooth="yes"/>
      <point x="111" y="458"/>
      <point x="204" y="633"/>
      <point x="333" y="707" type="curve"/>
      <point x="308" y="750" type="line"/>
      <point x="133" y="653"/>
      <point x="50" y="475"/>
      <point x="50" y="294" type="curve" smooth="yes"/>
      <point x="50" y="114"/>
      <point x="133" y="-64"/>
      <point x="308" y="-161" type="curve"/>
    </contour>
  </outline>
</glyph>
<glyph name="parenright" format="1">
  <advance width="413"/>
  <unicode hex="0029"/>
  <outline>
    <contour>
      <point x="105" y="-161" type="line"/>
      <point x="280" y="-64"/>
      <point x="363" y="114"/>
      <point x="363" y="294" type="curve" smooth="yes"/>
      <point x="363" y="475"/>
      <point x="280" y="653"/>
      <point x="105" y="750" type="curve"/>
      <point x="80" y="707" type="line"/>
      <point x="209" y="633"/>
      <point x="302" y="458"/>
      <point x="302" y="294" type="curve" smooth="yes"/>
      <point x="302" y="131"/>
      <point x="209" y="-44"/>
      <point x="80" y="-118" type="curve"/>
    </contour>
  </outline>
</glyph>
<glyph name="asterisk" format="1">
  <advance width="415"/>
  <unicode hex="002A"/>
  <outline>
    <contour>
      <point x="238" y="694" type="line"/>
      <point x="178" y="694" type="line"/>
      <point x="184" y="578" type="line"/>
      <point x="79" y="619" type="line"/>
      <point x="60" y="562" type="line"/>
      <point x="166" y="534" type="line"/>
      <point x="98" y="452" type="line"/>
      <point x="146" y="416" type="line"/>
      <point x="208" y="512" type="line"/>
      <point x="269" y="418" type="line"/>
      <point x="318" y="452" type="line"/>
      <point x="251" y="533" type="line"/>
      <point x="355" y="562" type="line"/>
      <point x="338" y="619" type="line"/>
      <point x="231" y="577" type="line"/>
    </contour>
  </outline>
</glyph>
<glyph name="plus" format="1">
  <advance width="472"/>
  <unicode hex="002B"/>
  <outline>
    <contour>
      <point x="208" y="107" type="line"/>
      <point x="264" y="107" type="line"/>
      <point x="264" y="268" type="line"/>
      <point x="422" y="268" type="line"/>
      <point x="422" y="319" type="line"/>
      <point x="264" y="319" type="line"/>
      <point x="264" y="479" type="line"/>
      <point x="208" y="479" type="line"/>
      <point x="208" y="319" type="line"/>
      <point x="50" y="319" type="line"/>
      <point x="50" y="268" type="line"/>
      <point x="208" y="268" type="line"/>
    </contour>
  </outline>
</glyph>
<glyph name="period" format="1">
  <advance width="313"/>
  <unicode hex="002E"/>
  <outline>
    <contour>
      <point x="100" y="45" type="curve" smooth="yes"/>
      <point x="100" y="14"/>
      <point x="126" y="-11"/>
      <point x="156" y="-11" type="curve" smooth="yes"/>
      <point x="188" y="-11"/>
      <point x="213" y="14"/>
      <point x="213" y="45" type="curve" smooth="yes"/>
      <point x="213" y="76"/>
      <point x="188" y="102"/>
      <point x="156" y="102" type="curve" smooth="yes"/>
      <point x="126" y="102"/>
      <point x="100" y="76"/>
    </contour>
  </outline>
</glyph>
<glyph name="slash" format="1">
  <advance width="392"/>
  <unicode hex="002F"/>
  <outline>
    <contour>
      <point x="269" y="750" type="line"/>
      <point x="50" y="-70" type="line"/>
      <point x="114" y="-70" type="line"/>
      <point x="332" y="750" type="line"/>
    </contour>
  </outline>
</glyph>
<glyph name="zero" format="1">
  <advance width="682"/>
  <unicode hex="0030"/>
  <outline>
    <contour>
      <point x="341" y="-10" type="curve" smooth="yes"/>
      <point x="505" y="-10"/>
      <point x="612" y="135"/>
      <point x="612" y="326" type="curve" smooth="yes"/>
      <point x="612" y="517"/>
      <point x="505" y="663"/>
      <point x="341" y="663" type="curve" smooth="yes"/>
      <point x="177" y="663"/>
      <point x="70" y="518"/>
      <point x="70" y="326" type="curve" smooth="yes"/>
      <point x="70" y="136"/>
      <point x="177" y="-10"/>
    </contour>
    <contour>
      <point x="342" y="608" type="curve" smooth="yes"/>
      <point x="466" y="608"/>
      <point x="550" y="492"/>
      <point x="550" y="326" type="curve" smooth="yes"/>
      <point x="550" y="160"/>
      <point x="466" y="45"/>
      <point x="342" y="45" type="curve" smooth="yes"/>
      <point x="217" y="45"/>
      <point x="133" y="161"/>
      <point x="133" y="326" type="curve" smooth="yes"/>
      <point x="133" y="493"/>
      <point x="217" y="608"/>
    </contour>
  </outline>
</glyph>
<glyph name="one" format="1">
  <advance width="388"/>
  <unicode hex="0031"/>
  <outline>
    <contour>
      <point x="270" y="669" type="line"/>
      <point x="221" y="637"/>
      <point x="187" y="613"/>
      <point x="145" y="589" type="curve" smooth="yes"/>
      <point x="111" y="570"/>
      <point x="80" y="561"/>
      <point x="51" y="561" type="curve" smooth="yes"/>
      <point x="41" y="561"/>
      <point x="32" y="562"/>
      <point x="22" y="564" type="curve"/>
      <point x="10" y="521" type="line"/>
      <point x="28" y="513"/>
      <point x="46" y="509"/>
      <point x="64" y="509" type="curve" smooth="yes"/>
      <point x="102" y="509"/>
      <point x="140" y="523"/>
      <point x="172" y="541" type="curve" smooth="yes"/>
      <point x="186" y="549"/>
      <point x="201" y="560"/>
      <point x="217" y="573" type="curve"/>
      <point x="217" y="0" type="line"/>
      <point x="278" y="0" type="line"/>
      <point x="278" y="669" type="line"/>
    </contour>
  </outline>
</glyph>
<glyph name="two" format="1">
  <advance width="491"/>
  <unicode hex="0032"/>
  <outline>
    <contour>
      <point x="25" y="0" type="line"/>
      <point x="461" y="0" type="line"/>
      <point x="461" y="57" type="line"/>
      <point x="89" y="57" type="line"/>
      <point x="130" y="226"/>
      <point x="428" y="280"/>
      <point x="428" y="482" type="curve" smooth="yes"/>
      <point x="428" y="588"/>
      <point x="374" y="663"/>
      <point x="232" y="663" type="curve" smooth="yes"/>
      <point x="192" y="663"/>
      <point x="103" y="659"/>
      <point x="58" y="655" type="curve"/>
      <point x="58" y="603" type="line"/>
      <point x="110" y="607"/>
      <point x="205" y="611"/>
      <point x="239" y="611" type="curve" smooth="yes"/>
      <point x="325" y="611"/>
      <point x="371" y="565"/>
      <point x="371" y="485" type="curve" smooth="yes"/>
      <point x="371" y="310"/>
      <point x="25" y="249"/>
      <point x="25" y="13" type="curve" smooth="yes"/>
    </contour>
  </outline>
</glyph>
<glyph name="five" format="1">
  <advance width="514"/>
  <unicode hex="0035"/>
  <outline>
    <contour>
      <point x="83" y="334" type="line"/>
      <point x="83" y="334"/>
      <point x="142" y="354"/>
      <point x="214" y="354" type="curve" smooth="yes"/>
      <point x="328" y="354"/>
      <point x="405" y="320"/>
      <point x="405" y="210" type="curve" smooth="yes"/>
      <point x="405" y="110"/>
      <point x="348" y="46"/>
      <point x="228" y="46" type="curve" smooth="yes"/>
      <point x="139" y="46"/>
      <point x="60" y="56"/>
      <point x="60" y="56" type="curve"/>
      <point x="60" y="1" type="line"/>
      <point x="60" y="1"/>
      <point x="155" y="-10"/>
      <point x="231" y="-10" type="curve" smooth="yes"/>
      <point x="384" y="-10"/>
      <point x="464" y="83"/>
      <point x="464" y="206" type="curve" smooth="yes"/>
      <point x="464" y="347"/>
      <point x="373" y="410"/>
      <point x="229" y="410" type="curve" smooth="yes"/>
      <point x="178" y="410"/>
      <point x="139" y="400"/>
      <point x="139" y="400" type="curve"/>
      <point x="139" y="592" type="line"/>
      <point x="167" y="592" type="line" smooth="yes"/>
      <point x="293" y="592"/>
      <point x="412" y="596"/>
      <point x="412" y="596" type="curve"/>
      <point x="412" y="653" type="line"/>
      <point x="412" y="653"/>
      <point x="292" y="647"/>
      <point x="167" y="647" type="curve" smooth="yes"/>
      <point x="114" y="647"/>
      <point x="76" y="657"/>
      <point x="48" y="683" type="curve"/>
      <point x="15" y="649" type="line"/>
      <point x="31" y="626"/>
      <point x="53" y="612"/>
      <point x="78" y="603" type="curve"/>
      <point x="78" y="338" type="line"/>
    </contour>
  </outline>
</glyph>
<glyph name="six" format="1">
  <advance width="589"/>
  <unicode hex="0036"/>
  <outline>
    <contour>
      <point x="70" y="326" type="curve" smooth="yes"/>
      <point x="70" y="136"/>
      <point x="135" y="-10"/>
      <point x="306" y="-10" type="curve" smooth="yes"/>
      <point x="454" y="-10"/>
      <point x="519" y="75"/>
      <point x="519" y="200" type="curve" smooth="yes"/>
      <point x="519" y="313"/>
      <point x="459" y="391"/>
      <point x="306" y="391" type="curve" smooth="yes"/>
      <point x="229" y="391"/>
      <point x="167" y="370"/>
      <point x="133" y="356" type="curve"/>
      <point x="139" y="506"/>
      <point x="188" y="611"/>
      <point x="337" y="611" type="curve" smooth="yes"/>
      <point x="371" y="611"/>
      <point x="416" y="607"/>
      <point x="468" y="603" type="curve"/>
      <point x="468" y="655" type="line"/>
      <point x="423" y="659"/>
      <point x="384" y="663"/>
      <point x="344" y="663" type="curve" smooth="yes"/>
      <point x="179" y="663"/>
      <point x="70" y="588"/>
    </contour>
    <contour>
      <point x="307" y="336" type="curve" smooth="yes"/>
      <point x="410" y="336"/>
      <point x="458" y="290"/>
      <point x="458" y="202" type="curve" smooth="yes"/>
      <point x="458" y="111"/>
      <point x="422" y="45"/>
      <point x="307" y="45" type="curve" smooth="yes"/>
      <point x="199" y="45"/>
      <point x="139" y="150"/>
      <point x="133" y="302" type="curve"/>
      <point x="167" y="314"/>
      <point x="236" y="336"/>
    </contour>
  </outline>
</glyph>
<glyph name="seven" format="1">
  <advance width="462"/>
  <unicode hex="0037"/>
  <outline>
    <contour>
      <point x="427" y="653" type="line"/>
      <point x="343" y="653"/>
      <point x="234" y="648"/>
      <point x="172" y="648" type="curve" smooth="yes"/>
      <point x="119" y="648"/>
      <point x="81" y="657"/>
      <point x="53" y="683" type="curve"/>
      <point x="20" y="649" type="line"/>
      <point x="56" y="599"/>
      <point x="117" y="593"/>
      <point x="172" y="593" type="curve" smooth="yes"/>
      <point x="214" y="593"/>
      <point x="283" y="594"/>
      <point x="348" y="596" type="curve"/>
      <point x="109" y="0" type="line"/>
      <point x="173" y="0" type="line"/>
      <point x="427" y="645" type="line"/>
    </contour>
  </outline>
</glyph>
<glyph name="eight" format="1">
  <advance width="577"/>
  <unicode hex="0038"/>
  <outline>
    <contour>
      <point x="65" y="182" type="curve" smooth="yes"/>
      <point x="65" y="74"/>
      <point x="139" y="-16"/>
      <point x="289" y="-16" type="curve" smooth="yes"/>
      <point x="439" y="-16"/>
      <point x="512" y="74"/>
      <point x="512" y="182" type="curve" smooth="yes"/>
      <point x="512" y="281"/>
      <point x="447" y="332"/>
      <point x="383" y="361" type="curve"/>
      <point x="425" y="389"/>
      <point x="475" y="434"/>
      <point x="475" y="501" type="curve" smooth="yes"/>
      <point x="475" y="589"/>
      <point x="404" y="666"/>
      <point x="288" y="666" type="curve" smooth="yes"/>
      <point x="172" y="666"/>
      <point x="101" y="591"/>
      <point x="101" y="501" type="curve" smooth="yes"/>
      <point x="101" y="437"/>
      <point x="138" y="397"/>
      <point x="182" y="372" type="curve"/>
      <point x="130" y="331"/>
      <point x="65" y="279"/>
    </contour>
    <contour>
      <point x="260" y="342" type="line" smooth="yes"/>
      <point x="352" y="317"/>
      <point x="450" y="286"/>
      <point x="450" y="184" type="curve" smooth="yes"/>
      <point x="450" y="100"/>
      <point x="395" y="38"/>
      <point x="289" y="38" type="curve" smooth="yes"/>
      <point x="183" y="38"/>
      <point x="127" y="100"/>
      <point x="127" y="184" type="curve" smooth="yes"/>
      <point x="127" y="259"/>
      <point x="190" y="308"/>
      <point x="238" y="348" type="curve"/>
    </contour>
    <contour>
      <point x="304" y="389" type="curve" smooth="yes"/>
      <point x="240" y="407"/>
      <point x="163" y="427"/>
      <point x="163" y="500" type="curve" smooth="yes"/>
      <point x="163" y="564"/>
      <point x="212" y="611"/>
      <point x="288" y="611" type="curve" smooth="yes"/>
      <point x="364" y="611"/>
      <point x="413" y="563"/>
      <point x="413" y="500" type="curve" smooth="yes"/>
      <point x="413" y="447"/>
      <point x="372" y="413"/>
      <point x="328" y="382" type="curve"/>
      <point x="319" y="384"/>
      <point x="311" y="387"/>
    </contour>
  </outline>
</glyph>
<glyph name="nine" format="1">
  <advance width="589"/>
  <unicode hex="0039"/>
  <outline>
    <contour>
      <point x="519" y="327" type="curve" smooth="yes"/>
      <point x="519" y="517"/>
      <point x="454" y="663"/>
      <point x="283" y="663" type="curve" smooth="yes"/>
      <point x="135" y="663"/>
      <point x="70" y="578"/>
      <point x="70" y="453" type="curve" smooth="yes"/>
      <point x="70" y="340"/>
      <point x="130" y="262"/>
      <point x="283" y="262" type="curve" smooth="yes"/>
      <point x="359" y="262"/>
      <point x="422" y="283"/>
      <point x="455" y="297" type="curve"/>
      <point x="450" y="147"/>
      <point x="400" y="42"/>
      <point x="252" y="42" type="curve" smooth="yes"/>
      <point x="218" y="42"/>
      <point x="173" y="46"/>
      <point x="121" y="50" type="curve"/>
      <point x="121" y="-2" type="line"/>
      <point x="166" y="-6"/>
      <point x="205" y="-10"/>
      <point x="245" y="-10" type="curve" smooth="yes"/>
      <point x="410" y="-10"/>
      <point x="519" y="65"/>
    </contour>
    <contour>
      <point x="282" y="317" type="curve" smooth="yes"/>
      <point x="179" y="317"/>
      <point x="131" y="363"/>
      <point x="131" y="451" type="curve" smooth="yes"/>
      <point x="131" y="542"/>
      <point x="167" y="608"/>
      <point x="282" y="608" type="curve" smooth="yes"/>
      <point x="389" y="608"/>
      <point x="450" y="503"/>
      <point x="455" y="351" type="curve"/>
      <point x="422" y="338"/>
      <point x="353" y="317"/>
    </contour>
  </outline>
</glyph>
<glyph name="colon" format="1">
  <advance width="313"/>
  <unicode hex="003A"/>
  <outline>
    <contour>
      <point x="120" y="442" type="curve" smooth="yes"/>
      <point x="120" y="411"/>
      <point x="146" y="386"/>
      <point x="176" y="386" type="curve" smooth="yes"/>
      <point x="208" y="386"/>
      <point x="233" y="411"/>
      <point x="233" y="442" type="curve" smooth="yes"/>
      <point x="233" y="473"/>
      <point x="208" y="499"/>
      <point x="176" y="499" type="curve" smooth="yes"/>
      <point x="146" y="499"/>
      <point x="120" y="473"/>
    </contour>
    <contour>
      <point x="120" y="45" type="curve" smooth="yes"/>
      <point x="120" y="14"/>
      <point x="146" y="-11"/>
      <point x="176" y="-11" type="curve" smooth="yes"/>
      <point x="208" y="-11"/>
      <point x="233" y="14"/>
      <point x="233" y="45" type="curve" smooth="yes"/>
      <point x="233" y="76"/>
      <point x="208" y="102"/>
      <point x="176" y="102" type="curve" smooth="yes"/>
      <point x="146" y="102"/>
      <point x="120" y="76"/>
    </contour>
  </outline>
</glyph>
<glyph name="semicolon" format="1">
  <advance width="313"/>
  <unicode hex="003B"/>
  <outline>
    <contour>
      <point x="120" y="442" type="curve" smooth="yes"/>
      <point x="120" y="411"/>
      <point x="146" y="386"/>
      <point x="176" y="386" type="curve" smooth="yes"/>
      <point x="208" y="386"/>
      <point x="233" y="411"/>
      <point x="233" y="442" type="curve" smooth="yes"/>
      <point x="233" y="473"/>
      <point x="208" y="499"/>
      <point x="176" y="499" type="curve" smooth="yes"/>
      <point x="146" y="499"/>
      <point x="120" y="473"/>
    </contour>
    <contour>
      <point x="143" y="52" type="curve"/>
      <point x="143" y="-8" type="line" smooth="yes"/>
      <point x="143" y="-61"/>
      <point x="129" y="-99"/>
      <point x="103" y="-127" type="curve"/>
      <point x="137" y="-160" type="line"/>
      <point x="187" y="-124"/>
      <point x="207" y="-63"/>
      <point x="207" y="-8" type="curve" smooth="yes"/>
      <point x="207" y="52" type="line" smooth="yes"/>
      <point x="207" y="70"/>
      <point x="194" y="85"/>
      <point x="175" y="85" type="curve" smooth="yes"/>
      <point x="157" y="85"/>
      <point x="143" y="70"/>
    </contour>
  </outline>
</glyph>
<glyph name="equal" format="1">
  <advance width="472"/>
  <unicode hex="003D"/>
  <outline>
    <contour>
      <point x="60" y="399" type="line"/>
      <point x="60" y="347" type="line"/>
      <point x="412" y="347" type="line"/>
      <point x="412" y="399" type="line"/>
    </contour>
    <contour>
      <point x="60" y="239" type="line"/>
      <point x="60" y="187" type="line"/>
      <point x="412" y="187" type="line"/>
      <point x="412" y="239" type="line"/>
    </contour>
  </outline>
</glyph>
<glyph name="greater" format="1">
  <advance width="391"/>
  <unicode hex="003E"/>
  <outline>
    <contour>
      <point x="360" y="265" type="line"/>
      <point x="94" y="450" type="line"/>
      <point x="60" y="401" type="line"/>
      <point x="258" y="263" type="line"/>
      <point x="62" y="127" type="line"/>
      <point x="94" y="80" type="line"/>
    </contour>
  </outline>
</glyph>
<glyph name="question" format="1">
  <advance width="430"/>
  <unicode hex="003F"/>
  <outline>
    <contour>
      <point x="363" y="517" type="curve" smooth="yes"/>
      <point x="363" y="377"/>
      <point x="147" y="395"/>
      <point x="147" y="239" type="curve" smooth="yes"/>
      <point x="147" y="203"/>
      <point x="157" y="173"/>
      <point x="157" y="173" type="curve"/>
      <point x="216" y="185" type="line"/>
      <point x="216" y="185"/>
      <point x="206" y="209"/>
      <point x="206" y="239" type="curve" smooth="yes"/>
      <point x="206" y="346"/>
      <point x="420" y="344"/>
      <point x="420" y="514" type="curve" smooth="yes"/>
      <point x="420" y="620"/>
      <point x="366" y="695"/>
      <point x="224" y="695" type="curve" smooth="yes"/>
      <point x="184" y="695"/>
      <point x="95" y="691"/>
      <point x="50" y="687" type="curve"/>
      <point x="50" y="635" type="line"/>
      <point x="102" y="639"/>
      <point x="197" y="643"/>
      <point x="231" y="643" type="curve" smooth="yes"/>
      <point x="317" y="643"/>
      <point x="363" y="597"/>
    </contour>
    <contour>
      <point x="161" y="45" type="curve" smooth="yes"/>
      <point x="161" y="14"/>
      <point x="187" y="-11"/>
      <point x="217" y="-11" type="curve" smooth="yes"/>
      <point x="249" y="-11"/>
      <point x="274" y="14"/>
      <point x="274" y="45" type="curve" smooth="yes"/>
      <point x="274" y="76"/>
      <point x="249" y="102"/>
      <point x="217" y="102" type="curve" smooth="yes"/>
      <point x="187" y="102"/>
      <point x="161" y="76"/>
    </contour>
  </outline>
</glyph>
<glyph name="B" format="1">
  <advance width="618"/>
  <unicode hex="0042"/>
  <outline>
    <contour>
      <point x="320" y="694" type="curve" smooth="yes"/>
      <point x="236" y="694"/>
      <point x="224" y="684"/>
      <point x="162" y="684" type="curve" smooth="yes"/>
      <point x="109" y="684"/>
      <point x="71" y="698"/>
      <point x="43" y="724" type="curve"/>
      <point x="10" y="690" type="line"/>
      <point x="37" y="653"/>
      <point x="77" y="637"/>
      <point x="119" y="631" type="curve"/>
      <point x="119" y="0" type="line"/>
      <point x="119" y="0"/>
      <point x="193" y="-11"/>
      <point x="320" y="-11" type="curve" smooth="yes"/>
      <point x="465" y="-11"/>
      <point x="553" y="67"/>
      <point x="553" y="186" type="curve" smooth="yes"/>
      <point x="553" y="267"/>
      <point x="503" y="337"/>
      <point x="426" y="367" type="curve"/>
      <point x="485" y="393"/>
      <point x="522" y="442"/>
      <point x="522" y="514" type="curve" smooth="yes"/>
      <point x="522" y="621"/>
      <point x="439" y="694"/>
    </contour>
    <contour>
      <point x="322" y="334" type="line"/>
      <point x="326" y="334" type="line" smooth="yes"/>
      <point x="425" y="332"/>
      <point x="494" y="271"/>
      <point x="494" y="190" type="curve" smooth="yes"/>
      <point x="494" y="97"/>
      <point x="428" y="44"/>
      <point x="317" y="44" type="curve" smooth="yes"/>
      <point x="269" y="44"/>
      <point x="219" y="46"/>
      <point x="180" y="49" type="curve"/>
      <point x="180" y="334" type="line"/>
    </contour>
    <contour>
      <point x="317" y="639" type="curve" smooth="yes"/>
      <point x="405" y="639"/>
      <point x="462" y="593"/>
      <point x="462" y="514" type="curve" smooth="yes"/>
      <point x="462" y="434"/>
      <point x="402" y="389"/>
      <point x="319" y="389" type="curve" smooth="yes"/>
      <point x="180" y="389" type="line"/>
      <point x="180" y="629" type="line"/>
      <point x="224" y="630"/>
      <point x="233" y="639"/>
    </contour>
  </outline>
</glyph>
<glyph name="C" format="1">
  <advance width="644"/>
  <unicode hex="0043"/>
  <outline>
    <contour>
      <point x="338" y="0" type="move" name="bottom"/>
    </contour>
    <contour>
      <point x="121" y="342" type="line"/>
      <point x="121" y="371"/>
      <point x="124" y="400"/>
      <point x="130" y="426" type="curve"/>
      <point x="388" y="426" type="line" smooth="yes"/>
      <point x="541" y="426"/>
      <point x="604" y="480"/>
      <point x="604" y="555" type="curve" smooth="yes"/>
      <point x="604" y="638"/>
      <point x="531" y="694"/>
      <point x="388" y="694" type="curve" smooth="yes"/>
      <point x="193" y="694"/>
      <point x="60" y="541"/>
      <point x="60" y="342" type="curve"/>
    </contour>
    <contour>
      <point x="388" y="639" type="curve" smooth="yes"/>
      <point x="487" y="639"/>
      <point x="541" y="610"/>
      <point x="541" y="555" type="curve" smooth="yes"/>
      <point x="541" y="506"/>
      <point x="507" y="478"/>
      <point x="388" y="478" type="curve" smooth="yes"/>
      <point x="146" y="478" type="line"/>
      <point x="188" y="577"/>
      <point x="276" y="639"/>
    </contour>
    <contour>
      <point x="348" y="-10" type="curve" smooth="yes"/>
      <point x="459" y="-10"/>
      <point x="558" y="46"/>
      <point x="599" y="78" type="curve"/>
      <point x="573" y="123" type="line"/>
      <point x="531" y="96"/>
      <point x="432" y="45"/>
      <point x="348" y="45" type="curve" smooth="yes"/>
      <point x="198" y="45"/>
      <point x="121" y="167"/>
      <point x="121" y="342" type="curve"/>
      <point x="60" y="342" type="line"/>
      <point x="60" y="144"/>
      <point x="150" y="-10"/>
    </contour>
  </outline>
</glyph>
<glyph name="D" format="1">
  <advance width="769"/>
  <unicode hex="0044"/>
  <outline>
    <contour>
      <point x="114" y="0" type="line"/>
      <point x="114" y="0"/>
      <point x="158" y="-10"/>
      <point x="362" y="-10" type="curve" smooth="yes"/>
      <point x="575" y="-10"/>
      <point x="709" y="142"/>
      <point x="709" y="342" type="curve" smooth="yes"/>
      <point x="709" y="541"/>
      <point x="575" y="694"/>
      <point x="362" y="694" type="curve" smooth="yes"/>
      <point x="278" y="694"/>
      <point x="219" y="684"/>
      <point x="157" y="684" type="curve" smooth="yes"/>
      <point x="104" y="684"/>
      <point x="66" y="698"/>
      <point x="38" y="724" type="curve"/>
      <point x="5" y="690" type="line"/>
      <point x="32" y="653"/>
      <point x="72" y="637"/>
      <point x="114" y="631" type="curve"/>
    </contour>
    <contour>
      <point x="362" y="639" type="curve" smooth="yes"/>
      <point x="538" y="639"/>
      <point x="649" y="517"/>
      <point x="649" y="342" type="curve" smooth="yes"/>
      <point x="649" y="166"/>
      <point x="538" y="45"/>
      <point x="362" y="45" type="curve" smooth="yes"/>
      <point x="276" y="45"/>
      <point x="216" y="47"/>
      <point x="175" y="50" type="curve"/>
      <point x="175" y="629" type="line"/>
      <point x="230" y="630"/>
      <point x="289" y="639"/>
    </contour>
  </outline>
</glyph>
<glyph name="E" format="1">
  <advance width="593"/>
  <unicode hex="0045"/>
  <outline>
    <contour>
      <point x="329" y="684" type="move" name="topUC"/>
    </contour>
    <contour>
      <point x="563" y="57" type="line"/>
      <point x="156" y="57" type="line"/>
      <point x="156" y="333" type="line"/>
      <point x="473" y="333" type="line"/>
      <point x="473" y="390" type="line"/>
      <point x="156" y="390" type="line"/>
      <point x="156" y="627" type="line"/>
      <point x="543" y="627" type="line"/>
      <point x="543" y="684" type="line"/>
      <point x="95" y="684" type="line"/>
      <point x="95" y="0" type="line"/>
      <point x="563" y="0" type="line"/>
    </contour>
  </outline>
</glyph>
<glyph name="F" format="1">
  <advance width="553"/>
  <unicode hex="0046"/>
  <outline>
    <contour>
      <point x="473" y="382" type="line"/>
      <point x="156" y="382" type="line"/>
      <point x="156" y="627" type="line"/>
      <point x="543" y="627" type="line"/>
      <point x="543" y="684" type="line"/>
      <point x="95" y="684" type="line"/>
      <point x="95" y="0" type="line"/>
      <point x="156" y="0" type="line"/>
      <point x="156" y="325" type="line"/>
      <point x="473" y="325" type="line"/>
    </contour>
  </outline>
</glyph>
<glyph name="H" format="1">
  <advance width="681"/>
  <unicode hex="0048"/>
  <outline>
    <contour>
      <point x="525" y="684" type="line"/>
      <point x="525" y="384" type="line"/>
      <point x="156" y="384" type="line"/>
      <point x="156" y="684" type="line"/>
      <point x="95" y="684" type="line"/>
      <point x="95" y="0" type="line"/>
      <point x="156" y="0" type="line"/>
      <point x="156" y="327" type="line"/>
      <point x="525" y="327" type="line"/>
      <point x="525" y="0" type="line"/>
      <point x="586" y="0" type="line"/>
      <point x="586" y="684" type="line"/>
    </contour>
  </outline>
</glyph>
<glyph name="I" format="1">
  <advance width="251"/>
  <unicode hex="0049"/>
  <outline>
    <contour>
      <point x="125" y="685" type="move" name="topUC"/>
    </contour>
    <contour>
      <point x="95" y="684" type="line"/>
      <point x="95" y="0" type="line"/>
      <point x="156" y="0" type="line"/>
      <point x="156" y="684" type="line"/>
    </contour>
  </outline>
</glyph>
<glyph name="J" format="1">
  <advance width="449"/>
  <unicode hex="004A"/>
  <outline>
    <contour>
      <point x="354" y="684" type="line"/>
      <point x="35" y="684" type="line"/>
      <point x="35" y="627" type="line"/>
      <point x="299" y="627" type="line"/>
      <point x="299" y="432" type="line"/>
      <point x="154" y="420"/>
      <point x="76" y="338"/>
      <point x="76" y="185" type="curve" smooth="yes"/>
      <point x="76" y="42"/>
      <point x="142" y="-20"/>
      <point x="225" y="-20" type="curve" smooth="yes"/>
      <point x="300" y="-20"/>
      <point x="354" y="32"/>
      <point x="354" y="185" type="curve" smooth="yes"/>
    </contour>
    <contour>
      <point x="225" y="33" type="curve" smooth="yes"/>
      <point x="170" y="33"/>
      <point x="136" y="86"/>
      <point x="136" y="185" type="curve" smooth="yes"/>
      <point x="136" y="309"/>
      <point x="188" y="369"/>
      <point x="299" y="380" type="curve"/>
      <point x="299" y="185" type="line" smooth="yes"/>
      <point x="299" y="66"/>
      <point x="274" y="33"/>
    </contour>
  </outline>
</glyph>
<glyph name="M" format="1">
  <advance width="814"/>
  <unicode hex="004D"/>
  <outline>
    <contour>
      <point x="535" y="250" type="line"/>
      <point x="501" y="258"/>
      <point x="470" y="274"/>
      <point x="444" y="293" type="curve"/>
      <point x="580" y="454" type="line" smooth="yes"/>
      <point x="605" y="483"/>
      <point x="638" y="529"/>
      <point x="666" y="568" type="curve"/>
      <point x="662" y="534"/>
      <point x="658" y="487"/>
      <point x="658" y="454" type="curve" smooth="yes"/>
      <point x="658" y="0" type="line"/>
      <point x="719" y="0" type="line"/>
      <point x="719" y="693" type="line"/>
      <point x="700" y="693" type="line"/>
      <point x="401" y="330" type="line"/>
      <point x="392" y="339"/>
      <point x="385" y="347"/>
      <point x="380" y="354" type="curve" smooth="yes"/>
      <point x="114" y="693" type="line"/>
      <point x="95" y="693" type="line"/>
      <point x="95" y="0" type="line"/>
      <point x="156" y="0" type="line"/>
      <point x="156" y="454" type="line" smooth="yes"/>
      <point x="156" y="484"/>
      <point x="152" y="524"/>
      <point x="148" y="557" type="curve"/>
      <point x="171" y="521"/>
      <point x="199" y="481"/>
      <point x="221" y="454" type="curve" smooth="yes"/>
      <point x="319" y="333" type="line" smooth="yes"/>
      <point x="359" y="284"/>
      <point x="425" y="225"/>
      <point x="520" y="205" type="curve"/>
    </contour>
  </outline>
</glyph>
<glyph name="N" format="1">
  <advance width="764"/>
  <unicode hex="004E"/>
  <outline>
    <contour>
      <point x="380" y="685" type="move" name="topUC"/>
    </contour>
    <contour>
      <point x="719" y="43" type="line"/>
      <point x="699" y="47"/>
      <point x="682" y="55"/>
      <point x="666" y="64" type="curve"/>
      <point x="666" y="685" type="line"/>
      <point x="605" y="685" type="line"/>
      <point x="605" y="189" type="line" smooth="yes"/>
      <point x="605" y="162"/>
      <point x="606" y="133"/>
      <point x="609" y="107" type="curve"/>
      <point x="595" y="120"/>
      <point x="584" y="133"/>
      <point x="575" y="144" type="curve" smooth="yes"/>
      <point x="114" y="694" type="line"/>
      <point x="95" y="694" type="line"/>
      <point x="95" y="0" type="line"/>
      <point x="156" y="0" type="line"/>
      <point x="156" y="455" type="line" smooth="yes"/>
      <point x="156" y="486"/>
      <point x="152" y="527"/>
      <point x="149" y="561" type="curve"/>
      <point x="174" y="524"/>
      <point x="204" y="482"/>
      <point x="228" y="455" type="curve" smooth="yes"/>
      <point x="514" y="123" type="line" smooth="yes"/>
      <point x="555" y="75"/>
      <point x="609" y="18"/>
      <point x="704" y="-2" type="curve"/>
    </contour>
  </outline>
</glyph>
<glyph name="O" format="1">
  <advance width="795"/>
  <unicode hex="004F"/>
  <outline>
    <contour>
      <point x="402" y="684" type="move" name="topUC"/>
    </contour>
    <contour>
      <point x="732" y="724" type="line"/>
      <point x="704" y="698"/>
      <point x="666" y="684"/>
      <point x="613" y="684" type="curve" smooth="yes"/>
      <point x="551" y="684"/>
      <point x="482" y="694"/>
      <point x="398" y="694" type="curve" smooth="yes"/>
      <point x="194" y="694"/>
      <point x="60" y="542"/>
      <point x="60" y="342" type="curve" smooth="yes"/>
      <point x="60" y="143"/>
      <point x="194" y="-10"/>
      <point x="398" y="-10" type="curve" smooth="yes"/>
      <point x="601" y="-10"/>
      <point x="735" y="142"/>
      <point x="735" y="342" type="curve" smooth="yes"/>
      <point x="735" y="477"/>
      <point x="677" y="576"/>
      <point x="636" y="629" type="curve"/>
      <point x="684" y="632"/>
      <point x="734" y="647"/>
      <point x="765" y="690" type="curve"/>
    </contour>
    <contour>
      <point x="675" y="342" type="curve" smooth="yes"/>
      <point x="675" y="166"/>
      <point x="564" y="45"/>
      <point x="398" y="45" type="curve" smooth="yes"/>
      <point x="232" y="45"/>
      <point x="121" y="167"/>
      <point x="121" y="342" type="curve" smooth="yes"/>
      <point x="121" y="518"/>
      <point x="232" y="639"/>
      <point x="397" y="639" type="curve" smooth="yes"/>
      <point x="456" y="639"/>
      <point x="511" y="633"/>
      <point x="560" y="630" type="curve"/>
      <point x="581" y="609"/>
      <point x="675" y="509"/>
    </contour>
  </outline>
</glyph>
<glyph name="P" format="1">
  <advance width="558"/>
  <unicode hex="0050"/>
  <outline>
    <contour>
      <point x="312" y="639" type="curve" smooth="yes"/>
      <point x="403" y="639"/>
      <point x="464" y="572"/>
      <point x="464" y="477" type="curve" smooth="yes"/>
      <point x="464" y="380"/>
      <point x="403" y="314"/>
      <point x="312" y="314" type="curve" smooth="yes"/>
      <point x="267" y="314"/>
      <point x="226" y="316"/>
      <point x="226" y="316" type="curve"/>
      <point x="226" y="261" type="line"/>
      <point x="226" y="261"/>
      <point x="265" y="259"/>
      <point x="315" y="259" type="curve" smooth="yes"/>
      <point x="440" y="259"/>
      <point x="523" y="353"/>
      <point x="523" y="477" type="curve" smooth="yes"/>
      <point x="523" y="600"/>
      <point x="440" y="694"/>
      <point x="315" y="694" type="curve" smooth="yes"/>
      <point x="231" y="694"/>
      <point x="219" y="684"/>
      <point x="157" y="684" type="curve" smooth="yes"/>
      <point x="104" y="684"/>
      <point x="66" y="698"/>
      <point x="38" y="724" type="curve"/>
      <point x="5" y="690" type="line"/>
      <point x="32" y="653"/>
      <point x="72" y="637"/>
      <point x="114" y="631" type="curve"/>
      <point x="114" y="0" type="line"/>
      <point x="175" y="0" type="line"/>
      <point x="175" y="629" type="line"/>
      <point x="219" y="630"/>
      <point x="228" y="639"/>
    </contour>
  </outline>
</glyph>
<glyph name="Q" format="1">
  <advance width="795"/>
  <unicode hex="0051"/>
  <outline>
    <contour>
      <point x="509" y="-193" type="curve" smooth="yes"/>
      <point x="545" y="-193"/>
      <point x="584" y="-179"/>
      <point x="624" y="-150" type="curve"/>
      <point x="599" y="-106" type="line"/>
      <point x="567" y="-129"/>
      <point x="535" y="-141"/>
      <point x="509" y="-141" type="curve" smooth="yes"/>
      <point x="465" y="-141"/>
      <point x="429" y="-134"/>
      <point x="391" y="-121" type="curve" smooth="yes"/>
      <point x="311" y="-94" type="line"/>
      <point x="370" y="-9" type="line"/>
      <point x="379" y="-9"/>
      <point x="388" y="-10"/>
      <point x="398" y="-10" type="curve" smooth="yes"/>
      <point x="601" y="-10"/>
      <point x="735" y="142"/>
      <point x="735" y="342" type="curve" smooth="yes"/>
      <point x="735" y="541"/>
      <point x="601" y="694"/>
      <point x="398" y="694" type="curve" smooth="yes"/>
      <point x="194" y="694"/>
      <point x="60" y="542"/>
      <point x="60" y="342" type="curve" smooth="yes"/>
      <point x="60" y="172"/>
      <point x="157" y="36"/>
      <point x="313" y="0" type="curve"/>
      <point x="195" y="-166" type="line"/>
      <point x="238" y="-199" type="line"/>
      <point x="280" y="-138" type="line"/>
      <point x="379" y="-171" type="line" smooth="yes"/>
      <point x="418" y="-184"/>
      <point x="458" y="-193"/>
    </contour>
    <contour>
      <point x="398" y="639" type="curve" smooth="yes"/>
      <point x="564" y="639"/>
      <point x="675" y="517"/>
      <point x="675" y="342" type="curve" smooth="yes"/>
      <point x="675" y="166"/>
      <point x="564" y="45"/>
      <point x="398" y="45" type="curve" smooth="yes"/>
      <point x="232" y="45"/>
      <point x="121" y="167"/>
      <point x="121" y="342" type="curve" smooth="yes"/>
      <point x="121" y="518"/>
      <point x="232" y="639"/>
    </contour>
  </outline>
</glyph>
<glyph name="T" format="1">
  <advance width="569"/>
  <unicode hex="0054"/>
  <outline>
    <contour>
      <point x="554" y="684" type="line"/>
      <point x="15" y="684" type="line"/>
      <point x="15" y="627" type="line"/>
      <point x="254" y="627" type="line"/>
      <point x="254" y="0" type="line"/>
      <point x="315" y="0" type="line"/>
      <point x="315" y="627" type="line"/>
      <point x="554" y="627" type="line"/>
    </contour>
  </outline>
</glyph>
<glyph name="U" format="1">
  <advance width="715"/>
  <unicode hex="0055"/>
  <outline>
    <contour>
      <point x="358" y="685" type="move" name="topUC"/>
    </contour>
    <contour>
      <point x="90" y="684" type="line"/>
      <point x="90" y="267" type="line" smooth="yes"/>
      <point x="90" y="103"/>
      <point x="195" y="-10"/>
      <point x="358" y="-10" type="curve" smooth="yes"/>
      <point x="518" y="-10"/>
      <point x="625" y="103"/>
      <point x="625" y="267" type="curve" smooth="yes"/>
      <point x="625" y="684" type="line"/>
      <point x="564" y="684" type="line"/>
      <point x="564" y="267" type="line" smooth="yes"/>
      <point x="564" y="129"/>
      <point x="481" y="45"/>
      <point x="357" y="45" type="curve" smooth="yes"/>
      <point x="234" y="45"/>
      <point x="151" y="129"/>
      <point x="151" y="267" type="curve" smooth="yes"/>
      <point x="151" y="684" type="line"/>
    </contour>
  </outline>
</glyph>
<glyph name="V" format="1">
  <advance width="659"/>
  <unicode hex="0056"/>
  <outline>
    <contour>
      <point x="408" y="-8" type="curve"/>
      <point x="629" y="677" type="line"/>
      <point x="572" y="694" type="line"/>
      <point x="360" y="39" type="line"/>
      <point x="307" y="44"/>
      <point x="277" y="79"/>
      <point x="261" y="136" type="curve"/>
      <point x="94" y="694" type="line"/>
      <point x="35" y="679" type="line"/>
      <point x="202" y="121" type="line" smooth="yes"/>
      <point x="222" y="54"/>
      <point x="269" y="-14"/>
      <point x="356" y="-14" type="curve" smooth="yes"/>
      <point x="371" y="-14"/>
      <point x="391" y="-12"/>
    </contour>
  </outline>
</glyph>
<glyph name="W" format="1">
  <advance width="972"/>
  <unicode hex="0057"/>
  <outline>
    <contour>
      <point x="380" y="-8" type="curve"/>
      <point x="494" y="247" type="line"/>
      <point x="551" y="103" type="line" smooth="yes"/>
      <point x="576" y="39"/>
      <point x="618" y="-14"/>
      <point x="699" y="-14" type="curve" smooth="yes"/>
      <point x="714" y="-14"/>
      <point x="734" y="-12"/>
      <point x="751" y="-8" type="curve"/>
      <point x="937" y="679" type="line"/>
      <point x="880" y="696" type="line"/>
      <point x="701" y="39" type="line"/>
      <point x="660" y="43"/>
      <point x="632" y="64"/>
      <point x="610" y="118" type="curve" smooth="yes"/>
      <point x="524" y="321" type="line"/>
      <point x="524" y="570" type="line"/>
      <point x="463" y="570" type="line"/>
      <point x="463" y="321" type="line"/>
      <point x="337" y="39" type="line"/>
      <point x="283" y="43"/>
      <point x="258" y="77"/>
      <point x="243" y="136" type="curve" smooth="yes"/>
      <point x="99" y="695" type="line"/>
      <point x="40" y="680" type="line"/>
      <point x="184" y="121" type="line" smooth="yes"/>
      <point x="201" y="53"/>
      <point x="243" y="-14"/>
      <point x="328" y="-14" type="curve" smooth="yes"/>
      <point x="343" y="-14"/>
      <point x="363" y="-12"/>
    </contour>
  </outline>
</glyph>
<glyph name="X" format="1">
  <advance width="586"/>
  <unicode hex="0058"/>
  <outline>
    <contour>
      <point x="116" y="0" type="line"/>
      <point x="258" y="332" type="line"/>
      <point x="270" y="329" type="line" smooth="yes"/>
      <point x="330" y="315"/>
      <point x="365" y="288"/>
      <point x="388" y="231" type="curve" smooth="yes"/>
      <point x="482" y="0" type="line"/>
      <point x="546" y="0" type="line"/>
      <point x="447" y="246" type="line" smooth="yes"/>
      <point x="434" y="278"/>
      <point x="413" y="317"/>
      <point x="377" y="345" type="curve"/>
      <point x="523" y="678" type="line"/>
      <point x="465" y="694" type="line"/>
      <point x="323" y="373" type="line"/>
      <point x="314" y="376" type="line"/>
      <point x="249" y="392"/>
      <point x="223" y="427"/>
      <point x="204" y="476" type="curve" smooth="yes"/>
      <point x="121" y="694" type="line"/>
      <point x="63" y="678" type="line"/>
      <point x="145" y="461" type="line" smooth="yes"/>
      <point x="155" y="433"/>
      <point x="175" y="394"/>
      <point x="206" y="365" type="curve"/>
      <point x="50" y="0" type="line"/>
    </contour>
  </outline>
</glyph>
<glyph name="Z" format="1">
  <advance width="541"/>
  <unicode hex="005A"/>
  <outline>
    <contour>
      <point x="40" y="0" type="line"/>
      <point x="511" y="0" type="line"/>
      <point x="511" y="57" type="line"/>
      <point x="132" y="57" type="line"/>
      <point x="491" y="671" type="line"/>
      <point x="491" y="684" type="line"/>
      <point x="60" y="684" type="line"/>
      <point x="60" y="627" type="line"/>
      <point x="399" y="627" type="line"/>
      <point x="40" y="13" type="line"/>
    </contour>
  </outline>
</glyph>
<glyph name="bracketright" format="1">
  <advance width="328"/>
  <unicode hex="005D"/>
  <outline>
    <contour>
      <point x="40" y="750" type="line"/>
      <point x="40" y="693" type="line"/>
      <point x="217" y="693" type="line"/>
      <point x="217" y="-117" type="line"/>
      <point x="40" y="-117" type="line"/>
      <point x="40" y="-174" type="line"/>
      <point x="278" y="-174" type="line"/>
      <point x="278" y="750" type="line"/>
    </contour>
  </outline>
</glyph>
<glyph name="underscore" format="1">
  <advance width="440"/>
  <unicode hex="005F"/>
  <outline>
    <contour>
      <point x="0" y="-78" type="line"/>
      <point x="0" y="-133" type="line"/>
      <point x="440" y="-133" type="line"/>
      <point x="440" y="-78" type="line"/>
    </contour>
  </outline>
</glyph>
<glyph name="a" format="1">
  <advance width="492"/>
  <unicode hex="0061"/>
  <outline>
    <contour>
      <point x="244" y="498" type="move" name="top"/>
    </contour>
    <contour>
      <point x="200" y="-10" type="curve" smooth="yes"/>
      <point x="278" y="-10"/>
      <point x="331" y="22"/>
      <point x="356" y="72" type="curve"/>
      <point x="365" y="41"/>
      <point x="380" y="13"/>
      <point x="408" y="-8" type="curve"/>
      <point x="442" y="25" type="line"/>
      <point x="416" y="53"/>
      <point x="403" y="91"/>
      <point x="403" y="144" type="curve" smooth="yes"/>
      <point x="403" y="347" type="line" smooth="yes"/>
      <point x="403" y="448"/>
      <point x="355" y="508"/>
      <point x="244" y="508" type="curve" smooth="yes"/>
      <point x="176" y="508"/>
      <point x="108" y="478"/>
      <point x="69" y="444" type="curve"/>
      <point x="96" y="402" type="line"/>
      <point x="131" y="428"/>
      <point x="191" y="456"/>
      <point x="244" y="456" type="curve" smooth="yes"/>
      <point x="316" y="456"/>
      <point x="348" y="418"/>
      <point x="348" y="336" type="curve" smooth="yes"/>
      <point x="348" y="280" type="line"/>
      <point x="251" y="280" type="line" smooth="yes"/>
      <point x="148" y="280"/>
      <point x="40" y="245"/>
      <point x="40" y="133" type="curve" smooth="yes"/>
      <point x="40" y="39"/>
      <point x="109" y="-10"/>
    </contour>
    <contour>
      <point x="200" y="42" type="curve" smooth="yes"/>
      <point x="135" y="42"/>
      <point x="97" y="67"/>
      <point x="97" y="133" type="curve" smooth="yes"/>
      <point x="97" y="214"/>
      <point x="176" y="229"/>
      <point x="251" y="229" type="curve" smooth="yes"/>
      <point x="348" y="229" type="line"/>
      <point x="348" y="170" type="line"/>
      <point x="345" y="87"/>
      <point x="279" y="42"/>
    </contour>
  </outline>
</glyph>
<glyph name="b" format="1">
  <advance width="553"/>
  <unicode hex="0062"/>
  <outline>
    <contour>
      <point x="290" y="508" type="curve" smooth="yes"/>
      <point x="225" y="508"/>
      <point x="170" y="480"/>
      <point x="140" y="433" type="curve"/>
      <point x="140" y="726" type="line"/>
      <point x="85" y="726" type="line"/>
      <point x="85" y="10" type="line"/>
      <point x="85" y="10"/>
      <point x="151" y="-10"/>
      <point x="270" y="-10" type="curve" smooth="yes"/>
      <point x="411" y="-10"/>
      <point x="503" y="102"/>
      <point x="503" y="251" type="curve" smooth="yes"/>
      <point x="503" y="394"/>
      <point x="426" y="508"/>
    </contour>
    <contour>
      <point x="290" y="456" type="curve" smooth="yes"/>
      <point x="394" y="456"/>
      <point x="446" y="356"/>
      <point x="446" y="248" type="curve" smooth="yes"/>
      <point x="446" y="126"/>
      <point x="376" y="42"/>
      <point x="269" y="42" type="curve" smooth="yes"/>
      <point x="215" y="42"/>
      <point x="164" y="48"/>
      <point x="140" y="51" type="curve"/>
      <point x="140" y="328" type="line"/>
      <point x="149" y="414"/>
      <point x="224" y="456"/>
    </contour>
  </outline>
</glyph>
<glyph name="c" format="1">
  <advance width="435"/>
  <unicode hex="0063"/>
  <outline>
    <contour>
      <point x="263" y="0" type="move" name="bottom"/>
    </contour>
    <contour>
      <point x="117" y="250" type="curve" smooth="yes"/>
      <point x="117" y="358"/>
      <point x="147" y="456"/>
      <point x="249" y="456" type="curve" smooth="yes"/>
      <point x="283" y="456"/>
      <point x="338" y="452"/>
      <point x="390" y="448" type="curve"/>
      <point x="390" y="500" type="line"/>
      <point x="345" y="504"/>
      <point x="296" y="508"/>
      <point x="256" y="508" type="curve" smooth="yes"/>
      <point x="94" y="508"/>
      <point x="60" y="358"/>
      <point x="60" y="247" type="curve" smooth="yes"/>
      <point x="60" y="83"/>
      <point x="144" y="-10"/>
      <point x="274" y="-10" type="curve" smooth="yes"/>
      <point x="337" y="-10"/>
      <point x="394" y="16"/>
      <point x="435" y="48" type="curve"/>
      <point x="409" y="90" type="line"/>
      <point x="367" y="63"/>
      <point x="323" y="42"/>
      <point x="276" y="42" type="curve" smooth="yes"/>
      <point x="176" y="42"/>
      <point x="117" y="115"/>
    </contour>
  </outline>
</glyph>
<glyph name="d" format="1">
  <advance width="558"/>
  <unicode hex="0064"/>
  <outline>
    <contour>
      <point x="263" y="-10" type="curve" smooth="yes"/>
      <point x="334" y="-10"/>
      <point x="393" y="23"/>
      <point x="421" y="78" type="curve"/>
      <point x="429" y="45"/>
      <point x="444" y="14"/>
      <point x="474" y="-8" type="curve"/>
      <point x="508" y="25" type="line"/>
      <point x="482" y="53"/>
      <point x="469" y="91"/>
      <point x="469" y="144" type="curve" smooth="yes"/>
      <point x="469" y="727" type="line"/>
      <point x="414" y="727" type="line"/>
      <point x="414" y="499" type="line"/>
      <point x="383" y="503"/>
      <point x="339" y="508"/>
      <point x="283" y="508" type="curve" smooth="yes"/>
      <point x="142" y="508"/>
      <point x="50" y="396"/>
      <point x="50" y="247" type="curve" smooth="yes"/>
      <point x="50" y="104"/>
      <point x="127" y="-10"/>
    </contour>
    <contour>
      <point x="263" y="42" type="curve" smooth="yes"/>
      <point x="159" y="42"/>
      <point x="107" y="142"/>
      <point x="107" y="250" type="curve" smooth="yes"/>
      <point x="107" y="372"/>
      <point x="177" y="456"/>
      <point x="284" y="456" type="curve" smooth="yes"/>
      <point x="339" y="456"/>
      <point x="390" y="449"/>
      <point x="414" y="446" type="curve"/>
      <point x="414" y="188" type="line" smooth="yes"/>
      <point x="414" y="89"/>
      <point x="333" y="42"/>
    </contour>
  </outline>
</glyph>
<glyph name="g" format="1">
  <advance width="590"/>
  <unicode hex="0067"/>
  <outline>
    <contour>
      <point x="25" y="111" type="curve" smooth="yes"/>
      <point x="25" y="62"/>
      <point x="51" y="34"/>
      <point x="90" y="18" type="curve"/>
      <point x="88" y="-4"/>
      <point x="85" y="-49"/>
      <point x="85" y="-91" type="curve" smooth="yes"/>
      <point x="85" y="-217"/>
      <point x="208" y="-257"/>
      <point x="324" y="-257" type="curve" smooth="yes"/>
      <point x="441" y="-257"/>
      <point x="570" y="-218"/>
      <point x="570" y="-91" type="curve" smooth="yes"/>
      <point x="570" y="33"/>
      <point x="452" y="55"/>
      <point x="339" y="55" type="curve" smooth="yes"/>
      <point x="290" y="55"/>
      <point x="242" y="52"/>
      <point x="201" y="52" type="curve" smooth="yes"/>
      <point x="131" y="52"/>
      <point x="80" y="60"/>
      <point x="80" y="114" type="curve" smooth="yes"/>
      <point x="80" y="167"/>
      <point x="142" y="182"/>
      <point x="194" y="182" type="curve" smooth="yes"/>
      <point x="206" y="182"/>
      <point x="217" y="181"/>
      <point x="227" y="180" type="curve"/>
      <point x="255" y="166"/>
      <point x="288" y="159"/>
      <point x="325" y="159" type="curve" smooth="yes"/>
      <point x="434" y="159"/>
      <point x="513" y="225"/>
      <point x="513" y="333" type="curve" smooth="yes"/>
      <point x="513" y="383"/>
      <point x="496" y="424"/>
      <point x="468" y="453" type="curve"/>
      <point x="559" y="447" type="line"/>
      <point x="559" y="498" type="line"/>
      <point x="394" y="498" type="line"/>
      <point x="373" y="504"/>
      <point x="350" y="508"/>
      <point x="325" y="508" type="curve" smooth="yes"/>
      <point x="216" y="508"/>
      <point x="137" y="442"/>
      <point x="137" y="333" type="curve" smooth="yes"/>
      <point x="137" y="288"/>
      <point x="150" y="251"/>
      <point x="173" y="223" type="curve"/>
      <point x="89" y="220"/>
      <point x="25" y="181"/>
    </contour>
    <contour>
      <point x="217" y="-1" type="curve" smooth="yes"/>
      <point x="259" y="-1"/>
      <point x="301" y="2"/>
      <point x="334" y="2" type="curve" smooth="yes"/>
      <point x="426" y="2"/>
      <point x="515" y="-11"/>
      <point x="515" y="-91" type="curve" smooth="yes"/>
      <point x="515" y="-184"/>
      <point x="411" y="-205"/>
      <point x="324" y="-205" type="curve" smooth="yes"/>
      <point x="203" y="-205"/>
      <point x="140" y="-164"/>
      <point x="140" y="-91" type="curve" smooth="yes"/>
      <point x="140" y="-39"/>
      <point x="142" y="-7"/>
      <point x="143" y="4" type="curve"/>
      <point x="167" y="0"/>
      <point x="192" y="-1"/>
    </contour>
    <contour>
      <point x="324" y="456" type="curve" smooth="yes"/>
      <point x="404" y="456"/>
      <point x="456" y="408"/>
      <point x="456" y="334" type="curve" smooth="yes"/>
      <point x="456" y="260"/>
      <point x="404" y="212"/>
      <point x="324" y="212" type="curve" smooth="yes"/>
      <point x="243" y="212"/>
      <point x="192" y="260"/>
      <point x="192" y="334" type="curve" smooth="yes"/>
      <point x="192" y="408"/>
      <point x="243" y="456"/>
    </contour>
  </outline>
</glyph>
<glyph name="i" format="1">
  <advance width="236"/>
  <unicode hex="0069"/>
  <outline>
    <contour>
      <point x="55" y="472" type="line"/>
      <point x="81" y="444"/>
      <point x="95" y="406"/>
      <point x="95" y="353" type="curve" smooth="yes"/>
      <point x="95" y="0" type="line"/>
      <point x="150" y="0" type="line"/>
      <point x="150" y="353" type="line" smooth="yes"/>
      <point x="150" y="408"/>
      <point x="139" y="469"/>
      <point x="89" y="505" type="curve"/>
    </contour>
    <contour>
      <point x="68" y="662" type="curve" smooth="yes"/>
      <point x="68" y="637"/>
      <point x="89" y="616"/>
      <point x="114" y="616" type="curve" smooth="yes"/>
      <point x="140" y="616"/>
      <point x="161" y="637"/>
      <point x="161" y="662" type="curve" smooth="yes"/>
      <point x="161" y="688"/>
      <point x="140" y="709"/>
      <point x="114" y="709" type="curve" smooth="yes"/>
      <point x="89" y="709"/>
      <point x="68" y="688"/>
    </contour>
  </outline>
</glyph>
<glyph name="j" format="1">
  <advance width="238"/>
  <unicode hex="006A"/>
  <outline>
    <contour>
      <point x="57" y="472" type="line"/>
      <point x="83" y="444"/>
      <point x="97" y="406"/>
      <point x="97" y="353" type="curve" smooth="yes"/>
      <point x="97" y="-250" type="line"/>
      <point x="152" y="-250" type="line"/>
      <point x="152" y="353" type="line" smooth="yes"/>
      <point x="152" y="408"/>
      <point x="141" y="469"/>
      <point x="91" y="505" type="curve"/>
    </contour>
    <contour>
      <point x="70" y="662" type="curve" smooth="yes"/>
      <point x="70" y="637"/>
      <point x="91" y="616"/>
      <point x="116" y="616" type="curve" smooth="yes"/>
      <point x="142" y="616"/>
      <point x="163" y="637"/>
      <point x="163" y="662" type="curve" smooth="yes"/>
      <point x="163" y="688"/>
      <point x="142" y="709"/>
      <point x="116" y="709" type="curve" smooth="yes"/>
      <point x="91" y="709"/>
      <point x="70" y="688"/>
    </contour>
  </outline>
</glyph>
<glyph name="k" format="1">
  <advance width="527"/>
  <unicode hex="006B"/>
  <outline>
    <contour>
      <point x="487" y="0" type="line"/>
      <point x="420" y="146" type="line" smooth="yes"/>
      <point x="407" y="173"/>
      <point x="388" y="197"/>
      <point x="362" y="214" type="curve"/>
      <point x="424" y="234"/>
      <point x="469" y="277"/>
      <point x="469" y="356" type="curve" smooth="yes"/>
      <point x="469" y="450"/>
      <point x="396" y="508"/>
      <point x="297" y="508" type="curve" smooth="yes"/>
      <point x="222" y="508"/>
      <point x="171" y="468"/>
      <point x="140" y="409" type="curve"/>
      <point x="140" y="726" type="line"/>
      <point x="85" y="726" type="line"/>
      <point x="85" y="0" type="line"/>
      <point x="140" y="0" type="line"/>
      <point x="140" y="200" type="line"/>
      <point x="258" y="200" type="line"/>
      <point x="266" y="200" type="line"/>
      <point x="267" y="200" type="line"/>
      <point x="322" y="197"/>
      <point x="350" y="166"/>
      <point x="371" y="120" type="curve" smooth="yes"/>
      <point x="425" y="0" type="line"/>
    </contour>
    <contour>
      <point x="297" y="459" type="curve" smooth="yes"/>
      <point x="370" y="459"/>
      <point x="412" y="418"/>
      <point x="412" y="356" type="curve" smooth="yes"/>
      <point x="412" y="309"/>
      <point x="395" y="252"/>
      <point x="258" y="252" type="curve" smooth="yes"/>
      <point x="142" y="252" type="line"/>
      <point x="142" y="355"/>
      <point x="200" y="459"/>
    </contour>
  </outline>
</glyph>
<glyph name="l" format="1">
  <advance width="245"/>
  <unicode hex="006C"/>
  <outline>
    <contour>
      <point x="85" y="143" type="line" smooth="yes"/>
      <point x="85" y="88"/>
      <point x="96" y="27"/>
      <point x="146" y="-9" type="curve"/>
      <point x="180" y="24" type="line"/>
      <point x="154" y="52"/>
      <point x="140" y="90"/>
      <point x="140" y="143" type="curve" smooth="yes"/>
      <point x="140" y="726" type="line"/>
      <point x="85" y="726" type="line"/>
    </contour>
  </outline>
</glyph>
<glyph name="m" format="1">
  <advance width="817"/>
  <unicode hex="006D"/>
  <outline>
    <contour>
      <point x="445" y="0" type="line"/>
      <point x="445" y="347" type="line"/>
      <point x="445" y="357" type="line"/>
      <point x="480" y="424"/>
      <point x="527" y="456"/>
      <point x="589" y="456" type="curve" smooth="yes"/>
      <point x="657" y="456"/>
      <point x="691" y="418"/>
      <point x="691" y="336" type="curve" smooth="yes"/>
      <point x="691" y="243"/>
      <point x="683" y="197"/>
      <point x="683" y="134" type="curve" smooth="yes"/>
      <point x="683" y="95"/>
      <point x="688" y="40"/>
      <point x="709" y="0" type="curve"/>
      <point x="762" y="0" type="line"/>
      <point x="744" y="46"/>
      <point x="738" y="84"/>
      <point x="738" y="128" type="curve" smooth="yes"/>
      <point x="738" y="193"/>
      <point x="747" y="252"/>
      <point x="747" y="347" type="curve" smooth="yes"/>
      <point x="747" y="449"/>
      <point x="684" y="508"/>
      <point x="588" y="508" type="curve" smooth="yes"/>
      <point x="534" y="508"/>
      <point x="473" y="479"/>
      <point x="434" y="415" type="curve"/>
      <point x="412" y="477"/>
      <point x="359" y="508"/>
      <point x="294" y="508" type="curve" smooth="yes"/>
      <point x="230" y="508"/>
      <point x="174" y="478"/>
      <point x="138" y="417" type="curve"/>
      <point x="130" y="451"/>
      <point x="115" y="483"/>
      <point x="84" y="505" type="curve"/>
      <point x="50" y="472" type="line"/>
      <point x="76" y="444"/>
      <point x="90" y="406"/>
      <point x="90" y="353" type="curve" smooth="yes"/>
      <point x="90" y="0" type="line"/>
      <point x="145" y="0" type="line"/>
      <point x="145" y="353" type="line"/>
      <point x="145" y="358" type="line"/>
      <point x="172" y="419"/>
      <point x="234" y="456"/>
      <point x="288" y="456" type="curve" smooth="yes"/>
      <point x="353" y="456"/>
      <point x="390" y="420"/>
      <point x="390" y="336" type="curve" smooth="yes"/>
      <point x="390" y="0" type="line"/>
    </contour>
  </outline>
</glyph>
<glyph name="p" format="1">
  <advance width="558"/>
  <unicode hex="0070"/>
  <outline>
    <contour>
      <point x="295" y="508" type="curve" smooth="yes"/>
      <point x="224" y="508"/>
      <point x="165" y="475"/>
      <point x="137" y="421" type="curve"/>
      <point x="129" y="454"/>
      <point x="113" y="483"/>
      <point x="84" y="505" type="curve"/>
      <point x="50" y="472" type="line"/>
      <point x="76" y="444"/>
      <point x="90" y="406"/>
      <point x="90" y="353" type="curve" smooth="yes"/>
      <point x="90" y="-250" type="line"/>
      <point x="145" y="-250" type="line"/>
      <point x="145" y="-1" type="line"/>
      <point x="176" y="-5"/>
      <point x="220" y="-10"/>
      <point x="275" y="-10" type="curve" smooth="yes"/>
      <point x="416" y="-10"/>
      <point x="508" y="102"/>
      <point x="508" y="251" type="curve" smooth="yes"/>
      <point x="508" y="394"/>
      <point x="431" y="508"/>
    </contour>
    <contour>
      <point x="295" y="456" type="curve" smooth="yes"/>
      <point x="399" y="456"/>
      <point x="451" y="356"/>
      <point x="451" y="248" type="curve" smooth="yes"/>
      <point x="451" y="126"/>
      <point x="381" y="42"/>
      <point x="274" y="42" type="curve" smooth="yes"/>
      <point x="220" y="42"/>
      <point x="169" y="48"/>
      <point x="145" y="51" type="curve"/>
      <point x="145" y="328" type="line"/>
      <point x="154" y="414"/>
      <point x="229" y="456"/>
    </contour>
  </outline>
</glyph>
<glyph name="q" format="1">
  <advance width="558"/>
  <unicode hex="0071"/>
  <outline>
    <contour>
      <point x="473" y="-250" type="line"/>
      <point x="473" y="488" type="line"/>
      <point x="473" y="488"/>
      <point x="407" y="508"/>
      <point x="288" y="508" type="curve" smooth="yes"/>
      <point x="147" y="508"/>
      <point x="55" y="396"/>
      <point x="55" y="247" type="curve" smooth="yes"/>
      <point x="55" y="104"/>
      <point x="132" y="-10"/>
      <point x="268" y="-10" type="curve" smooth="yes"/>
      <point x="333" y="-10"/>
      <point x="388" y="18"/>
      <point x="418" y="64" type="curve"/>
      <point x="418" y="-250" type="line"/>
    </contour>
    <contour>
      <point x="268" y="42" type="curve" smooth="yes"/>
      <point x="164" y="42"/>
      <point x="112" y="142"/>
      <point x="112" y="250" type="curve" smooth="yes"/>
      <point x="112" y="372"/>
      <point x="182" y="456"/>
      <point x="289" y="456" type="curve" smooth="yes"/>
      <point x="343" y="456"/>
      <point x="394" y="450"/>
      <point x="418" y="446" type="curve"/>
      <point x="418" y="170" type="line"/>
      <point x="409" y="83"/>
      <point x="333" y="42"/>
    </contour>
  </outline>
</glyph>
<glyph name="r" format="1">
  <advance width="364"/>
  <unicode hex="0072"/>
  <outline>
    <contour>
      <point x="344" y="500" type="line"/>
      <point x="344" y="500"/>
      <point x="316" y="508"/>
      <point x="285" y="508" type="curve" smooth="yes"/>
      <point x="219" y="508"/>
      <point x="174" y="478"/>
      <point x="139" y="417" type="curve"/>
      <point x="131" y="451"/>
      <point x="115" y="482"/>
      <point x="84" y="505" type="curve"/>
      <point x="50" y="472" type="line"/>
      <point x="76" y="444"/>
      <point x="90" y="406"/>
      <point x="90" y="353" type="curve" smooth="yes"/>
      <point x="90" y="0" type="line"/>
      <point x="145" y="0" type="line"/>
      <point x="145" y="353" type="line"/>
      <point x="145" y="357" type="line"/>
      <point x="180" y="418"/>
      <point x="224" y="455"/>
      <point x="278" y="455" type="curve" smooth="yes"/>
      <point x="314" y="455"/>
      <point x="344" y="448"/>
      <point x="344" y="448" type="curve"/>
    </contour>
  </outline>
</glyph>
<glyph name="s" format="1">
  <advance width="417"/>
  <unicode hex="0073"/>
  <outline>
    <contour>
      <point x="35" y="48" type="line"/>
      <point x="76" y="16"/>
      <point x="138" y="-10"/>
      <point x="204" y="-10" type="curve" smooth="yes"/>
      <point x="292" y="-10"/>
      <point x="377" y="27"/>
      <point x="377" y="125" type="curve" smooth="yes"/>
      <point x="377" y="313"/>
      <point x="121" y="249"/>
      <point x="121" y="387" type="curve" smooth="yes"/>
      <point x="121" y="423"/>
      <point x="150" y="456"/>
      <point x="202" y="456" type="curve" smooth="yes"/>
      <point x="236" y="456"/>
      <point x="277" y="454"/>
      <point x="329" y="450" type="curve"/>
      <point x="329" y="502" type="line"/>
      <point x="284" y="506"/>
      <point x="249" y="508"/>
      <point x="209" y="508" type="curve" smooth="yes"/>
      <point x="119" y="508"/>
      <point x="63" y="451"/>
      <point x="63" y="387" type="curve" smooth="yes"/>
      <point x="63" y="200"/>
      <point x="319" y="264"/>
      <point x="319" y="125" type="curve" smooth="yes"/>
      <point x="319" y="64"/>
      <point x="269" y="42"/>
      <point x="212" y="42" type="curve" smooth="yes"/>
      <point x="148" y="42"/>
      <point x="98" y="67"/>
      <point x="63" y="90" type="curve"/>
    </contour>
  </outline>
</glyph>
<glyph name="t" format="1">
  <advance width="398"/>
  <unicode hex="0074"/>
  <outline>
    <contour>
      <point x="95" y="143" type="line" smooth="yes"/>
      <point x="95" y="25"/>
      <point x="152" y="-10"/>
      <point x="215" y="-10" type="curve" smooth="yes"/>
      <point x="284" y="-10"/>
      <point x="362" y="31"/>
      <point x="383" y="48" type="curve"/>
      <point x="357" y="90" type="line"/>
      <point x="334" y="76"/>
      <point x="274" y="42"/>
      <point x="225" y="42" type="curve" smooth="yes"/>
      <point x="184" y="42"/>
      <point x="150" y="65"/>
      <point x="150" y="143" type="curve" smooth="yes"/>
      <point x="150" y="443" type="line"/>
      <point x="308" y="443" type="line"/>
      <point x="308" y="498" type="line"/>
      <point x="150" y="498" type="line"/>
      <point x="150" y="504" type="line" smooth="yes"/>
      <point x="150" y="559"/>
      <point x="139" y="620"/>
      <point x="89" y="656" type="curve"/>
      <point x="55" y="623" type="line"/>
      <point x="81" y="595"/>
      <point x="95" y="557"/>
      <point x="95" y="504" type="curve" smooth="yes"/>
    </contour>
  </outline>
</glyph>
<glyph name="w" format="1">
  <advance width="766"/>
  <unicode hex="0077"/>
  <outline>
    <contour>
      <point x="321" y="-8" type="curve"/>
      <point x="389" y="206" type="line"/>
      <point x="415" y="121" type="line" smooth="yes"/>
      <point x="435" y="55"/>
      <point x="473" y="-14"/>
      <point x="554" y="-14" type="curve" smooth="yes"/>
      <point x="569" y="-14"/>
      <point x="584" y="-12"/>
      <point x="601" y="-8" type="curve"/>
      <point x="731" y="486" type="line"/>
      <point x="679" y="503" type="line"/>
      <point x="555" y="35" type="line"/>
      <point x="508" y="42"/>
      <point x="488" y="82"/>
      <point x="469" y="136" type="curve" smooth="yes"/>
      <point x="418" y="281" type="line"/>
      <point x="418" y="498" type="line"/>
      <point x="362" y="498" type="line"/>
      <point x="362" y="281" type="line"/>
      <point x="277" y="34" type="line"/>
      <point x="227" y="40"/>
      <point x="202" y="79"/>
      <point x="189" y="136" type="curve"/>
      <point x="99" y="503" type="line"/>
      <point x="45" y="488" type="line"/>
      <point x="135" y="121" type="line" smooth="yes"/>
      <point x="152" y="53"/>
      <point x="189" y="-14"/>
      <point x="274" y="-14" type="curve" smooth="yes"/>
      <point x="289" y="-14"/>
      <point x="304" y="-12"/>
    </contour>
  </outline>
</glyph>
<glyph name="x" format="1">
  <advance width="469"/>
  <unicode hex="0078"/>
  <outline>
    <contour>
      <point x="106" y="0" type="line"/>
      <point x="208" y="238" type="line"/>
      <point x="210" y="237"/>
      <point x="213" y="236"/>
      <point x="215" y="236" type="curve" smooth="yes"/>
      <point x="275" y="222"/>
      <point x="308" y="195"/>
      <point x="328" y="136" type="curve" smooth="yes"/>
      <point x="375" y="0" type="line"/>
      <point x="434" y="0" type="line"/>
      <point x="382" y="151" type="line" smooth="yes"/>
      <point x="370" y="185"/>
      <point x="352" y="226"/>
      <point x="314" y="253" type="curve"/>
      <point x="416" y="486" type="line"/>
      <point x="363" y="502" type="line"/>
      <point x="263" y="278" type="line"/>
      <point x="261" y="278"/>
      <point x="260" y="278"/>
      <point x="259" y="279" type="curve"/>
      <point x="194" y="295"/>
      <point x="173" y="332"/>
      <point x="154" y="381" type="curve" smooth="yes"/>
      <point x="108" y="502" type="line"/>
      <point x="55" y="486" type="line"/>
      <point x="100" y="366" type="line"/>
      <point x="110" y="336"/>
      <point x="128" y="295"/>
      <point x="159" y="266" type="curve"/>
      <point x="45" y="0" type="line"/>
    </contour>
  </outline>
</glyph>
<glyph name="z" format="1">
  <advance width="459"/>
  <unicode hex="007A"/>
  <outline>
    <contour>
      <point x="344" y="-13" type="curve" smooth="yes"/>
      <point x="380" y="-13"/>
      <point x="419" y="1"/>
      <point x="459" y="30" type="curve"/>
      <point x="434" y="74" type="line"/>
      <point x="402" y="51"/>
      <point x="370" y="39"/>
      <point x="344" y="39" type="curve" smooth="yes"/>
      <point x="300" y="39"/>
      <point x="264" y="46"/>
      <point x="226" y="59" type="curve" smooth="yes"/>
      <point x="146" y="87" type="line"/>
      <point x="419" y="485" type="line"/>
      <point x="419" y="498" type="line"/>
      <point x="68" y="498" type="line"/>
      <point x="68" y="446" type="line"/>
      <point x="325" y="446" type="line"/>
      <point x="30" y="13" type="line"/>
      <point x="73" y="-20" type="line"/>
      <point x="115" y="41" type="line"/>
      <point x="214" y="9" type="line" smooth="yes"/>
      <point x="253" y="-4"/>
      <point x="293" y="-13"/>
    </contour>
  </outline>
</glyph>
<glyph name="braceleft" format="1">
  <advance width="349"/>
  <unicode hex="007B"/>
  <outline>
    <contour>
      <point x="279" y="-127" type="line"/>
      <point x="198" y="-105"/>
      <point x="154" y="-91"/>
      <point x="154" y="-30" type="curve" smooth="yes"/>
      <point x="154" y="19"/>
      <point x="174" y="133"/>
      <point x="174" y="200" type="curve" smooth="yes"/>
      <point x="174" y="260"/>
      <point x="126" y="282"/>
      <point x="108" y="288" type="curve"/>
      <point x="127" y="295"/>
      <point x="174" y="318"/>
      <point x="174" y="377" type="curve" smooth="yes"/>
      <point x="174" y="444"/>
      <point x="154" y="558"/>
      <point x="154" y="607" type="curve" smooth="yes"/>
      <point x="154" y="668"/>
      <point x="198" y="682"/>
      <point x="279" y="704" type="curve"/>
      <point x="265" y="750" type="line"/>
      <point x="186" y="726"/>
      <point x="93" y="718"/>
      <point x="93" y="605" type="curve" smooth="yes"/>
      <point x="93" y="528"/>
      <point x="113" y="420"/>
      <point x="113" y="377" type="curve" smooth="yes"/>
      <point x="113" y="323"/>
      <point x="30" y="316"/>
      <point x="30" y="316" type="curve"/>
      <point x="30" y="261" type="line"/>
      <point x="30" y="261"/>
      <point x="113" y="254"/>
      <point x="113" y="200" type="curve" smooth="yes"/>
      <point x="113" y="157"/>
      <point x="93" y="49"/>
      <point x="93" y="-28" type="curve" smooth="yes"/>
      <point x="93" y="-141"/>
      <point x="186" y="-149"/>
      <point x="265" y="-173" type="curve"/>
    </contour>
  </outline>
</glyph>
<glyph name="braceright" format="1">
  <advance width="349"/>
  <unicode hex="007D"/>
  <outline>
    <contour>
      <point x="84" y="-173" type="line"/>
      <point x="163" y="-149"/>
      <point x="256" y="-141"/>
      <point x="256" y="-28" type="curve" smooth="yes"/>
      <point x="256" y="49"/>
      <point x="236" y="157"/>
      <point x="236" y="200" type="curve" smooth="yes"/>
      <point x="236" y="254"/>
      <point x="319" y="261"/>
      <point x="319" y="261" type="curve"/>
      <point x="319" y="316" type="line"/>
      <point x="319" y="316"/>
      <point x="236" y="323"/>
      <point x="236" y="377" type="curve" smooth="yes"/>
      <point x="236" y="420"/>
      <point x="256" y="528"/>
      <point x="256" y="605" type="curve" smooth="yes"/>
      <point x="256" y="718"/>
      <point x="163" y="726"/>
      <point x="84" y="750" type="curve"/>
      <point x="70" y="704" type="line"/>
      <point x="151" y="682"/>
      <point x="195" y="668"/>
      <point x="195" y="607" type="curve" smooth="yes"/>
      <point x="195" y="558"/>
      <point x="175" y="444"/>
      <point x="175" y="377" type="curve" smooth="yes"/>
      <point x="175" y="316"/>
      <point x="223" y="294"/>
      <point x="241" y="288" type="curve"/>
      <point x="222" y="282"/>
      <point x="175" y="259"/>
      <point x="175" y="200" type="curve" smooth="yes"/>
      <point x="175" y="133"/>
      <point x="195" y="19"/>
      <point x="195" y="-30" type="curve" smooth="yes"/>
      <point x="195" y="-91"/>
      <point x="151" y="-105"/>
      <point x="70" y="-127" type="curve"/>
    </contour>
  </outline>
</glyph>
<glyph name="exclamdown" format="1">
  <advance width="270"/>
  <unicode hex="00A1"/>
  <outline>
    <contour>
      <point x="94" y="258" type="curve" smooth="yes"/>
      <point x="94" y="171"/>
      <point x="34" y="-187"/>
      <point x="34" y="-187" type="curve"/>
      <point x="92" y="-187" type="line"/>
      <point x="92" y="-187"/>
      <point x="150" y="171"/>
      <point x="150" y="258" type="curve" smooth="yes"/>
      <point x="150" y="294"/>
      <point x="140" y="324"/>
      <point x="140" y="324" type="curve"/>
      <point x="84" y="312" type="line"/>
      <point x="84" y="312"/>
      <point x="94" y="288"/>
    </contour>
    <contour>
      <point x="143" y="452" type="curve" smooth="yes"/>
      <point x="143" y="483"/>
      <point x="117" y="508"/>
      <point x="87" y="508" type="curve" smooth="yes"/>
      <point x="55" y="508"/>
      <point x="30" y="483"/>
      <point x="30" y="452" type="curve" smooth="yes"/>
      <point x="30" y="421"/>
      <point x="55" y="395"/>
      <point x="87" y="395" type="curve" smooth="yes"/>
      <point x="117" y="395"/>
      <point x="143" y="421"/>
    </contour>
  </outline>
</glyph>
<glyph name="cent" format="1">
  <advance width="510"/>
  <unicode hex="00A2"/>
  <outline>
    <contour>
      <point x="250" y="750" type="line"/>
      <point x="250" y="595" type="line"/>
      <point x="106" y="582"/>
      <point x="75" y="441"/>
      <point x="75" y="335" type="curve" smooth="yes"/>
      <point x="75" y="188"/>
      <point x="142" y="98"/>
      <point x="250" y="81" type="curve"/>
      <point x="250" y="-70" type="line"/>
      <point x="311" y="-70" type="line"/>
      <point x="311" y="79" type="line"/>
      <point x="367" y="84"/>
      <point x="423" y="107"/>
      <point x="460" y="136" type="curve"/>
      <point x="434" y="178" type="line"/>
      <point x="398" y="154"/>
      <point x="353" y="136"/>
      <point x="311" y="131" type="curve"/>
      <point x="311" y="543" type="line"/>
      <point x="415" y="536" type="line"/>
      <point x="415" y="588" type="line"/>
      <point x="383" y="591"/>
      <point x="345" y="593"/>
      <point x="311" y="595" type="curve"/>
      <point x="311" y="750" type="line"/>
    </contour>
    <contour>
      <point x="132" y="338" type="curve" smooth="yes"/>
      <point x="132" y="441"/>
      <point x="159" y="535"/>
      <point x="250" y="543" type="curve"/>
      <point x="250" y="135" type="line"/>
      <point x="175" y="153"/>
      <point x="132" y="223"/>
    </contour>
  </outline>
</glyph>
<glyph name="sterling" format="1">
  <advance width="496"/>
  <unicode hex="00A3"/>
  <outline>
    <contour>
      <point x="117" y="124" type="line" smooth="yes"/>
      <point x="117" y="52"/>
      <point x="86" y="8"/>
      <point x="86" y="8" type="curve"/>
      <point x="137" y="-13" type="line"/>
      <point x="137" y="-13"/>
      <point x="150" y="3"/>
      <point x="162" y="33" type="curve"/>
      <point x="236" y="9" type="line" smooth="yes"/>
      <point x="275" y="-4"/>
      <point x="315" y="-13"/>
      <point x="366" y="-13" type="curve" smooth="yes"/>
      <point x="402" y="-13"/>
      <point x="441" y="1"/>
      <point x="481" y="30" type="curve"/>
      <point x="456" y="79" type="line"/>
      <point x="424" y="56"/>
      <point x="392" y="44"/>
      <point x="366" y="44" type="curve" smooth="yes"/>
      <point x="322" y="44"/>
      <point x="286" y="51"/>
      <point x="248" y="64" type="curve" smooth="yes"/>
      <point x="176" y="89" type="line"/>
      <point x="177" y="100"/>
      <point x="178" y="111"/>
      <point x="178" y="124" type="curve" smooth="yes"/>
      <point x="178" y="303" type="line"/>
      <point x="332" y="303" type="line"/>
      <point x="332" y="360" type="line"/>
      <point x="178" y="360" type="line"/>
      <point x="178" y="485" type="line" smooth="yes"/>
      <point x="178" y="565"/>
      <point x="224" y="611"/>
      <point x="310" y="611" type="curve" smooth="yes"/>
      <point x="344" y="611"/>
      <point x="379" y="607"/>
      <point x="431" y="603" type="curve"/>
      <point x="431" y="655" type="line"/>
      <point x="386" y="659"/>
      <point x="357" y="663"/>
      <point x="317" y="663" type="curve" smooth="yes"/>
      <point x="175" y="663"/>
      <point x="117" y="591"/>
      <point x="117" y="485" type="curve" smooth="yes"/>
      <point x="117" y="360" type="line"/>
      <point x="35" y="360" type="line"/>
      <point x="35" y="303" type="line"/>
      <point x="117" y="303" type="line"/>
    </contour>
  </outline>
</glyph>
<glyph name="brokenbar" format="1">
  <advance width="391"/>
  <unicode hex="00A6"/>
  <outline>
    <contour>
      <point x="165" y="300" type="line"/>
      <point x="165" y="-70" type="line"/>
      <point x="226" y="-70" type="line"/>
      <point x="226" y="300" type="line"/>
    </contour>
    <contour>
      <point x="226" y="380" type="line"/>
      <point x="226" y="750" type="line"/>
      <point x="165" y="750" type="line"/>
      <point x="165" y="380" type="line"/>
    </contour>
  </outline>
</glyph>
<glyph name="section" format="1">
  <advance width="415"/>
  <unicode hex="00A7"/>
  <outline>
    <contour>
      <point x="350" y="281" type="curve" smooth="yes"/>
      <point x="350" y="415"/>
      <point x="160" y="427"/>
      <point x="160" y="528" type="curve" smooth="yes"/>
      <point x="160" y="579"/>
      <point x="205" y="598"/>
      <point x="311" y="620" type="curve"/>
      <point x="298" y="673" type="line"/>
      <point x="169" y="653"/>
      <point x="95" y="608"/>
      <point x="95" y="528" type="curve" smooth="yes"/>
      <point x="95" y="492"/>
      <point x="107" y="465"/>
      <point x="126" y="442" type="curve"/>
      <point x="113" y="437"/>
      <point x="65" y="411"/>
      <point x="65" y="325" type="curve" smooth="yes"/>
      <point x="65" y="191"/>
      <point x="255" y="179"/>
      <point x="255" y="78" type="curve" smooth="yes"/>
      <point x="255" y="27"/>
      <point x="210" y="8"/>
      <point x="104" y="-14" type="curve"/>
      <point x="117" y="-67" type="line"/>
      <point x="246" y="-47"/>
      <point x="320" y="-2"/>
      <point x="320" y="78" type="curve" smooth="yes"/>
      <point x="320" y="114"/>
      <point x="307" y="141"/>
      <point x="288" y="164" type="curve"/>
      <point x="301" y="169"/>
      <point x="350" y="195"/>
    </contour>
    <contour>
      <point x="288" y="281" type="curve" smooth="yes"/>
      <point x="288" y="234"/>
      <point x="263" y="213"/>
      <point x="245" y="204" type="curve"/>
      <point x="191" y="244"/>
      <point x="127" y="271"/>
      <point x="127" y="325" type="curve" smooth="yes"/>
      <point x="127" y="371"/>
      <point x="152" y="392"/>
      <point x="170" y="402" type="curve"/>
      <point x="224" y="362"/>
      <point x="288" y="334"/>
    </contour>
  </outline>
</glyph>
<glyph name="dieresis" format="1">
  <advance width="520"/>
  <unicode hex="00A8"/>
  <outline>
    <contour>
      <point x="261" y="498" type="move" name="_top"/>
    </contour>
    <contour>
      <point x="105" y="662" type="curve" smooth="yes"/>
      <point x="105" y="638"/>
      <point x="125" y="618"/>
      <point x="149" y="618" type="curve" smooth="yes"/>
      <point x="174" y="618"/>
      <point x="194" y="638"/>
      <point x="194" y="662" type="curve" smooth="yes"/>
      <point x="194" y="687"/>
      <point x="174" y="707"/>
      <point x="149" y="707" type="curve" smooth="yes"/>
      <point x="125" y="707"/>
      <point x="105" y="687"/>
    </contour>
    <contour>
      <point x="326" y="662" type="curve" smooth="yes"/>
      <point x="326" y="638"/>
      <point x="346" y="618"/>
      <point x="370" y="618" type="curve" smooth="yes"/>
      <point x="395" y="618"/>
      <point x="415" y="638"/>
      <point x="415" y="662" type="curve" smooth="yes"/>
      <point x="415" y="687"/>
      <point x="395" y="707"/>
      <point x="370" y="707" type="curve" smooth="yes"/>
      <point x="346" y="707"/>
      <point x="326" y="687"/>
    </contour>
  </outline>
</glyph>
<glyph name="ordfeminine" format="1">
  <advance width="308"/>
  <unicode hex="00AA"/>
  <outline>
    <contour>
      <point x="123" y="412" type="curve" smooth="yes"/>
      <point x="168" y="412"/>
      <point x="196" y="437"/>
      <point x="207" y="470" type="curve"/>
      <point x="210" y="449"/>
      <point x="219" y="429"/>
      <point x="243" y="411" type="curve"/>
      <point x="268" y="437" type="line"/>
      <point x="253" y="454"/>
      <point x="243" y="478"/>
      <point x="243" y="502" type="curve" smooth="yes"/>
      <point x="243" y="606" type="line" smooth="yes"/>
      <point x="243" y="664"/>
      <point x="212" y="698"/>
      <point x="145" y="698" type="curve" smooth="yes"/>
      <point x="114" y="698"/>
      <point x="77" y="682"/>
      <point x="52" y="667" type="curve"/>
      <point x="74" y="632" type="line"/>
      <point x="97" y="645"/>
      <point x="120" y="656"/>
      <point x="145" y="656" type="curve" smooth="yes"/>
      <point x="179" y="656"/>
      <point x="198" y="635"/>
      <point x="198" y="601" type="curve" smooth="yes"/>
      <point x="198" y="577" type="line"/>
      <point x="159" y="577" type="line" smooth="yes"/>
      <point x="101" y="577"/>
      <point x="40" y="557"/>
      <point x="40" y="496" type="curve" smooth="yes"/>
      <point x="40" y="441"/>
      <point x="76" y="412"/>
    </contour>
    <contour>
      <point x="133" y="452" type="curve" smooth="yes"/>
      <point x="106" y="452"/>
      <point x="86" y="470"/>
      <point x="86" y="496" type="curve" smooth="yes"/>
      <point x="86" y="530"/>
      <point x="125" y="540"/>
      <point x="159" y="540" type="curve" smooth="yes"/>
      <point x="197" y="540" type="line"/>
      <point x="191" y="493"/>
      <point x="164" y="452"/>
    </contour>
  </outline>
</glyph>
<glyph name="guillemotleft" format="1">
  <advance width="615"/>
  <unicode hex="00AB"/>
  <outline>
    <contour>
      <point x="335" y="60" type="line"/>
      <point x="119" y="251" type="line"/>
      <point x="335" y="442" type="line"/>
      <point x="298" y="483" type="line"/>
      <point x="92" y="299" type="line" smooth="yes"/>
      <point x="72" y="282"/>
      <point x="60" y="266"/>
      <point x="60" y="251" type="curve" smooth="yes"/>
      <point x="60" y="236"/>
      <point x="72" y="220"/>
      <point x="92" y="203" type="curve" smooth="yes"/>
      <point x="298" y="19" type="line"/>
    </contour>
    <contour>
      <point x="545" y="60" type="line"/>
      <point x="329" y="251" type="line"/>
      <point x="545" y="442" type="line"/>
      <point x="508" y="483" type="line"/>
      <point x="302" y="299" type="line" smooth="yes"/>
      <point x="282" y="282"/>
      <point x="270" y="266"/>
      <point x="270" y="251" type="curve" smooth="yes"/>
      <point x="270" y="236"/>
      <point x="282" y="220"/>
      <point x="302" y="203" type="curve" smooth="yes"/>
      <point x="508" y="19" type="line"/>
    </contour>
  </outline>
</glyph>
<glyph name="degree" format="1">
  <advance width="365"/>
  <unicode hex="00B0"/>
  <outline>
    <contour>
      <point x="183" y="396" type="curve" smooth="yes"/>
      <point x="262" y="396"/>
      <point x="315" y="453"/>
      <point x="315" y="531" type="curve" smooth="yes"/>
      <point x="315" y="609"/>
      <point x="261" y="664"/>
      <point x="182" y="664" type="curve" smooth="yes"/>
      <point x="102" y="664"/>
      <point x="50" y="607"/>
      <point x="50" y="529" type="curve" smooth="yes"/>
      <point x="50" y="451"/>
      <point x="103" y="396"/>
    </contour>
    <contour>
      <point x="183" y="615" type="curve" smooth="yes"/>
      <point x="230" y="615"/>
      <point x="261" y="580"/>
      <point x="261" y="530" type="curve" smooth="yes"/>
      <point x="261" y="479"/>
      <point x="229" y="445"/>
      <point x="182" y="445" type="curve" smooth="yes"/>
      <point x="135" y="445"/>
      <point x="104" y="479"/>
      <point x="104" y="530" type="curve" smooth="yes"/>
      <point x="104" y="580"/>
      <point x="136" y="615"/>
    </contour>
  </outline>
</glyph>
<glyph name="uni00B2" format="1">
  <advance width="280"/>
  <unicode hex="00B2"/>
  <outline>
    <contour>
      <point x="40" y="414" type="line"/>
      <point x="240" y="414" type="line"/>
      <point x="240" y="457" type="line"/>
      <point x="94" y="457" type="line"/>
      <point x="105" y="480"/>
      <point x="126" y="497"/>
      <point x="148" y="512" type="curve" smooth="yes"/>
      <point x="186" y="539"/>
      <point x="224" y="568"/>
      <point x="224" y="617" type="curve" smooth="yes"/>
      <point x="224" y="667"/>
      <point x="199" y="701"/>
      <point x="135" y="701" type="curve" smooth="yes"/>
      <point x="117" y="701"/>
      <point x="77" y="699"/>
      <point x="54" y="697" type="curve"/>
      <point x="54" y="655" type="line"/>
      <point x="76" y="656"/>
      <point x="124" y="658"/>
      <point x="138" y="658" type="curve" smooth="yes"/>
      <point x="165" y="658"/>
      <point x="180" y="644"/>
      <point x="180" y="618" type="curve" smooth="yes"/>
      <point x="180" y="591"/>
      <point x="153" y="570"/>
      <point x="123" y="549" type="curve" smooth="yes"/>
      <point x="83" y="520"/>
      <point x="40" y="486"/>
      <point x="40" y="419" type="curve" smooth="yes"/>
    </contour>
  </outline>
</glyph>
<glyph name="acute" format="1">
  <advance width="520"/>
  <unicode hex="00B4"/>
  <outline>
    <contour>
      <point x="191" y="498" type="move" name="_top"/>
    </contour>
    <contour>
      <point x="185" y="567" type="line"/>
      <point x="357" y="677" type="line"/>
      <point x="321" y="726" type="line"/>
      <point x="163" y="601" type="line"/>
    </contour>
  </outline>
</glyph>
<glyph name="uni00B5" format="1">
  <advance width="553"/>
  <unicode hex="00B5"/>
  <outline>
    <contour>
      <point x="503" y="25" type="line"/>
      <point x="477" y="53"/>
      <point x="464" y="91"/>
      <point x="464" y="144" type="curve" smooth="yes"/>
      <point x="464" y="498" type="line"/>
      <point x="409" y="498" type="line"/>
      <point x="409" y="145" type="line"/>
      <point x="362" y="81"/>
      <point x="320" y="42"/>
      <point x="249" y="42" type="curve" smooth="yes"/>
      <point x="173" y="42"/>
      <point x="141" y="80"/>
      <point x="141" y="162" type="curve"/>
      <point x="140" y="162" type="line"/>
      <point x="140" y="498" type="line"/>
      <point x="85" y="498" type="line"/>
      <point x="85" y="-250" type="line"/>
      <point x="140" y="-250" type="line"/>
      <point x="140" y="18" type="line"/>
      <point x="166" y="0"/>
      <point x="201" y="-10"/>
      <point x="249" y="-10" type="curve" smooth="yes"/>
      <point x="316" y="-10"/>
      <point x="371" y="21"/>
      <point x="414" y="87" type="curve"/>
      <point x="421" y="50"/>
      <point x="436" y="16"/>
      <point x="469" y="-8" type="curve"/>
    </contour>
  </outline>
</glyph>
<glyph name="paragraph" format="1">
  <advance width="449"/>
  <unicode hex="00B6"/>
  <outline>
    <contour>
      <point x="341" y="-75" type="line"/>
      <point x="399" y="-75" type="line"/>
      <point x="399" y="614" type="line"/>
      <point x="323" y="616"/>
      <point x="302" y="617"/>
      <point x="273" y="617" type="curve" smooth="yes"/>
      <point x="101" y="617"/>
      <point x="20" y="567"/>
      <point x="20" y="431" type="curve" smooth="yes"/>
      <point x="20" y="318"/>
      <point x="80" y="265"/>
      <point x="200" y="250" type="curve"/>
      <point x="200" y="-75" type="line"/>
      <point x="259" y="-75" type="line"/>
      <point x="259" y="557" type="line"/>
      <point x="341" y="557" type="line"/>
    </contour>
  </outline>
</glyph>
<glyph name="cedilla" format="1">
  <advance width="833"/>
  <unicode hex="00B8"/>
  <outline>
    <contour>
      <point x="272" y="0" type="move" name="_bottom"/>
    </contour>
    <contour>
      <point x="247" y="0" type="line"/>
      <point x="247" y="-103" type="line"/>
      <point x="267" y="-107"/>
      <point x="305" y="-105"/>
      <point x="305" y="-139" type="curve" smooth="yes"/>
      <point x="305" y="-177"/>
      <point x="280" y="-196"/>
      <point x="255" y="-224" type="curve"/>
      <point x="289" y="-257" type="line"/>
      <point x="339" y="-221"/>
      <point x="360" y="-169"/>
      <point x="360" y="-126" type="curve" smooth="yes"/>
      <point x="360" y="-92"/>
      <point x="333" y="-70"/>
      <point x="300" y="-66" type="curve"/>
      <point x="300" y="0" type="line"/>
    </contour>
  </outline>
</glyph>
<glyph name="uni00B9" format="1">
  <advance width="245"/>
  <unicode hex="00B9"/>
  <outline>
    <contour>
      <point x="169" y="704" type="line"/>
      <point x="139" y="684"/>
      <point x="108" y="667"/>
      <point x="70" y="667" type="curve" smooth="yes"/>
      <point x="66" y="667"/>
      <point x="62" y="667"/>
      <point x="49" y="670" type="curve"/>
      <point x="40" y="631" type="line"/>
      <point x="54" y="625"/>
      <point x="64" y="624"/>
      <point x="75" y="624" type="curve" smooth="yes"/>
      <point x="93" y="624"/>
      <point x="110" y="629"/>
      <point x="127" y="637" type="curve"/>
      <point x="127" y="414" type="line"/>
      <point x="175" y="414" type="line"/>
      <point x="175" y="700" type="line"/>
    </contour>
  </outline>
</glyph>
<glyph name="ordmasculine" format="1">
  <advance width="349"/>
  <unicode hex="00BA"/>
  <outline>
    <contour>
      <point x="174" y="410" type="curve" smooth="yes"/>
      <point x="259" y="410"/>
      <point x="314" y="472"/>
      <point x="314" y="556" type="curve" smooth="yes"/>
      <point x="314" y="639"/>
      <point x="259" y="699"/>
      <point x="174" y="699" type="curve" smooth="yes"/>
      <point x="90" y="699"/>
      <point x="35" y="638"/>
      <point x="35" y="554" type="curve" smooth="yes"/>
      <point x="35" y="471"/>
      <point x="90" y="410"/>
    </contour>
    <contour>
      <point x="174" y="654" type="curve" smooth="yes"/>
      <point x="230" y="654"/>
      <point x="266" y="616"/>
      <point x="266" y="557" type="curve" smooth="yes"/>
      <point x="266" y="497"/>
      <point x="230" y="455"/>
      <point x="174" y="455" type="curve" smooth="yes"/>
      <point x="120" y="455"/>
      <point x="84" y="496"/>
      <point x="84" y="556" type="curve" smooth="yes"/>
      <point x="84" y="616"/>
      <point x="120" y="654"/>
    </contour>
  </outline>
</glyph>
<glyph name="onehalf" format="1">
  <advance width="683"/>
  <unicode hex="00BD"/>
  <outline>
    <contour>
      <point x="439" y="653" type="line"/>
      <point x="220" y="0" type="line"/>
      <point x="279" y="0" type="line"/>
      <point x="497" y="653" type="line"/>
    </contour>
    <contour>
      <point x="463" y="0" type="line"/>
      <point x="663" y="0" type="line"/>
      <point x="663" y="43" type="line"/>
      <point x="517" y="43" type="line"/>
      <point x="528" y="66"/>
      <point x="549" y="83"/>
      <point x="571" y="98" type="curve" smooth="yes"/>
      <point x="609" y="125"/>
      <point x="647" y="154"/>
      <point x="647" y="203" type="curve" smooth="yes"/>
      <point x="647" y="253"/>
      <point x="622" y="287"/>
      <point x="558" y="287" type="curve" smooth="yes"/>
      <point x="540" y="287"/>
      <point x="500" y="285"/>
      <point x="477" y="283" type="curve"/>
      <point x="477" y="241" type="line"/>
      <point x="499" y="242"/>
      <point x="547" y="244"/>
      <point x="561" y="244" type="curve" smooth="yes"/>
      <point x="588" y="244"/>
      <point x="603" y="230"/>
      <point x="603" y="204" type="curve" smooth="yes"/>
      <point x="603" y="177"/>
      <point x="576" y="156"/>
      <point x="546" y="135" type="curve" smooth="yes"/>
      <point x="506" y="106"/>
      <point x="463" y="72"/>
      <point x="463" y="5" type="curve" smooth="yes"/>
    </contour>
    <contour>
      <point x="219" y="663" type="line"/>
      <point x="205" y="654" type="line" smooth="yes"/>
      <point x="179" y="638"/>
      <point x="152" y="626"/>
      <point x="120" y="626" type="curve" smooth="yes"/>
      <point x="116" y="626"/>
      <point x="112" y="626"/>
      <point x="99" y="629" type="curve"/>
      <point x="90" y="590" type="line"/>
      <point x="104" y="584"/>
      <point x="114" y="583"/>
      <point x="125" y="583" type="curve" smooth="yes"/>
      <point x="143" y="583"/>
      <point x="160" y="588"/>
      <point x="177" y="596" type="curve"/>
      <point x="177" y="373" type="line"/>
      <point x="225" y="373" type="line"/>
      <point x="225" y="659" type="line"/>
    </contour>
  </outline>
</glyph>
<glyph name="threequarters" format="1">
  <advance width="714"/>
  <unicode hex="00BE"/>
  <outline>
    <contour>
      <point x="458" y="653" type="line"/>
      <point x="239" y="0" type="line"/>
      <point x="298" y="0" type="line"/>
      <point x="516" y="653" type="line"/>
    </contour>
    <contour>
      <point x="526" y="280" type="line"/>
      <point x="500" y="94" type="line"/>
      <point x="648" y="94" type="line"/>
      <point x="648" y="0" type="line"/>
      <point x="694" y="0" type="line"/>
      <point x="694" y="280" type="line"/>
      <point x="648" y="280" type="line"/>
      <point x="648" y="138" type="line"/>
      <point x="551" y="138" type="line"/>
      <point x="571" y="280" type="line"/>
    </contour>
    <contour>
      <point x="225" y="580" type="curve" smooth="yes"/>
      <point x="225" y="548"/>
      <point x="193" y="544"/>
      <point x="161" y="544" type="curve" smooth="yes"/>
      <point x="141" y="544" type="line"/>
      <point x="141" y="500" type="line"/>
      <point x="159" y="500" type="line" smooth="yes"/>
      <point x="179" y="500"/>
      <point x="197" y="502"/>
      <point x="213" y="507" type="curve"/>
      <point x="225" y="495"/>
      <point x="237" y="478"/>
      <point x="237" y="459" type="curve" smooth="yes"/>
      <point x="237" y="424"/>
      <point x="216" y="412"/>
      <point x="177" y="412" type="curve" smooth="yes"/>
      <point x="147" y="412"/>
      <point x="100" y="418"/>
      <point x="100" y="418" type="curve"/>
      <point x="100" y="375" type="line"/>
      <point x="100" y="375"/>
      <point x="148" y="369"/>
      <point x="178" y="369" type="curve" smooth="yes"/>
      <point x="242" y="369"/>
      <point x="283" y="397"/>
      <point x="283" y="457" type="curve" smooth="yes"/>
      <point x="283" y="490"/>
      <point x="267" y="514"/>
      <point x="252" y="530" type="curve"/>
      <point x="262" y="542"/>
      <point x="268" y="558"/>
      <point x="268" y="579" type="curve" smooth="yes"/>
      <point x="268" y="629"/>
      <point x="244" y="658"/>
      <point x="180" y="658" type="curve" smooth="yes"/>
      <point x="164" y="658"/>
      <point x="128" y="657"/>
      <point x="103" y="655" type="curve"/>
      <point x="103" y="613" type="line"/>
      <point x="108" y="613"/>
      <point x="123" y="614"/>
      <point x="130" y="614" type="curve" smooth="yes"/>
      <point x="149" y="615"/>
      <point x="173" y="616"/>
      <point x="182" y="616" type="curve" smooth="yes"/>
      <point x="209" y="616"/>
      <point x="225" y="605"/>
    </contour>
  </outline>
</glyph>
<glyph name="Agrave" format="1">
  <advance width="635"/>
  <unicode hex="00C0"/>
  <outline>
    <contour>
      <point x="307" y="703" type="line"/>
      <point x="10" y="0" type="line"/>
      <point x="74" y="0" type="line"/>
      <point x="169" y="227" type="line"/>
      <point x="464" y="227" type="line"/>
      <point x="561" y="0" type="line"/>
      <point x="625" y="0" type="line"/>
      <point x="326" y="703" type="line"/>
    </contour>
    <contour>
      <point x="292" y="517" type="line" smooth="yes"/>
      <point x="302" y="541"/>
      <point x="311" y="573"/>
      <point x="316" y="595" type="curve"/>
      <point x="321" y="574"/>
      <point x="330" y="542"/>
      <point x="341" y="517" type="curve" smooth="yes"/>
      <point x="440" y="284" type="line"/>
      <point x="193" y="284" type="line"/>
    </contour>
    <contour>
      <point x="336" y="763" type="line"/>
      <point x="142" y="826" type="line"/>
      <point x="124" y="768" type="line"/>
      <point x="324" y="723" type="line"/>
    </contour>
  </outline>
</glyph>
<glyph name="Atilde" format="1">
  <advance width="635"/>
  <unicode hex="00C3"/>
  <outline>
    <contour>
      <point x="307" y="703" type="line"/>
      <point x="10" y="0" type="line"/>
      <point x="74" y="0" type="line"/>
      <point x="169" y="227" type="line"/>
      <point x="464" y="227" type="line"/>
      <point x="561" y="0" type="line"/>
      <point x="625" y="0" type="line"/>
      <point x="326" y="703" type="line"/>
    </contour>
    <contour>
      <point x="292" y="517" type="line" smooth="yes"/>
      <point x="302" y="541"/>
      <point x="311" y="573"/>
      <point x="316" y="595" type="curve"/>
      <point x="321" y="574"/>
      <point x="330" y="542"/>
      <point x="341" y="517" type="curve" smooth="yes"/>
      <point x="440" y="284" type="line"/>
      <point x="193" y="284" type="line"/>
    </contour>
    <contour>
      <point x="164" y="766" type="line"/>
      <point x="178" y="795"/>
      <point x="203" y="802"/>
      <point x="236" y="802" type="curve" smooth="yes"/>
      <point x="286" y="802"/>
      <point x="348" y="767"/>
      <point x="405" y="767" type="curve" smooth="yes"/>
      <point x="465" y="767"/>
      <point x="506" y="786"/>
      <point x="525" y="840" type="curve"/>
      <point x="476" y="861" type="line"/>
      <point x="462" y="832"/>
      <point x="437" y="825"/>
      <point x="404" y="825" type="curve" smooth="yes"/>
      <point x="352" y="825"/>
      <point x="294" y="860"/>
      <point x="235" y="860" type="curve" smooth="yes"/>
      <point x="175" y="860"/>
      <point x="134" y="841"/>
      <point x="115" y="787" type="curve"/>
    </contour>
  </outline>
</glyph>
<glyph name="Adieresis" format="1">
  <advance width="635"/>
  <unicode hex="00C4"/>
  <outline>
    <contour>
      <point x="307" y="703" type="line"/>
      <point x="10" y="0" type="line"/>
      <point x="74" y="0" type="line"/>
      <point x="169" y="227" type="line"/>
      <point x="464" y="227" type="line"/>
      <point x="561" y="0" type="line"/>
      <point x="625" y="0" type="line"/>
      <point x="326" y="703" type="line"/>
    </contour>
    <contour>
      <point x="292" y="517" type="line" smooth="yes"/>
      <point x="302" y="541"/>
      <point x="311" y="573"/>
      <point x="316" y="595" type="curve"/>
      <point x="321" y="574"/>
      <point x="330" y="542"/>
      <point x="341" y="517" type="curve" smooth="yes"/>
      <point x="440" y="284" type="line"/>
      <point x="193" y="284" type="line"/>
    </contour>
    <contour>
      <point x="381" y="813" type="curve" smooth="yes"/>
      <point x="381" y="789"/>
      <point x="401" y="769"/>
      <point x="425" y="769" type="curve" smooth="yes"/>
      <point x="450" y="769"/>
      <point x="470" y="789"/>
      <point x="470" y="813" type="curve" smooth="yes"/>
      <point x="470" y="838"/>
      <point x="450" y="858"/>
      <point x="425" y="858" type="curve" smooth="yes"/>
      <point x="401" y="858"/>
      <point x="381" y="838"/>
    </contour>
    <contour>
      <point x="160" y="813" type="curve" smooth="yes"/>
      <point x="160" y="789"/>
      <point x="180" y="769"/>
      <point x="204" y="769" type="curve" smooth="yes"/>
      <point x="229" y="769"/>
      <point x="249" y="789"/>
      <point x="249" y="813" type="curve" smooth="yes"/>
      <point x="249" y="838"/>
      <point x="229" y="858"/>
      <point x="204" y="858" type="curve" smooth="yes"/>
      <point x="180" y="858"/>
      <point x="160" y="838"/>
    </contour>
  </outline>
</glyph>
<glyph name="Aring" format="1">
  <advance width="635"/>
  <unicode hex="00C5"/>
  <outline>
    <contour>
      <point x="74" y="0" type="line"/>
      <point x="169" y="227" type="line"/>
      <point x="464" y="227" type="line"/>
      <point x="561" y="0" type="line"/>
      <point x="625" y="0" type="line"/>
      <point x="343" y="663" type="line"/>
      <point x="389" y="673"/>
      <point x="418" y="713"/>
      <point x="418" y="764" type="curve" smooth="yes"/>
      <point x="418" y="823"/>
      <point x="377" y="866"/>
      <point x="317" y="866" type="curve" smooth="yes"/>
      <point x="255" y="866"/>
      <point x="216" y="822"/>
      <point x="216" y="762" type="curve" smooth="yes"/>
      <point x="216" y="711"/>
      <point x="244" y="673"/>
      <point x="290" y="663" type="curve"/>
      <point x="10" y="0" type="line"/>
    </contour>
    <contour>
      <point x="292" y="517" type="line" smooth="yes"/>
      <point x="302" y="541"/>
      <point x="311" y="573"/>
      <point x="316" y="595" type="curve"/>
      <point x="321" y="574"/>
      <point x="330" y="542"/>
      <point x="341" y="517" type="curve" smooth="yes"/>
      <point x="440" y="284" type="line"/>
      <point x="193" y="284" type="line"/>
    </contour>
    <contour>
      <point x="318" y="822" type="curve" smooth="yes"/>
      <point x="351" y="822"/>
      <point x="369" y="798"/>
      <point x="369" y="763" type="curve" smooth="yes"/>
      <point x="369" y="729"/>
      <point x="351" y="705"/>
      <point x="321" y="703" type="curve" smooth="yes"/>
      <point x="311" y="703" type="line" smooth="yes"/>
      <point x="281" y="705"/>
      <point x="265" y="729"/>
      <point x="265" y="763" type="curve" smooth="yes"/>
      <point x="265" y="798"/>
      <point x="285" y="822"/>
    </contour>
  </outline>
</glyph>
<glyph name="Ccedilla" format="1">
  <advance width="644"/>
  <unicode hex="00C7"/>
  <outline>
    <contour>
      <point x="121" y="342" type="line"/>
      <point x="121" y="371"/>
      <point x="124" y="400"/>
      <point x="130" y="426" type="curve"/>
      <point x="388" y="426" type="line" smooth="yes"/>
      <point x="541" y="426"/>
      <point x="604" y="480"/>
      <point x="604" y="555" type="curve" smooth="yes"/>
      <point x="604" y="638"/>
      <point x="531" y="694"/>
      <point x="388" y="694" type="curve" smooth="yes"/>
      <point x="193" y="694"/>
      <point x="60" y="541"/>
      <point x="60" y="342" type="curve"/>
    </contour>
    <contour>
      <point x="60" y="342" type="line"/>
      <point x="60" y="156"/>
      <point x="139" y="9"/>
      <point x="313" y="-8" type="curve"/>
      <point x="313" y="-103" type="line"/>
      <point x="333" y="-107"/>
      <point x="371" y="-105"/>
      <point x="371" y="-139" type="curve" smooth="yes"/>
      <point x="371" y="-177"/>
      <point x="346" y="-196"/>
      <point x="321" y="-224" type="curve"/>
      <point x="355" y="-257" type="line"/>
      <point x="405" y="-221"/>
      <point x="426" y="-169"/>
      <point x="426" y="-126" type="curve" smooth="yes"/>
      <point x="426" y="-92"/>
      <point x="399" y="-70"/>
      <point x="366" y="-66" type="curve"/>
      <point x="366" y="-9" type="line"/>
      <point x="469" y="-4"/>
      <point x="560" y="47"/>
      <point x="599" y="78" type="curve"/>
      <point x="573" y="123" type="line"/>
      <point x="531" y="96"/>
      <point x="432" y="45"/>
      <point x="348" y="45" type="curve" smooth="yes"/>
      <point x="198" y="45"/>
      <point x="121" y="167"/>
      <point x="121" y="342" type="curve"/>
    </contour>
    <contour>
      <point x="388" y="639" type="curve" smooth="yes"/>
      <point x="487" y="639"/>
      <point x="541" y="610"/>
      <point x="541" y="555" type="curve" smooth="yes"/>
      <point x="541" y="506"/>
      <point x="507" y="478"/>
      <point x="388" y="478" type="curve" smooth="yes"/>
      <point x="146" y="478" type="line"/>
      <point x="188" y="577"/>
      <point x="276" y="639"/>
    </contour>
  </outline>
</glyph>
<glyph name="Eacute" format="1">
  <advance width="593"/>
  <unicode hex="00C9"/>
  <outline>
    <contour>
      <point x="563" y="57" type="line"/>
      <point x="156" y="57" type="line"/>
      <point x="156" y="333" type="line"/>
      <point x="473" y="333" type="line"/>
      <point x="473" y="390" type="line"/>
      <point x="156" y="390" type="line"/>
      <point x="156" y="627" type="line"/>
      <point x="543" y="627" type="line"/>
      <point x="543" y="684" type="line"/>
      <point x="95" y="684" type="line"/>
      <point x="95" y="0" type="line"/>
      <point x="563" y="0" type="line"/>
    </contour>
    <contour>
      <point x="320" y="722" type="line"/>
      <point x="520" y="767" type="line"/>
      <point x="502" y="825" type="line"/>
      <point x="308" y="762" type="line"/>
    </contour>
  </outline>
</glyph>
<glyph name="Ecircumflex" format="1">
  <advance width="593"/>
  <unicode hex="00CA"/>
  <outline>
    <contour>
      <point x="563" y="57" type="line"/>
      <point x="156" y="57" type="line"/>
      <point x="156" y="333" type="line"/>
      <point x="473" y="333" type="line"/>
      <point x="473" y="390" type="line"/>
      <point x="156" y="390" type="line"/>
      <point x="156" y="627" type="line"/>
      <point x="543" y="627" type="line"/>
      <point x="543" y="684" type="line"/>
      <point x="95" y="684" type="line"/>
      <point x="95" y="0" type="line"/>
      <point x="563" y="0" type="line"/>
    </contour>
    <contour>
      <point x="486" y="755" type="line"/>
      <point x="377" y="857" type="line" smooth="yes"/>
      <point x="358" y="875"/>
      <point x="343" y="889"/>
      <point x="329" y="889" type="curve" smooth="yes"/>
      <point x="315" y="889"/>
      <point x="300" y="875"/>
      <point x="281" y="857" type="curve" smooth="yes"/>
      <point x="172" y="754" type="line"/>
      <point x="209" y="717" type="line"/>
      <point x="329" y="830" type="line"/>
      <point x="449" y="718" type="line"/>
    </contour>
  </outline>
</glyph>
<glyph name="Edieresis" format="1">
  <advance width="593"/>
  <unicode hex="00CB"/>
  <outline>
    <contour>
      <point x="563" y="57" type="line"/>
      <point x="156" y="57" type="line"/>
      <point x="156" y="333" type="line"/>
      <point x="473" y="333" type="line"/>
      <point x="473" y="390" type="line"/>
      <point x="156" y="390" type="line"/>
      <point x="156" y="627" type="line"/>
      <point x="543" y="627" type="line"/>
      <point x="543" y="684" type="line"/>
      <point x="95" y="684" type="line"/>
      <point x="95" y="0" type="line"/>
      <point x="563" y="0" type="line"/>
    </contour>
    <contour>
      <point x="172" y="812" type="curve" smooth="yes"/>
      <point x="172" y="788"/>
      <point x="192" y="768"/>
      <point x="216" y="768" type="curve" smooth="yes"/>
      <point x="241" y="768"/>
      <point x="261" y="788"/>
      <point x="261" y="812" type="curve" smooth="yes"/>
      <point x="261" y="837"/>
      <point x="241" y="857"/>
      <point x="216" y="857" type="curve" smooth="yes"/>
      <point x="192" y="857"/>
      <point x="172" y="837"/>
    </contour>
    <contour>
      <point x="393" y="812" type="curve" smooth="yes"/>
      <point x="393" y="788"/>
      <point x="413" y="768"/>
      <point x="437" y="768" type="curve" smooth="yes"/>
      <point x="462" y="768"/>
      <point x="482" y="788"/>
      <point x="482" y="812" type="curve" smooth="yes"/>
      <point x="482" y="837"/>
      <point x="462" y="857"/>
      <point x="437" y="857" type="curve" smooth="yes"/>
      <point x="413" y="857"/>
      <point x="393" y="837"/>
    </contour>
  </outline>
</glyph>
<glyph name="Igrave" format="1">
  <advance width="251"/>
  <unicode hex="00CC"/>
  <outline>
    <contour>
      <point x="95" y="684" type="line"/>
      <point x="95" y="0" type="line"/>
      <point x="156" y="0" type="line"/>
      <point x="156" y="684" type="line"/>
    </contour>
    <contour>
      <point x="144" y="763" type="line"/>
      <point x="-50" y="826" type="line"/>
      <point x="-68" y="768" type="line"/>
      <point x="132" y="723" type="line"/>
    </contour>
  </outline>
</glyph>
<glyph name="Iacute" format="1">
  <advance width="251"/>
  <unicode hex="00CD"/>
  <outline>
    <contour>
      <point x="95" y="684" type="line"/>
      <point x="95" y="0" type="line"/>
      <point x="156" y="0" type="line"/>
      <point x="156" y="684" type="line"/>
    </contour>
    <contour>
      <point x="116" y="723" type="line"/>
      <point x="316" y="768" type="line"/>
      <point x="298" y="826" type="line"/>
      <point x="104" y="763" type="line"/>
    </contour>
  </outline>
</glyph>
<glyph name="Icircumflex" format="1">
  <advance width="251"/>
  <unicode hex="00CE"/>
  <outline>
    <contour>
      <point x="95" y="684" type="line"/>
      <point x="95" y="0" type="line"/>
      <point x="156" y="0" type="line"/>
      <point x="156" y="684" type="line"/>
    </contour>
    <contour>
      <point x="282" y="756" type="line"/>
      <point x="173" y="858" type="line" smooth="yes"/>
      <point x="154" y="876"/>
      <point x="139" y="890"/>
      <point x="125" y="890" type="curve" smooth="yes"/>
      <point x="111" y="890"/>
      <point x="96" y="876"/>
      <point x="77" y="858" type="curve" smooth="yes"/>
      <point x="-32" y="755" type="line"/>
      <point x="5" y="718" type="line"/>
      <point x="125" y="831" type="line"/>
      <point x="245" y="719" type="line"/>
    </contour>
  </outline>
</glyph>
<glyph name="Eth" format="1">
  <advance width="779"/>
  <unicode hex="00D0"/>
  <outline>
    <contour>
      <point x="124" y="0" type="line"/>
      <point x="124" y="0"/>
      <point x="168" y="-10"/>
      <point x="372" y="-10" type="curve" smooth="yes"/>
      <point x="585" y="-10"/>
      <point x="719" y="142"/>
      <point x="719" y="342" type="curve" smooth="yes"/>
      <point x="719" y="541"/>
      <point x="585" y="694"/>
      <point x="372" y="694" type="curve" smooth="yes"/>
      <point x="288" y="694"/>
      <point x="229" y="684"/>
      <point x="167" y="684" type="curve" smooth="yes"/>
      <point x="114" y="684"/>
      <point x="76" y="698"/>
      <point x="48" y="724" type="curve"/>
      <point x="15" y="690" type="line"/>
      <point x="42" y="653"/>
      <point x="82" y="637"/>
      <point x="124" y="631" type="curve"/>
      <point x="124" y="446" type="line"/>
      <point x="10" y="446" type="line"/>
      <point x="10" y="389" type="line"/>
      <point x="124" y="389" type="line"/>
    </contour>
    <contour>
      <point x="307" y="446" type="line"/>
      <point x="185" y="446" type="line"/>
      <point x="185" y="629" type="line"/>
      <point x="240" y="630"/>
      <point x="299" y="639"/>
      <point x="372" y="639" type="curve" smooth="yes"/>
      <point x="548" y="639"/>
      <point x="659" y="517"/>
      <point x="659" y="342" type="curve" smooth="yes"/>
      <point x="659" y="166"/>
      <point x="548" y="45"/>
      <point x="372" y="45" type="curve" smooth="yes"/>
      <point x="286" y="45"/>
      <point x="226" y="47"/>
      <point x="185" y="50" type="curve"/>
      <point x="185" y="389" type="line"/>
      <point x="307" y="389" type="line"/>
    </contour>
  </outline>
</glyph>
<glyph name="Ntilde" format="1">
  <advance width="764"/>
  <unicode hex="00D1"/>
  <outline>
    <contour>
      <point x="719" y="43" type="line"/>
      <point x="699" y="47"/>
      <point x="682" y="55"/>
      <point x="666" y="64" type="curve"/>
      <point x="666" y="685" type="line"/>
      <point x="605" y="685" type="line"/>
      <point x="605" y="189" type="line" smooth="yes"/>
      <point x="605" y="162"/>
      <point x="606" y="133"/>
      <point x="609" y="107" type="curve"/>
      <point x="595" y="120"/>
      <point x="584" y="133"/>
      <point x="575" y="144" type="curve" smooth="yes"/>
      <point x="114" y="694" type="line"/>
      <point x="95" y="694" type="line"/>
      <point x="95" y="0" type="line"/>
      <point x="156" y="0" type="line"/>
      <point x="156" y="455" type="line" smooth="yes"/>
      <point x="156" y="486"/>
      <point x="152" y="527"/>
      <point x="149" y="561" type="curve"/>
      <point x="174" y="524"/>
      <point x="204" y="482"/>
      <point x="228" y="455" type="curve" smooth="yes"/>
      <point x="514" y="123" type="line" smooth="yes"/>
      <point x="555" y="75"/>
      <point x="609" y="18"/>
      <point x="704" y="-2" type="curve"/>
    </contour>
    <contour>
      <point x="227" y="766" type="line"/>
      <point x="241" y="795"/>
      <point x="266" y="802"/>
      <point x="299" y="802" type="curve" smooth="yes"/>
      <point x="349" y="802"/>
      <point x="411" y="767"/>
      <point x="468" y="767" type="curve" smooth="yes"/>
      <point x="528" y="767"/>
      <point x="569" y="786"/>
      <point x="588" y="840" type="curve"/>
      <point x="539" y="861" type="line"/>
      <point x="525" y="832"/>
      <point x="500" y="825"/>
      <point x="467" y="825" type="curve" smooth="yes"/>
      <point x="415" y="825"/>
      <point x="357" y="860"/>
      <point x="298" y="860" type="curve" smooth="yes"/>
      <point x="238" y="860"/>
      <point x="197" y="841"/>
      <point x="178" y="787" type="curve"/>
    </contour>
  </outline>
</glyph>
<glyph name="Otilde" format="1">
  <advance width="795"/>
  <unicode hex="00D5"/>
  <outline>
    <contour>
      <point x="732" y="724" type="line"/>
      <point x="704" y="698"/>
      <point x="666" y="684"/>
      <point x="613" y="684" type="curve" smooth="yes"/>
      <point x="551" y="684"/>
      <point x="482" y="694"/>
      <point x="398" y="694" type="curve" smooth="yes"/>
      <point x="194" y="694"/>
      <point x="60" y="542"/>
      <point x="60" y="342" type="curve" smooth="yes"/>
      <point x="60" y="143"/>
      <point x="194" y="-10"/>
      <point x="398" y="-10" type="curve" smooth="yes"/>
      <point x="601" y="-10"/>
      <point x="735" y="142"/>
      <point x="735" y="342" type="curve" smooth="yes"/>
      <point x="735" y="477"/>
      <point x="677" y="576"/>
      <point x="636" y="629" type="curve"/>
      <point x="684" y="632"/>
      <point x="734" y="647"/>
      <point x="765" y="690" type="curve"/>
    </contour>
    <contour>
      <point x="675" y="342" type="curve" smooth="yes"/>
      <point x="675" y="166"/>
      <point x="564" y="45"/>
      <point x="398" y="45" type="curve" smooth="yes"/>
      <point x="232" y="45"/>
      <point x="121" y="167"/>
      <point x="121" y="342" type="curve" smooth="yes"/>
      <point x="121" y="518"/>
      <point x="232" y="639"/>
      <point x="397" y="639" type="curve" smooth="yes"/>
      <point x="456" y="639"/>
      <point x="511" y="633"/>
      <point x="560" y="630" type="curve"/>
      <point x="581" y="609"/>
      <point x="675" y="509"/>
    </contour>
    <contour>
      <point x="249" y="765" type="line"/>
      <point x="263" y="794"/>
      <point x="288" y="801"/>
      <point x="321" y="801" type="curve" smooth="yes"/>
      <point x="371" y="801"/>
      <point x="433" y="766"/>
      <point x="490" y="766" type="curve" smooth="yes"/>
      <point x="550" y="766"/>
      <point x="591" y="785"/>
      <point x="610" y="839" type="curve"/>
      <point x="561" y="860" type="line"/>
      <point x="547" y="831"/>
      <point x="522" y="824"/>
      <point x="489" y="824" type="curve" smooth="yes"/>
      <point x="437" y="824"/>
      <point x="379" y="859"/>
      <point x="320" y="859" type="curve" smooth="yes"/>
      <point x="260" y="859"/>
      <point x="219" y="840"/>
      <point x="200" y="786" type="curve"/>
    </contour>
  </outline>
</glyph>
<glyph name="Odieresis" format="1">
  <advance width="795"/>
  <unicode hex="00D6"/>
  <outline>
    <contour>
      <point x="732" y="724" type="line"/>
      <point x="704" y="698"/>
      <point x="666" y="684"/>
      <point x="613" y="684" type="curve" smooth="yes"/>
      <point x="551" y="684"/>
      <point x="482" y="694"/>
      <point x="398" y="694" type="curve" smooth="yes"/>
      <point x="194" y="694"/>
      <point x="60" y="542"/>
      <point x="60" y="342" type="curve" smooth="yes"/>
      <point x="60" y="143"/>
      <point x="194" y="-10"/>
      <point x="398" y="-10" type="curve" smooth="yes"/>
      <point x="601" y="-10"/>
      <point x="735" y="142"/>
      <point x="735" y="342" type="curve" smooth="yes"/>
      <point x="735" y="477"/>
      <point x="677" y="576"/>
      <point x="636" y="629" type="curve"/>
      <point x="684" y="632"/>
      <point x="734" y="647"/>
      <point x="765" y="690" type="curve"/>
    </contour>
    <contour>
      <point x="675" y="342" type="curve" smooth="yes"/>
      <point x="675" y="166"/>
      <point x="564" y="45"/>
      <point x="398" y="45" type="curve" smooth="yes"/>
      <point x="232" y="45"/>
      <point x="121" y="167"/>
      <point x="121" y="342" type="curve" smooth="yes"/>
      <point x="121" y="518"/>
      <point x="232" y="639"/>
      <point x="397" y="639" type="curve" smooth="yes"/>
      <point x="456" y="639"/>
      <point x="511" y="633"/>
      <point x="560" y="630" type="curve"/>
      <point x="581" y="609"/>
      <point x="675" y="509"/>
    </contour>
    <contour>
      <point x="245" y="812" type="curve" smooth="yes"/>
      <point x="245" y="788"/>
      <point x="265" y="768"/>
      <point x="289" y="768" type="curve" smooth="yes"/>
      <point x="314" y="768"/>
      <point x="334" y="788"/>
      <point x="334" y="812" type="curve" smooth="yes"/>
      <point x="334" y="837"/>
      <point x="314" y="857"/>
      <point x="289" y="857" type="curve" smooth="yes"/>
      <point x="265" y="857"/>
      <point x="245" y="837"/>
    </contour>
    <contour>
      <point x="466" y="812" type="curve" smooth="yes"/>
      <point x="466" y="788"/>
      <point x="486" y="768"/>
      <point x="510" y="768" type="curve" smooth="yes"/>
      <point x="535" y="768"/>
      <point x="555" y="788"/>
      <point x="555" y="812" type="curve" smooth="yes"/>
      <point x="555" y="837"/>
      <point x="535" y="857"/>
      <point x="510" y="857" type="curve" smooth="yes"/>
      <point x="486" y="857"/>
      <point x="466" y="837"/>
    </contour>
  </outline>
</glyph>
<glyph name="Oslash" format="1">
  <advance width="795"/>
  <unicode hex="00D8"/>
  <outline>
    <contour>
      <point x="732" y="724" type="line"/>
      <point x="704" y="698"/>
      <point x="666" y="684"/>
      <point x="613" y="684" type="curve" smooth="yes"/>
      <point x="551" y="684"/>
      <point x="482" y="694"/>
      <point x="398" y="694" type="curve" smooth="yes"/>
      <point x="194" y="694"/>
      <point x="60" y="542"/>
      <point x="60" y="342" type="curve" smooth="yes"/>
      <point x="60" y="225"/>
      <point x="106" y="124"/>
      <point x="185" y="61" type="curve"/>
      <point x="149" y="9" type="line"/>
      <point x="198" y="-21" type="line"/>
      <point x="228" y="32" type="line"/>
      <point x="277" y="5"/>
      <point x="334" y="-10"/>
      <point x="398" y="-10" type="curve" smooth="yes"/>
      <point x="601" y="-10"/>
      <point x="735" y="142"/>
      <point x="735" y="342" type="curve" smooth="yes"/>
      <point x="735" y="477"/>
      <point x="677" y="576"/>
      <point x="636" y="629" type="curve"/>
      <point x="684" y="632"/>
      <point x="734" y="647"/>
      <point x="765" y="690" type="curve"/>
    </contour>
    <contour>
      <point x="121" y="342" type="curve" smooth="yes"/>
      <point x="121" y="518"/>
      <point x="232" y="639"/>
      <point x="397" y="639" type="curve" smooth="yes"/>
      <point x="453" y="639"/>
      <point x="505" y="634"/>
      <point x="552" y="631" type="curve"/>
      <point x="215" y="110" type="line"/>
      <point x="155" y="163"/>
      <point x="121" y="244"/>
    </contour>
    <contour>
      <point x="675" y="342" type="curve" smooth="yes"/>
      <point x="675" y="166"/>
      <point x="564" y="45"/>
      <point x="398" y="45" type="curve" smooth="yes"/>
      <point x="347" y="45"/>
      <point x="301" y="57"/>
      <point x="262" y="78" type="curve"/>
      <point x="594" y="591" type="line"/>
      <point x="629" y="543"/>
      <point x="675" y="459"/>
    </contour>
  </outline>
</glyph>
<glyph name="Ugrave" format="1">
  <advance width="715"/>
  <unicode hex="00D9"/>
  <outline>
    <contour>
      <point x="90" y="684" type="line"/>
      <point x="90" y="267" type="line" smooth="yes"/>
      <point x="90" y="103"/>
      <point x="195" y="-10"/>
      <point x="358" y="-10" type="curve" smooth="yes"/>
      <point x="518" y="-10"/>
      <point x="625" y="103"/>
      <point x="625" y="267" type="curve" smooth="yes"/>
      <point x="625" y="684" type="line"/>
      <point x="564" y="684" type="line"/>
      <point x="564" y="267" type="line" smooth="yes"/>
      <point x="564" y="129"/>
      <point x="481" y="45"/>
      <point x="357" y="45" type="curve" smooth="yes"/>
      <point x="234" y="45"/>
      <point x="151" y="129"/>
      <point x="151" y="267" type="curve" smooth="yes"/>
      <point x="151" y="684" type="line"/>
    </contour>
    <contour>
      <point x="377" y="763" type="line"/>
      <point x="183" y="826" type="line"/>
      <point x="165" y="768" type="line"/>
      <point x="365" y="723" type="line"/>
    </contour>
  </outline>
</glyph>
<glyph name="Uacute" format="1">
  <advance width="715"/>
  <unicode hex="00DA"/>
  <outline>
    <contour>
      <point x="90" y="684" type="line"/>
      <point x="90" y="267" type="line" smooth="yes"/>
      <point x="90" y="103"/>
      <point x="195" y="-10"/>
      <point x="358" y="-10" type="curve" smooth="yes"/>
      <point x="518" y="-10"/>
      <point x="625" y="103"/>
      <point x="625" y="267" type="curve" smooth="yes"/>
      <point x="625" y="684" type="line"/>
      <point x="564" y="684" type="line"/>
      <point x="564" y="267" type="line" smooth="yes"/>
      <point x="564" y="129"/>
      <point x="481" y="45"/>
      <point x="357" y="45" type="curve" smooth="yes"/>
      <point x="234" y="45"/>
      <point x="151" y="129"/>
      <point x="151" y="267" type="curve" smooth="yes"/>
      <point x="151" y="684" type="line"/>
    </contour>
    <contour>
      <point x="349" y="723" type="line"/>
      <point x="549" y="768" type="line"/>
      <point x="531" y="826" type="line"/>
      <point x="337" y="763" type="line"/>
    </contour>
  </outline>
</glyph>
<glyph name="Udieresis" format="1">
  <advance width="715"/>
  <unicode hex="00DC"/>
  <outline>
    <contour>
      <point x="90" y="684" type="line"/>
      <point x="90" y="267" type="line" smooth="yes"/>
      <point x="90" y="103"/>
      <point x="195" y="-10"/>
      <point x="358" y="-10" type="curve" smooth="yes"/>
      <point x="518" y="-10"/>
      <point x="625" y="103"/>
      <point x="625" y="267" type="curve" smooth="yes"/>
      <point x="625" y="684" type="line"/>
      <point x="564" y="684" type="line"/>
      <point x="564" y="267" type="line" smooth="yes"/>
      <point x="564" y="129"/>
      <point x="481" y="45"/>
      <point x="357" y="45" type="curve" smooth="yes"/>
      <point x="234" y="45"/>
      <point x="151" y="129"/>
      <point x="151" y="267" type="curve" smooth="yes"/>
      <point x="151" y="684" type="line"/>
    </contour>
    <contour>
      <point x="201" y="813" type="curve" smooth="yes"/>
      <point x="201" y="789"/>
      <point x="221" y="769"/>
      <point x="245" y="769" type="curve" smooth="yes"/>
      <point x="270" y="769"/>
      <point x="290" y="789"/>
      <point x="290" y="813" type="curve" smooth="yes"/>
      <point x="290" y="838"/>
      <point x="270" y="858"/>
      <point x="245" y="858" type="curve" smooth="yes"/>
      <point x="221" y="858"/>
      <point x="201" y="838"/>
    </contour>
    <contour>
      <point x="422" y="813" type="curve" smooth="yes"/>
      <point x="422" y="789"/>
      <point x="442" y="769"/>
      <point x="466" y="769" type="curve" smooth="yes"/>
      <point x="491" y="769"/>
      <point x="511" y="789"/>
      <point x="511" y="813" type="curve" smooth="yes"/>
      <point x="511" y="838"/>
      <point x="491" y="858"/>
      <point x="466" y="858" type="curve" smooth="yes"/>
      <point x="442" y="858"/>
      <point x="422" y="838"/>
    </contour>
  </outline>
</glyph>
<glyph name="Thorn" format="1">
  <advance width="528"/>
  <unicode hex="00DE"/>
  <outline>
    <contour>
      <point x="285" y="564" type="curve" smooth="yes"/>
      <point x="244" y="564"/>
      <point x="189" y="560"/>
      <point x="156" y="557" type="curve"/>
      <point x="156" y="684" type="line"/>
      <point x="95" y="684" type="line"/>
      <point x="95" y="0" type="line"/>
      <point x="156" y="0" type="line"/>
      <point x="156" y="130" type="line"/>
      <point x="179" y="130"/>
      <point x="244" y="129"/>
      <point x="285" y="129" type="curve" smooth="yes"/>
      <point x="410" y="129"/>
      <point x="493" y="223"/>
      <point x="493" y="347" type="curve" smooth="yes"/>
      <point x="493" y="470"/>
      <point x="410" y="564"/>
    </contour>
    <contour>
      <point x="282" y="509" type="curve" smooth="yes"/>
      <point x="373" y="509"/>
      <point x="434" y="442"/>
      <point x="434" y="347" type="curve" smooth="yes"/>
      <point x="434" y="250"/>
      <point x="373" y="184"/>
      <point x="282" y="184" type="curve" smooth="yes"/>
      <point x="244" y="184"/>
      <point x="178" y="185"/>
      <point x="156" y="185" type="curve"/>
      <point x="156" y="502" type="line"/>
      <point x="189" y="505"/>
      <point x="245" y="509"/>
    </contour>
  </outline>
</glyph>
<glyph name="germandbls" format="1">
  <advance width="512"/>
  <unicode hex="00DF"/>
  <outline>
    <contour>
      <point x="85" y="-250" type="line"/>
      <point x="140" y="-250" type="line"/>
      <point x="140" y="-2" type="line"/>
      <point x="171" y="-5"/>
      <point x="222" y="-10"/>
      <point x="284" y="-10" type="curve" smooth="yes"/>
      <point x="401" y="-10"/>
      <point x="477" y="57"/>
      <point x="477" y="155" type="curve" smooth="yes"/>
      <point x="477" y="354"/>
      <point x="291" y="309"/>
      <point x="291" y="437" type="curve" smooth="yes"/>
      <point x="291" y="498"/>
      <point x="388" y="503"/>
      <point x="388" y="602" type="curve" smooth="yes"/>
      <point x="388" y="680"/>
      <point x="341" y="734"/>
      <point x="242" y="734" type="curve" smooth="yes"/>
      <point x="123" y="734"/>
      <point x="85" y="630"/>
      <point x="85" y="494" type="curve" smooth="yes"/>
    </contour>
    <contour>
      <point x="140" y="497" type="line" smooth="yes"/>
      <point x="140" y="595"/>
      <point x="158" y="682"/>
      <point x="242" y="682" type="curve" smooth="yes"/>
      <point x="301" y="682"/>
      <point x="331" y="650"/>
      <point x="331" y="602" type="curve" smooth="yes"/>
      <point x="331" y="535"/>
      <point x="230" y="533"/>
      <point x="230" y="437" type="curve" smooth="yes"/>
      <point x="230" y="261"/>
      <point x="419" y="308"/>
      <point x="419" y="155" type="curve" smooth="yes"/>
      <point x="419" y="86"/>
      <point x="373" y="42"/>
      <point x="292" y="42" type="curve" smooth="yes"/>
      <point x="202" y="42"/>
      <point x="155" y="48"/>
      <point x="140" y="50" type="curve"/>
    </contour>
  </outline>
</glyph>
<glyph name="adieresis" format="1">
  <advance width="502"/>
  <unicode hex="00E4"/>
  <outline>
    <contour>
      <point x="210" y="-10" type="curve" smooth="yes"/>
      <point x="288" y="-10"/>
      <point x="341" y="22"/>
      <point x="366" y="72" type="curve"/>
      <point x="375" y="41"/>
      <point x="390" y="13"/>
      <point x="418" y="-8" type="curve"/>
      <point x="452" y="25" type="line"/>
      <point x="426" y="53"/>
      <point x="413" y="91"/>
      <point x="413" y="144" type="curve" smooth="yes"/>
      <point x="413" y="347" type="line" smooth="yes"/>
      <point x="413" y="448"/>
      <point x="365" y="508"/>
      <point x="254" y="508" type="curve" smooth="yes"/>
      <point x="186" y="508"/>
      <point x="118" y="478"/>
      <point x="79" y="444" type="curve"/>
      <point x="106" y="402" type="line"/>
      <point x="141" y="428"/>
      <point x="201" y="456"/>
      <point x="254" y="456" type="curve" smooth="yes"/>
      <point x="326" y="456"/>
      <point x="358" y="418"/>
      <point x="358" y="336" type="curve" smooth="yes"/>
      <point x="358" y="280" type="line"/>
      <point x="261" y="280" type="line" smooth="yes"/>
      <point x="158" y="280"/>
      <point x="50" y="245"/>
      <point x="50" y="133" type="curve" smooth="yes"/>
      <point x="50" y="39"/>
      <point x="119" y="-10"/>
    </contour>
    <contour>
      <point x="210" y="42" type="curve" smooth="yes"/>
      <point x="145" y="42"/>
      <point x="107" y="67"/>
      <point x="107" y="133" type="curve" smooth="yes"/>
      <point x="107" y="214"/>
      <point x="186" y="229"/>
      <point x="261" y="229" type="curve" smooth="yes"/>
      <point x="358" y="229" type="line"/>
      <point x="358" y="177" type="line" smooth="yes"/>
      <point x="358" y="90"/>
      <point x="291" y="42"/>
    </contour>
    <contour>
      <point x="98" y="662" type="curve" smooth="yes"/>
      <point x="98" y="638"/>
      <point x="118" y="618"/>
      <point x="142" y="618" type="curve" smooth="yes"/>
      <point x="167" y="618"/>
      <point x="187" y="638"/>
      <point x="187" y="662" type="curve" smooth="yes"/>
      <point x="187" y="687"/>
      <point x="167" y="707"/>
      <point x="142" y="707" type="curve" smooth="yes"/>
      <point x="118" y="707"/>
      <point x="98" y="687"/>
    </contour>
    <contour>
      <point x="319" y="662" type="curve" smooth="yes"/>
      <point x="319" y="638"/>
      <point x="339" y="618"/>
      <point x="363" y="618" type="curve" smooth="yes"/>
      <point x="388" y="618"/>
      <point x="408" y="638"/>
      <point x="408" y="662" type="curve" smooth="yes"/>
      <point x="408" y="687"/>
      <point x="388" y="707"/>
      <point x="363" y="707" type="curve" smooth="yes"/>
      <point x="339" y="707"/>
      <point x="319" y="687"/>
    </contour>
  </outline>
</glyph>
<glyph name="aring" format="1">
  <advance width="502"/>
  <unicode hex="00E5"/>
  <outline>
    <contour>
      <point x="210" y="-10" type="curve" smooth="yes"/>
      <point x="288" y="-10"/>
      <point x="341" y="22"/>
      <point x="366" y="72" type="curve"/>
      <point x="375" y="41"/>
      <point x="390" y="13"/>
      <point x="418" y="-8" type="curve"/>
      <point x="452" y="25" type="line"/>
      <point x="426" y="53"/>
      <point x="413" y="91"/>
      <point x="413" y="144" type="curve" smooth="yes"/>
      <point x="413" y="347" type="line" smooth="yes"/>
      <point x="413" y="448"/>
      <point x="365" y="508"/>
      <point x="254" y="508" type="curve" smooth="yes"/>
      <point x="186" y="508"/>
      <point x="118" y="478"/>
      <point x="79" y="444" type="curve"/>
      <point x="106" y="402" type="line"/>
      <point x="141" y="428"/>
      <point x="201" y="456"/>
      <point x="254" y="456" type="curve" smooth="yes"/>
      <point x="326" y="456"/>
      <point x="358" y="418"/>
      <point x="358" y="336" type="curve" smooth="yes"/>
      <point x="358" y="280" type="line"/>
      <point x="261" y="280" type="line" smooth="yes"/>
      <point x="158" y="280"/>
      <point x="50" y="245"/>
      <point x="50" y="133" type="curve" smooth="yes"/>
      <point x="50" y="39"/>
      <point x="119" y="-10"/>
    </contour>
    <contour>
      <point x="210" y="42" type="curve" smooth="yes"/>
      <point x="145" y="42"/>
      <point x="107" y="67"/>
      <point x="107" y="133" type="curve" smooth="yes"/>
      <point x="107" y="214"/>
      <point x="186" y="229"/>
      <point x="261" y="229" type="curve" smooth="yes"/>
      <point x="358" y="229" type="line"/>
      <point x="358" y="177" type="line" smooth="yes"/>
      <point x="358" y="90"/>
      <point x="291" y="42"/>
    </contour>
    <contour>
      <point x="253" y="547" type="curve" smooth="yes"/>
      <point x="314" y="547"/>
      <point x="354" y="591"/>
      <point x="354" y="651" type="curve" smooth="yes"/>
      <point x="354" y="710"/>
      <point x="313" y="753"/>
      <point x="253" y="753" type="curve" smooth="yes"/>
      <point x="191" y="753"/>
      <point x="152" y="709"/>
      <point x="152" y="649" type="curve" smooth="yes"/>
      <point x="152" y="589"/>
      <point x="191" y="547"/>
    </contour>
    <contour>
      <point x="254" y="709" type="curve" smooth="yes"/>
      <point x="287" y="709"/>
      <point x="305" y="685"/>
      <point x="305" y="650" type="curve" smooth="yes"/>
      <point x="305" y="614"/>
      <point x="285" y="590"/>
      <point x="252" y="590" type="curve" smooth="yes"/>
      <point x="219" y="590"/>
      <point x="201" y="614"/>
      <point x="201" y="650" type="curve" smooth="yes"/>
      <point x="201" y="685"/>
      <point x="221" y="709"/>
    </contour>
  </outline>
</glyph>
<glyph name="ae" format="1">
  <advance width="816"/>
  <unicode hex="00E6"/>
  <outline>
    <contour>
      <point x="210" y="-10" type="curve" smooth="yes"/>
      <point x="308" y="-10"/>
      <point x="373" y="42"/>
      <point x="386" y="114" type="curve"/>
      <point x="417" y="33"/>
      <point x="481" y="-10"/>
      <point x="584" y="-10" type="curve" smooth="yes"/>
      <point x="656" y="-10"/>
      <point x="719" y="16"/>
      <point x="766" y="48" type="curve"/>
      <point x="740" y="90" type="line"/>
      <point x="690" y="63"/>
      <point x="640" y="42"/>
      <point x="584" y="42" type="curve" smooth="yes"/>
      <point x="480" y="42"/>
      <point x="428" y="97"/>
      <point x="416" y="200" type="curve"/>
      <point x="534" y="200" type="line" smooth="yes"/>
      <point x="645" y="200"/>
      <point x="754" y="238"/>
      <point x="754" y="356" type="curve" smooth="yes"/>
      <point x="754" y="450"/>
      <point x="672" y="508"/>
      <point x="573" y="508" type="curve" smooth="yes"/>
      <point x="495" y="508"/>
      <point x="436" y="464"/>
      <point x="402" y="400" type="curve"/>
      <point x="386" y="464"/>
      <point x="343" y="508"/>
      <point x="254" y="508" type="curve" smooth="yes"/>
      <point x="186" y="508"/>
      <point x="118" y="478"/>
      <point x="79" y="444" type="curve"/>
      <point x="106" y="402" type="line"/>
      <point x="141" y="428"/>
      <point x="201" y="456"/>
      <point x="254" y="456" type="curve" smooth="yes"/>
      <point x="326" y="456"/>
      <point x="358" y="418"/>
      <point x="358" y="336" type="curve" smooth="yes"/>
      <point x="358" y="280" type="line"/>
      <point x="261" y="280" type="line" smooth="yes"/>
      <point x="158" y="280"/>
      <point x="50" y="245"/>
      <point x="50" y="133" type="curve" smooth="yes"/>
      <point x="50" y="39"/>
      <point x="119" y="-10"/>
    </contour>
    <contour>
      <point x="573" y="459" type="curve" smooth="yes"/>
      <point x="646" y="459"/>
      <point x="697" y="418"/>
      <point x="697" y="356" type="curve" smooth="yes"/>
      <point x="697" y="309"/>
      <point x="671" y="252"/>
      <point x="534" y="252" type="curve" smooth="yes"/>
      <point x="413" y="252" type="line"/>
      <point x="414" y="355"/>
      <point x="476" y="459"/>
    </contour>
    <contour>
      <point x="210" y="42" type="curve" smooth="yes"/>
      <point x="145" y="42"/>
      <point x="107" y="67"/>
      <point x="107" y="133" type="curve" smooth="yes"/>
      <point x="107" y="214"/>
      <point x="186" y="229"/>
      <point x="261" y="229" type="curve" smooth="yes"/>
      <point x="358" y="229" type="line"/>
      <point x="358" y="177" type="line" smooth="yes"/>
      <point x="358" y="90"/>
      <point x="291" y="42"/>
    </contour>
  </outline>
</glyph>
<glyph name="eacute" format="1">
  <advance width="520"/>
  <unicode hex="00E9"/>
  <outline>
    <contour>
      <point x="238" y="200" type="line" smooth="yes"/>
      <point x="349" y="200"/>
      <point x="458" y="238"/>
      <point x="458" y="356" type="curve" smooth="yes"/>
      <point x="458" y="450"/>
      <point x="376" y="508"/>
      <point x="277" y="508" type="curve" smooth="yes"/>
      <point x="146" y="508"/>
      <point x="60" y="385"/>
      <point x="60" y="247" type="curve" smooth="yes"/>
      <point x="60" y="83"/>
      <point x="138" y="-10"/>
      <point x="288" y="-10" type="curve" smooth="yes"/>
      <point x="360" y="-10"/>
      <point x="423" y="16"/>
      <point x="470" y="48" type="curve"/>
      <point x="444" y="90" type="line"/>
      <point x="394" y="63"/>
      <point x="344" y="42"/>
      <point x="288" y="42" type="curve" smooth="yes"/>
      <point x="184" y="42"/>
      <point x="132" y="97"/>
      <point x="120" y="200" type="curve"/>
    </contour>
    <contour>
      <point x="277" y="459" type="curve" smooth="yes"/>
      <point x="350" y="459"/>
      <point x="401" y="418"/>
      <point x="401" y="356" type="curve" smooth="yes"/>
      <point x="401" y="309"/>
      <point x="375" y="252"/>
      <point x="238" y="252" type="curve" smooth="yes"/>
      <point x="117" y="252" type="line"/>
      <point x="118" y="355"/>
      <point x="180" y="459"/>
    </contour>
    <contour>
      <point x="271" y="567" type="line"/>
      <point x="443" y="677" type="line"/>
      <point x="407" y="726" type="line"/>
      <point x="249" y="601" type="line"/>
    </contour>
  </outline>
</glyph>
<glyph name="ecircumflex" format="1">
  <advance width="520"/>
  <unicode hex="00EA"/>
  <outline>
    <contour>
      <point x="238" y="200" type="line" smooth="yes"/>
      <point x="349" y="200"/>
      <point x="458" y="238"/>
      <point x="458" y="356" type="curve" smooth="yes"/>
      <point x="458" y="450"/>
      <point x="376" y="508"/>
      <point x="277" y="508" type="curve" smooth="yes"/>
      <point x="146" y="508"/>
      <point x="60" y="385"/>
      <point x="60" y="247" type="curve" smooth="yes"/>
      <point x="60" y="83"/>
      <point x="138" y="-10"/>
      <point x="288" y="-10" type="curve" smooth="yes"/>
      <point x="360" y="-10"/>
      <point x="423" y="16"/>
      <point x="470" y="48" type="curve"/>
      <point x="444" y="90" type="line"/>
      <point x="394" y="63"/>
      <point x="344" y="42"/>
      <point x="288" y="42" type="curve" smooth="yes"/>
      <point x="184" y="42"/>
      <point x="132" y="97"/>
      <point x="120" y="200" type="curve"/>
    </contour>
    <contour>
      <point x="277" y="459" type="curve" smooth="yes"/>
      <point x="350" y="459"/>
      <point x="401" y="418"/>
      <point x="401" y="356" type="curve" smooth="yes"/>
      <point x="401" y="309"/>
      <point x="375" y="252"/>
      <point x="238" y="252" type="curve" smooth="yes"/>
      <point x="117" y="252" type="line"/>
      <point x="118" y="355"/>
      <point x="180" y="459"/>
    </contour>
    <contour>
      <point x="434" y="614" type="line"/>
      <point x="325" y="736" type="line" smooth="yes"/>
      <point x="308" y="756"/>
      <point x="292" y="768"/>
      <point x="277" y="768" type="curve" smooth="yes"/>
      <point x="262" y="768"/>
      <point x="246" y="756"/>
      <point x="229" y="736" type="curve" smooth="yes"/>
      <point x="120" y="613" type="line"/>
      <point x="157" y="580" type="line"/>
      <point x="277" y="714" type="line"/>
      <point x="397" y="581" type="line"/>
    </contour>
  </outline>
</glyph>
<glyph name="edieresis" format="1">
  <advance width="520"/>
  <unicode hex="00EB"/>
  <outline>
    <contour>
      <point x="238" y="200" type="line" smooth="yes"/>
      <point x="349" y="200"/>
      <point x="458" y="238"/>
      <point x="458" y="356" type="curve" smooth="yes"/>
      <point x="458" y="450"/>
      <point x="376" y="508"/>
      <point x="277" y="508" type="curve" smooth="yes"/>
      <point x="146" y="508"/>
      <point x="60" y="385"/>
      <point x="60" y="247" type="curve" smooth="yes"/>
      <point x="60" y="83"/>
      <point x="138" y="-10"/>
      <point x="288" y="-10" type="curve" smooth="yes"/>
      <point x="360" y="-10"/>
      <point x="423" y="16"/>
      <point x="470" y="48" type="curve"/>
      <point x="444" y="90" type="line"/>
      <point x="394" y="63"/>
      <point x="344" y="42"/>
      <point x="288" y="42" type="curve" smooth="yes"/>
      <point x="184" y="42"/>
      <point x="132" y="97"/>
      <point x="120" y="200" type="curve"/>
    </contour>
    <contour>
      <point x="277" y="459" type="curve" smooth="yes"/>
      <point x="350" y="459"/>
      <point x="401" y="418"/>
      <point x="401" y="356" type="curve" smooth="yes"/>
      <point x="401" y="309"/>
      <point x="375" y="252"/>
      <point x="238" y="252" type="curve" smooth="yes"/>
      <point x="117" y="252" type="line"/>
      <point x="118" y="355"/>
      <point x="180" y="459"/>
    </contour>
    <contour>
      <point x="121" y="662" type="curve" smooth="yes"/>
      <point x="121" y="638"/>
      <point x="141" y="618"/>
      <point x="165" y="618" type="curve" smooth="yes"/>
      <point x="190" y="618"/>
      <point x="210" y="638"/>
      <point x="210" y="662" type="curve" smooth="yes"/>
      <point x="210" y="687"/>
      <point x="190" y="707"/>
      <point x="165" y="707" type="curve" smooth="yes"/>
      <point x="141" y="707"/>
      <point x="121" y="687"/>
    </contour>
    <contour>
      <point x="342" y="662" type="curve" smooth="yes"/>
      <point x="342" y="638"/>
      <point x="362" y="618"/>
      <point x="386" y="618" type="curve" smooth="yes"/>
      <point x="411" y="618"/>
      <point x="431" y="638"/>
      <point x="431" y="662" type="curve" smooth="yes"/>
      <point x="431" y="687"/>
      <point x="411" y="707"/>
      <point x="386" y="707" type="curve" smooth="yes"/>
      <point x="362" y="707"/>
      <point x="342" y="687"/>
    </contour>
  </outline>
</glyph>
<glyph name="iacute" format="1">
  <advance width="235"/>
  <unicode hex="00ED"/>
  <outline>
    <contour>
      <point x="55" y="472" type="line"/>
      <point x="81" y="444"/>
      <point x="95" y="406"/>
      <point x="95" y="353" type="curve" smooth="yes"/>
      <point x="95" y="0" type="line"/>
      <point x="150" y="0" type="line"/>
      <point x="150" y="353" type="line" smooth="yes"/>
      <point x="150" y="408"/>
      <point x="139" y="469"/>
      <point x="89" y="505" type="curve"/>
    </contour>
    <contour>
      <point x="86" y="560" type="line"/>
      <point x="193" y="699" type="line"/>
      <point x="143" y="732" type="line"/>
      <point x="53" y="584" type="line"/>
    </contour>
  </outline>
</glyph>
<glyph name="idieresis" format="1">
  <advance width="235"/>
  <unicode hex="00EF"/>
  <outline>
    <contour>
      <point x="55" y="472" type="line"/>
      <point x="81" y="444"/>
      <point x="95" y="406"/>
      <point x="95" y="353" type="curve" smooth="yes"/>
      <point x="95" y="0" type="line"/>
      <point x="150" y="0" type="line"/>
      <point x="150" y="353" type="line" smooth="yes"/>
      <point x="150" y="408"/>
      <point x="139" y="469"/>
      <point x="89" y="505" type="curve"/>
    </contour>
    <contour>
      <point x="-38" y="662" type="curve" smooth="yes"/>
      <point x="-38" y="638"/>
      <point x="-18" y="618"/>
      <point x="6" y="618" type="curve" smooth="yes"/>
      <point x="31" y="618"/>
      <point x="51" y="638"/>
      <point x="51" y="662" type="curve" smooth="yes"/>
      <point x="51" y="687"/>
      <point x="31" y="707"/>
      <point x="6" y="707" type="curve" smooth="yes"/>
      <point x="-18" y="707"/>
      <point x="-38" y="687"/>
    </contour>
    <contour>
      <point x="123" y="662" type="curve" smooth="yes"/>
      <point x="123" y="638"/>
      <point x="143" y="618"/>
      <point x="167" y="618" type="curve" smooth="yes"/>
      <point x="192" y="618"/>
      <point x="212" y="638"/>
      <point x="212" y="662" type="curve" smooth="yes"/>
      <point x="212" y="687"/>
      <point x="192" y="707"/>
      <point x="167" y="707" type="curve" smooth="yes"/>
      <point x="143" y="707"/>
      <point x="123" y="687"/>
    </contour>
  </outline>
</glyph>
<glyph name="eth" format="1">
  <advance width="587"/>
  <unicode hex="00F0"/>
  <outline>
    <contour>
      <point x="537" y="626" type="line"/>
      <point x="424" y="626" type="line"/>
      <point x="389" y="733" type="line"/>
      <point x="331" y="715" type="line"/>
      <point x="361" y="626" type="line"/>
      <point x="270" y="626" type="line"/>
      <point x="270" y="571" type="line"/>
      <point x="380" y="571" type="line"/>
      <point x="405" y="497" type="line"/>
      <point x="369" y="504"/>
      <point x="323" y="508"/>
      <point x="299" y="508" type="curve" smooth="yes"/>
      <point x="149" y="508"/>
      <point x="50" y="396"/>
      <point x="50" y="247" type="curve" smooth="yes"/>
      <point x="50" y="98"/>
      <point x="149" y="-10"/>
      <point x="299" y="-10" type="curve" smooth="yes"/>
      <point x="436" y="-10"/>
      <point x="526" y="86"/>
      <point x="526" y="242" type="curve" smooth="yes"/>
      <point x="526" y="294"/>
      <point x="516" y="354"/>
      <point x="494" y="418" type="curve" smooth="yes"/>
      <point x="443" y="571" type="line"/>
      <point x="537" y="571" type="line"/>
    </contour>
    <contour>
      <point x="437" y="405" type="line" smooth="yes"/>
      <point x="457" y="347"/>
      <point x="468" y="288"/>
      <point x="468" y="235" type="curve" smooth="yes"/>
      <point x="468" y="126"/>
      <point x="410" y="42"/>
      <point x="299" y="42" type="curve" smooth="yes"/>
      <point x="183" y="42"/>
      <point x="107" y="125"/>
      <point x="107" y="250" type="curve" smooth="yes"/>
      <point x="107" y="373"/>
      <point x="183" y="456"/>
      <point x="299" y="456" type="curve" smooth="yes"/>
      <point x="322" y="456"/>
      <point x="388" y="449"/>
      <point x="424" y="441" type="curve"/>
    </contour>
  </outline>
</glyph>
<glyph name="ntilde" format="1">
  <advance width="547"/>
  <unicode hex="00F1"/>
  <outline>
    <contour>
      <point x="492" y="0" type="line"/>
      <point x="474" y="46"/>
      <point x="468" y="84"/>
      <point x="468" y="128" type="curve" smooth="yes"/>
      <point x="468" y="193"/>
      <point x="476" y="252"/>
      <point x="476" y="347" type="curve" smooth="yes"/>
      <point x="476" y="449"/>
      <point x="424" y="508"/>
      <point x="308" y="508" type="curve" smooth="yes"/>
      <point x="241" y="508"/>
      <point x="183" y="477"/>
      <point x="139" y="413" type="curve"/>
      <point x="132" y="448"/>
      <point x="116" y="482"/>
      <point x="84" y="505" type="curve"/>
      <point x="50" y="472" type="line"/>
      <point x="76" y="444"/>
      <point x="90" y="406"/>
      <point x="90" y="353" type="curve" smooth="yes"/>
      <point x="90" y="0" type="line"/>
      <point x="145" y="0" type="line"/>
      <point x="145" y="353" type="line"/>
      <point x="145" y="355" type="line"/>
      <point x="191" y="418"/>
      <point x="237" y="456"/>
      <point x="308" y="456" type="curve" smooth="yes"/>
      <point x="384" y="456"/>
      <point x="421" y="418"/>
      <point x="421" y="336" type="curve" smooth="yes"/>
      <point x="421" y="243"/>
      <point x="413" y="197"/>
      <point x="413" y="134" type="curve" smooth="yes"/>
      <point x="413" y="95"/>
      <point x="418" y="40"/>
      <point x="439" y="0" type="curve"/>
    </contour>
    <contour>
      <point x="127" y="609" type="line"/>
      <point x="141" y="638"/>
      <point x="166" y="645"/>
      <point x="199" y="645" type="curve" smooth="yes"/>
      <point x="249" y="645"/>
      <point x="291" y="610"/>
      <point x="348" y="610" type="curve" smooth="yes"/>
      <point x="408" y="610"/>
      <point x="449" y="629"/>
      <point x="468" y="683" type="curve"/>
      <point x="419" y="701" type="line"/>
      <point x="405" y="672"/>
      <point x="380" y="665"/>
      <point x="347" y="665" type="curve" smooth="yes"/>
      <point x="295" y="665"/>
      <point x="257" y="700"/>
      <point x="198" y="700" type="curve" smooth="yes"/>
      <point x="138" y="700"/>
      <point x="97" y="681"/>
      <point x="78" y="627" type="curve"/>
    </contour>
  </outline>
</glyph>
<glyph name="oacute" format="1">
  <advance width="597"/>
  <unicode hex="00F3"/>
  <outline>
    <contour>
      <point x="299" y="-10" type="curve" smooth="yes"/>
      <point x="448" y="-10"/>
      <point x="547" y="100"/>
      <point x="547" y="250" type="curve" smooth="yes"/>
      <point x="547" y="398"/>
      <point x="448" y="508"/>
      <point x="299" y="508" type="curve" smooth="yes"/>
      <point x="149" y="508"/>
      <point x="50" y="396"/>
      <point x="50" y="247" type="curve" smooth="yes"/>
      <point x="50" y="98"/>
      <point x="149" y="-10"/>
    </contour>
    <contour>
      <point x="299" y="456" type="curve" smooth="yes"/>
      <point x="414" y="456"/>
      <point x="490" y="375"/>
      <point x="490" y="252" type="curve" smooth="yes"/>
      <point x="490" y="128"/>
      <point x="414" y="42"/>
      <point x="299" y="42" type="curve" smooth="yes"/>
      <point x="183" y="42"/>
      <point x="107" y="125"/>
      <point x="107" y="250" type="curve" smooth="yes"/>
      <point x="107" y="373"/>
      <point x="183" y="456"/>
    </contour>
    <contour>
      <point x="293" y="567" type="line"/>
      <point x="465" y="677" type="line"/>
      <point x="429" y="726" type="line"/>
      <point x="271" y="601" type="line"/>
    </contour>
  </outline>
</glyph>
<glyph name="ocircumflex" format="1">
  <advance width="597"/>
  <unicode hex="00F4"/>
  <outline>
    <contour>
      <point x="299" y="-10" type="curve" smooth="yes"/>
      <point x="448" y="-10"/>
      <point x="547" y="100"/>
      <point x="547" y="250" type="curve" smooth="yes"/>
      <point x="547" y="398"/>
      <point x="448" y="508"/>
      <point x="299" y="508" type="curve" smooth="yes"/>
      <point x="149" y="508"/>
      <point x="50" y="396"/>
      <point x="50" y="247" type="curve" smooth="yes"/>
      <point x="50" y="98"/>
      <point x="149" y="-10"/>
    </contour>
    <contour>
      <point x="299" y="456" type="curve" smooth="yes"/>
      <point x="414" y="456"/>
      <point x="490" y="375"/>
      <point x="490" y="252" type="curve" smooth="yes"/>
      <point x="490" y="128"/>
      <point x="414" y="42"/>
      <point x="299" y="42" type="curve" smooth="yes"/>
      <point x="183" y="42"/>
      <point x="107" y="125"/>
      <point x="107" y="250" type="curve" smooth="yes"/>
      <point x="107" y="373"/>
      <point x="183" y="456"/>
    </contour>
    <contour>
      <point x="456" y="614" type="line"/>
      <point x="347" y="736" type="line" smooth="yes"/>
      <point x="330" y="756"/>
      <point x="314" y="768"/>
      <point x="299" y="768" type="curve" smooth="yes"/>
      <point x="284" y="768"/>
      <point x="268" y="756"/>
      <point x="251" y="736" type="curve" smooth="yes"/>
      <point x="142" y="613" type="line"/>
      <point x="179" y="580" type="line"/>
      <point x="299" y="714" type="line"/>
      <point x="419" y="581" type="line"/>
    </contour>
  </outline>
</glyph>
<glyph name="otilde" format="1">
  <advance width="597"/>
  <unicode hex="00F5"/>
  <outline>
    <contour>
      <point x="299" y="-10" type="curve" smooth="yes"/>
      <point x="448" y="-10"/>
      <point x="547" y="100"/>
      <point x="547" y="250" type="curve" smooth="yes"/>
      <point x="547" y="398"/>
      <point x="448" y="508"/>
      <point x="299" y="508" type="curve" smooth="yes"/>
      <point x="149" y="508"/>
      <point x="50" y="396"/>
      <point x="50" y="247" type="curve" smooth="yes"/>
      <point x="50" y="98"/>
      <point x="149" y="-10"/>
    </contour>
    <contour>
      <point x="299" y="456" type="curve" smooth="yes"/>
      <point x="414" y="456"/>
      <point x="490" y="375"/>
      <point x="490" y="252" type="curve" smooth="yes"/>
      <point x="490" y="128"/>
      <point x="414" y="42"/>
      <point x="299" y="42" type="curve" smooth="yes"/>
      <point x="183" y="42"/>
      <point x="107" y="125"/>
      <point x="107" y="250" type="curve" smooth="yes"/>
      <point x="107" y="373"/>
      <point x="183" y="456"/>
    </contour>
    <contour>
      <point x="152" y="609" type="line"/>
      <point x="166" y="638"/>
      <point x="191" y="645"/>
      <point x="224" y="645" type="curve" smooth="yes"/>
      <point x="274" y="645"/>
      <point x="316" y="610"/>
      <point x="373" y="610" type="curve" smooth="yes"/>
      <point x="433" y="610"/>
      <point x="474" y="629"/>
      <point x="493" y="683" type="curve"/>
      <point x="444" y="701" type="line"/>
      <point x="430" y="672"/>
      <point x="405" y="665"/>
      <point x="372" y="665" type="curve" smooth="yes"/>
      <point x="320" y="665"/>
      <point x="282" y="700"/>
      <point x="223" y="700" type="curve" smooth="yes"/>
      <point x="163" y="700"/>
      <point x="122" y="681"/>
      <point x="103" y="627" type="curve"/>
    </contour>
  </outline>
</glyph>
<glyph name="divide" format="1">
  <advance width="472"/>
  <unicode hex="00F7"/>
  <outline>
    <contour>
      <point x="50" y="319" type="line"/>
      <point x="50" y="268" type="line"/>
      <point x="422" y="268" type="line"/>
      <point x="422" y="319" type="line"/>
    </contour>
    <contour>
      <point x="189" y="442" type="curve" smooth="yes"/>
      <point x="189" y="417"/>
      <point x="210" y="396"/>
      <point x="235" y="396" type="curve" smooth="yes"/>
      <point x="261" y="396"/>
      <point x="282" y="417"/>
      <point x="282" y="442" type="curve" smooth="yes"/>
      <point x="282" y="468"/>
      <point x="261" y="489"/>
      <point x="235" y="489" type="curve" smooth="yes"/>
      <point x="210" y="489"/>
      <point x="189" y="468"/>
    </contour>
    <contour>
      <point x="189" y="143" type="curve" smooth="yes"/>
      <point x="189" y="118"/>
      <point x="210" y="97"/>
      <point x="235" y="97" type="curve" smooth="yes"/>
      <point x="261" y="97"/>
      <point x="282" y="118"/>
      <point x="282" y="143" type="curve" smooth="yes"/>
      <point x="282" y="169"/>
      <point x="261" y="190"/>
      <point x="235" y="190" type="curve" smooth="yes"/>
      <point x="210" y="190"/>
      <point x="189" y="169"/>
    </contour>
  </outline>
</glyph>
<glyph name="oslash" format="1">
  <advance width="597"/>
  <unicode hex="00F8"/>
  <outline>
    <contour>
      <point x="299" y="-10" type="curve" smooth="yes"/>
      <point x="448" y="-10"/>
      <point x="547" y="100"/>
      <point x="547" y="250" type="curve" smooth="yes"/>
      <point x="547" y="333"/>
      <point x="515" y="405"/>
      <point x="461" y="451" type="curve"/>
      <point x="488" y="489" type="line"/>
      <point x="439" y="519" type="line"/>
      <point x="416" y="481" type="line"/>
      <point x="382" y="498"/>
      <point x="343" y="508"/>
      <point x="299" y="508" type="curve" smooth="yes"/>
      <point x="149" y="508"/>
      <point x="50" y="396"/>
      <point x="50" y="247" type="curve" smooth="yes"/>
      <point x="50" y="163"/>
      <point x="81" y="92"/>
      <point x="135" y="46" type="curve"/>
      <point x="109" y="9" type="line"/>
      <point x="158" y="-21" type="line"/>
      <point x="180" y="17" type="line"/>
      <point x="214" y="0"/>
      <point x="254" y="-10"/>
    </contour>
    <contour>
      <point x="299" y="456" type="curve" smooth="yes"/>
      <point x="332" y="456"/>
      <point x="362" y="450"/>
      <point x="387" y="439" type="curve"/>
      <point x="162" y="91" type="line"/>
      <point x="126" y="127"/>
      <point x="107" y="181"/>
      <point x="107" y="250" type="curve" smooth="yes"/>
      <point x="107" y="373"/>
      <point x="183" y="456"/>
    </contour>
    <contour>
      <point x="490" y="252" type="curve" smooth="yes"/>
      <point x="490" y="128"/>
      <point x="414" y="42"/>
      <point x="299" y="42" type="curve" smooth="yes"/>
      <point x="265" y="42"/>
      <point x="235" y="47"/>
      <point x="210" y="59" type="curve"/>
      <point x="435" y="407" type="line"/>
      <point x="471" y="372"/>
      <point x="490" y="319"/>
    </contour>
  </outline>
</glyph>
<glyph name="thorn" format="1">
  <advance width="533"/>
  <unicode hex="00FE"/>
  <outline>
    <contour>
      <point x="280" y="508" type="curve" smooth="yes"/>
      <point x="220" y="508"/>
      <point x="169" y="481"/>
      <point x="140" y="437" type="curve"/>
      <point x="140" y="726" type="line"/>
      <point x="85" y="726" type="line"/>
      <point x="85" y="0" type="line"/>
      <point x="140" y="0" type="line"/>
      <point x="140" y="104" type="line"/>
      <point x="169" y="100"/>
      <point x="210" y="96"/>
      <point x="261" y="96" type="curve" smooth="yes"/>
      <point x="395" y="96"/>
      <point x="483" y="184"/>
      <point x="483" y="303" type="curve" smooth="yes"/>
      <point x="483" y="417"/>
      <point x="410" y="508"/>
    </contour>
    <contour>
      <point x="280" y="456" type="curve" smooth="yes"/>
      <point x="377" y="456"/>
      <point x="426" y="381"/>
      <point x="426" y="301" type="curve" smooth="yes"/>
      <point x="426" y="210"/>
      <point x="360" y="148"/>
      <point x="260" y="148" type="curve" smooth="yes"/>
      <point x="210" y="148"/>
      <point x="162" y="155"/>
      <point x="140" y="158" type="curve"/>
      <point x="140" y="338" type="line"/>
      <point x="153" y="418"/>
      <point x="220" y="456"/>
    </contour>
  </outline>
</glyph>
<glyph name="ydieresis" format="1">
  <advance width="516"/>
  <unicode hex="00FF"/>
  <outline>
    <contour>
      <point x="116" y="-261" type="line"/>
      <point x="210" y="-261"/>
      <point x="265" y="-220"/>
      <point x="288" y="-150" type="curve" smooth="yes"/>
      <point x="491" y="486" type="line"/>
      <point x="439" y="503" type="line"/>
      <point x="289" y="35" type="line"/>
      <point x="239" y="42"/>
      <point x="210" y="81"/>
      <point x="194" y="136" type="curve" smooth="yes"/>
      <point x="89" y="503" type="line"/>
      <point x="35" y="488" type="line"/>
      <point x="140" y="121" type="line" smooth="yes"/>
      <point x="161" y="48"/>
      <point x="202" y="-5"/>
      <point x="274" y="-13" type="curve"/>
      <point x="236" y="-132" type="line" smooth="yes"/>
      <point x="219" y="-183"/>
      <point x="182" y="-212"/>
      <point x="109" y="-212" type="curve"/>
    </contour>
    <contour>
      <point x="339" y="662" type="curve" smooth="yes"/>
      <point x="339" y="638"/>
      <point x="359" y="618"/>
      <point x="383" y="618" type="curve" smooth="yes"/>
      <point x="408" y="618"/>
      <point x="428" y="638"/>
      <point x="428" y="662" type="curve" smooth="yes"/>
      <point x="428" y="687"/>
      <point x="408" y="707"/>
      <point x="383" y="707" type="curve" smooth="yes"/>
      <point x="359" y="707"/>
      <point x="339" y="687"/>
    </contour>
    <contour>
      <point x="118" y="662" type="curve" smooth="yes"/>
      <point x="118" y="638"/>
      <point x="138" y="618"/>
      <point x="162" y="618" type="curve" smooth="yes"/>
      <point x="187" y="618"/>
      <point x="207" y="638"/>
      <point x="207" y="662" type="curve" smooth="yes"/>
      <point x="207" y="687"/>
      <point x="187" y="707"/>
      <point x="162" y="707" type="curve" smooth="yes"/>
      <point x="138" y="707"/>
      <point x="118" y="687"/>
    </contour>
  </outline>
</glyph>
<glyph name="OE" format="1">
  <advance width="1018"/>
  <unicode hex="0152"/>
  <outline>
    <contour>
      <point x="988" y="57" type="line"/>
      <point x="581" y="57" type="line"/>
      <point x="581" y="333" type="line"/>
      <point x="898" y="333" type="line"/>
      <point x="898" y="390" type="line"/>
      <point x="581" y="390" type="line"/>
      <point x="581" y="635" type="line"/>
      <point x="685" y="632"/>
      <point x="798" y="629"/>
      <point x="833" y="629" type="curve" smooth="yes"/>
      <point x="888" y="629"/>
      <point x="949" y="640"/>
      <point x="985" y="690" type="curve"/>
      <point x="952" y="724" type="line"/>
      <point x="924" y="698"/>
      <point x="886" y="684"/>
      <point x="833" y="684" type="curve" smooth="yes"/>
      <point x="771" y="684"/>
      <point x="482" y="694"/>
      <point x="398" y="694" type="curve" smooth="yes"/>
      <point x="194" y="694"/>
      <point x="60" y="542"/>
      <point x="60" y="342" type="curve" smooth="yes"/>
      <point x="60" y="143"/>
      <point x="194" y="-10"/>
      <point x="398" y="-10" type="curve" smooth="yes"/>
      <point x="477" y="-10"/>
      <point x="597" y="0"/>
      <point x="597" y="0" type="curve"/>
      <point x="988" y="0" type="line"/>
    </contour>
    <contour>
      <point x="398" y="45" type="curve" smooth="yes"/>
      <point x="232" y="45"/>
      <point x="121" y="167"/>
      <point x="121" y="342" type="curve" smooth="yes"/>
      <point x="121" y="518"/>
      <point x="232" y="639"/>
      <point x="397" y="639" type="curve" smooth="yes"/>
      <point x="422" y="639"/>
      <point x="467" y="638"/>
      <point x="520" y="637" type="curve"/>
      <point x="520" y="52" type="line"/>
      <point x="489" y="48"/>
      <point x="443" y="45"/>
    </contour>
  </outline>
</glyph>
<glyph name="Ydieresis" format="1">
  <advance width="532"/>
  <unicode hex="0178"/>
  <outline>
    <contour>
      <point x="358" y="262" type="curve"/>
      <point x="502" y="677" type="line"/>
      <point x="445" y="694" type="line"/>
      <point x="311" y="309" type="line"/>
      <point x="250" y="310"/>
      <point x="210" y="346"/>
      <point x="191" y="406" type="curve"/>
      <point x="94" y="695" type="line"/>
      <point x="35" y="680" type="line"/>
      <point x="132" y="391" type="line"/>
      <point x="149" y="338"/>
      <point x="187" y="284"/>
      <point x="246" y="264" type="curve"/>
      <point x="246" y="0" type="line"/>
      <point x="307" y="0" type="line"/>
      <point x="307" y="256" type="line"/>
      <point x="323" y="256"/>
      <point x="344" y="259"/>
    </contour>
    <contour>
      <point x="342" y="813" type="curve" smooth="yes"/>
      <point x="342" y="789"/>
      <point x="362" y="769"/>
      <point x="386" y="769" type="curve" smooth="yes"/>
      <point x="411" y="769"/>
      <point x="431" y="789"/>
      <point x="431" y="813" type="curve" smooth="yes"/>
      <point x="431" y="838"/>
      <point x="411" y="858"/>
      <point x="386" y="858" type="curve" smooth="yes"/>
      <point x="362" y="858"/>
      <point x="342" y="838"/>
    </contour>
    <contour>
      <point x="121" y="813" type="curve" smooth="yes"/>
      <point x="121" y="789"/>
      <point x="141" y="769"/>
      <point x="165" y="769" type="curve" smooth="yes"/>
      <point x="190" y="769"/>
      <point x="210" y="789"/>
      <point x="210" y="813" type="curve" smooth="yes"/>
      <point x="210" y="838"/>
      <point x="190" y="858"/>
      <point x="165" y="858" type="curve" smooth="yes"/>
      <point x="141" y="858"/>
      <point x="121" y="838"/>
    </contour>
  </outline>
</glyph>
<glyph name="apostrophe" format="1">
  <advance width="249"/>
  <unicode hex="02BC"/>
  <outline>
    <contour>
      <point x="100" y="662" type="curve"/>
      <point x="100" y="602" type="line" smooth="yes"/>
      <point x="100" y="549"/>
      <point x="86" y="511"/>
      <point x="60" y="483" type="curve"/>
      <point x="94" y="450" type="line"/>
      <point x="144" y="486"/>
      <point x="164" y="547"/>
      <point x="164" y="602" type="curve" smooth="yes"/>
      <point x="164" y="662" type="line" smooth="yes"/>
      <point x="164" y="680"/>
      <point x="151" y="695"/>
      <point x="132" y="695" type="curve" smooth="yes"/>
      <point x="114" y="695"/>
      <point x="100" y="680"/>
    </contour>
  </outline>
</glyph>
<glyph name="circumflex" format="1">
  <advance width="520"/>
  <unicode hex="02C6"/>
  <outline>
    <contour>
      <point x="260" y="498" type="move" name="_top"/>
    </contour>
    <contour>
      <point x="417" y="614" type="line"/>
      <point x="308" y="736" type="line" smooth="yes"/>
      <point x="291" y="756"/>
      <point x="275" y="768"/>
      <point x="260" y="768" type="curve" smooth="yes"/>
      <point x="245" y="768"/>
      <point x="229" y="756"/>
      <point x="212" y="736" type="curve" smooth="yes"/>
      <point x="103" y="613" type="line"/>
      <point x="140" y="580" type="line"/>
      <point x="260" y="714" type="line"/>
      <point x="380" y="581" type="line"/>
    </contour>
  </outline>
</glyph>
<glyph name="ring" format="1">
  <advance width="520"/>
  <unicode hex="02DA"/>
  <outline>
    <contour>
      <point x="261" y="498" type="move" name="_top"/>
    </contour>
    <contour>
      <point x="260" y="547" type="curve" smooth="yes"/>
      <point x="321" y="547"/>
      <point x="361" y="591"/>
      <point x="361" y="651" type="curve" smooth="yes"/>
      <point x="361" y="710"/>
      <point x="320" y="753"/>
      <point x="260" y="753" type="curve" smooth="yes"/>
      <point x="198" y="753"/>
      <point x="159" y="709"/>
      <point x="159" y="649" type="curve" smooth="yes"/>
      <point x="159" y="589"/>
      <point x="198" y="547"/>
    </contour>
    <contour>
      <point x="261" y="709" type="curve" smooth="yes"/>
      <point x="294" y="709"/>
      <point x="312" y="685"/>
      <point x="312" y="650" type="curve" smooth="yes"/>
      <point x="312" y="614"/>
      <point x="292" y="590"/>
      <point x="259" y="590" type="curve" smooth="yes"/>
      <point x="226" y="590"/>
      <point x="208" y="614"/>
      <point x="208" y="650" type="curve" smooth="yes"/>
      <point x="208" y="685"/>
      <point x="228" y="709"/>
    </contour>
  </outline>
</glyph>
<glyph name="tilde" format="1">
  <advance width="520"/>
  <unicode hex="02DC"/>
  <outline>
    <contour>
      <point x="114" y="609" type="line"/>
      <point x="128" y="638"/>
      <point x="153" y="645"/>
      <point x="186" y="645" type="curve" smooth="yes"/>
      <point x="236" y="645"/>
      <point x="278" y="610"/>
      <point x="335" y="610" type="curve" smooth="yes"/>
      <point x="395" y="610"/>
      <point x="436" y="629"/>
      <point x="455" y="683" type="curve"/>
      <point x="406" y="701" type="line"/>
      <point x="392" y="672"/>
      <point x="367" y="665"/>
      <point x="334" y="665" type="curve" smooth="yes"/>
      <point x="282" y="665"/>
      <point x="244" y="700"/>
      <point x="185" y="700" type="curve" smooth="yes"/>
      <point x="125" y="700"/>
      <point x="84" y="681"/>
      <point x="65" y="627" type="curve"/>
    </contour>
  </outline>
</glyph>
<glyph name="endash" format="1">
  <advance width="427"/>
  <unicode hex="2013"/>
  <outline>
    <contour>
      <point x="427" y="334" type="line"/>
      <point x="0" y="334" type="line"/>
      <point x="0" y="277" type="line"/>
      <point x="427" y="277" type="line"/>
    </contour>
  </outline>
</glyph>
<glyph name="quoteleft" format="1">
  <advance width="249"/>
  <unicode hex="2018"/>
  <outline>
    <contour>
      <point x="149" y="553" type="line" smooth="yes"/>
      <point x="149" y="606"/>
      <point x="163" y="644"/>
      <point x="189" y="672" type="curve"/>
      <point x="155" y="705" type="line"/>
      <point x="105" y="669"/>
      <point x="85" y="608"/>
      <point x="85" y="553" type="curve" smooth="yes"/>
      <point x="85" y="493" type="line" smooth="yes"/>
      <point x="85" y="475"/>
      <point x="98" y="460"/>
      <point x="117" y="460" type="curve" smooth="yes"/>
      <point x="135" y="460"/>
      <point x="149" y="475"/>
      <point x="149" y="493" type="curve" smooth="yes"/>
    </contour>
  </outline>
</glyph>
<glyph name="quotesinglbase" format="1">
  <advance width="249"/>
  <unicode hex="201A"/>
  <outline>
    <contour>
      <point x="100" y="52" type="curve"/>
      <point x="100" y="-8" type="line" smooth="yes"/>
      <point x="100" y="-61"/>
      <point x="86" y="-99"/>
      <point x="60" y="-127" type="curve"/>
      <point x="94" y="-160" type="line"/>
      <point x="144" y="-124"/>
      <point x="164" y="-63"/>
      <point x="164" y="-8" type="curve" smooth="yes"/>
      <point x="164" y="52" type="line" smooth="yes"/>
      <point x="164" y="70"/>
      <point x="151" y="85"/>
      <point x="132" y="85" type="curve" smooth="yes"/>
      <point x="114" y="85"/>
      <point x="100" y="70"/>
    </contour>
  </outline>
</glyph>
<glyph name="quotedblleft" format="1">
  <advance width="374"/>
  <unicode hex="201C"/>
  <outline>
    <contour>
      <point x="274" y="553" type="line" smooth="yes"/>
      <point x="274" y="606"/>
      <point x="288" y="644"/>
      <point x="314" y="672" type="curve"/>
      <point x="280" y="705" type="line"/>
      <point x="230" y="669"/>
      <point x="210" y="608"/>
      <point x="210" y="553" type="curve" smooth="yes"/>
      <point x="210" y="493" type="line" smooth="yes"/>
      <point x="210" y="475"/>
      <point x="223" y="460"/>
      <point x="242" y="460" type="curve" smooth="yes"/>
      <point x="260" y="460"/>
      <point x="274" y="475"/>
      <point x="274" y="493" type="curve" smooth="yes"/>
    </contour>
    <contour>
      <point x="149" y="553" type="line" smooth="yes"/>
      <point x="149" y="606"/>
      <point x="163" y="644"/>
      <point x="189" y="672" type="curve"/>
      <point x="155" y="705" type="line"/>
      <point x="105" y="669"/>
      <point x="85" y="608"/>
      <point x="85" y="553" type="curve" smooth="yes"/>
      <point x="85" y="493" type="line" smooth="yes"/>
      <point x="85" y="475"/>
      <point x="98" y="460"/>
      <point x="117" y="460" type="curve" smooth="yes"/>
      <point x="135" y="460"/>
      <point x="149" y="475"/>
      <point x="149" y="493" type="curve" smooth="yes"/>
    </contour>
  </outline>
</glyph>
<glyph name="quotedblbase" format="1">
  <advance width="374"/>
  <unicode hex="201E"/>
  <outline>
    <contour>
      <point x="100" y="52" type="curve"/>
      <point x="100" y="-8" type="line" smooth="yes"/>
      <point x="100" y="-61"/>
      <point x="86" y="-99"/>
      <point x="60" y="-127" type="curve"/>
      <point x="94" y="-160" type="line"/>
      <point x="144" y="-124"/>
      <point x="164" y="-63"/>
      <point x="164" y="-8" type="curve" smooth="yes"/>
      <point x="164" y="52" type="line" smooth="yes"/>
      <point x="164" y="70"/>
      <point x="151" y="85"/>
      <point x="132" y="85" type="curve" smooth="yes"/>
      <point x="114" y="85"/>
      <point x="100" y="70"/>
    </contour>
    <contour>
      <point x="225" y="52" type="curve"/>
      <point x="225" y="-8" type="line" smooth="yes"/>
      <point x="225" y="-61"/>
      <point x="211" y="-99"/>
      <point x="185" y="-127" type="curve"/>
      <point x="219" y="-160" type="line"/>
      <point x="269" y="-124"/>
      <point x="289" y="-63"/>
      <point x="289" y="-8" type="curve" smooth="yes"/>
      <point x="289" y="52" type="line" smooth="yes"/>
      <point x="289" y="70"/>
      <point x="276" y="85"/>
      <point x="257" y="85" type="curve" smooth="yes"/>
      <point x="239" y="85"/>
      <point x="225" y="70"/>
    </contour>
  </outline>
</glyph>
<glyph name="bullet" format="1">
  <advance width="369"/>
  <unicode hex="2022"/>
  <outline>
    <contour>
      <point x="100" y="314" type="curve" smooth="yes"/>
      <point x="100" y="267"/>
      <point x="139" y="230"/>
      <point x="184" y="230" type="curve" smooth="yes"/>
      <point x="232" y="230"/>
      <point x="269" y="267"/>
      <point x="269" y="314" type="curve" smooth="yes"/>
      <point x="269" y="360"/>
      <point x="232" y="399"/>
      <point x="184" y="399" type="curve" smooth="yes"/>
      <point x="139" y="399"/>
      <point x="100" y="360"/>
    </contour>
  </outline>
</glyph>
<glyph name="guilsinglleft" format="1">
  <advance width="405"/>
  <unicode hex="2039"/>
  <outline>
    <contour>
      <point x="335" y="60" type="line"/>
      <point x="119" y="251" type="line"/>
      <point x="335" y="442" type="line"/>
      <point x="298" y="483" type="line"/>
      <point x="92" y="299" type="line" smooth="yes"/>
      <point x="72" y="282"/>
      <point x="60" y="266"/>
      <point x="60" y="251" type="curve" smooth="yes"/>
      <point x="60" y="236"/>
      <point x="72" y="220"/>
      <point x="92" y="203" type="curve" smooth="yes"/>
      <point x="298" y="19" type="line"/>
    </contour>
  </outline>
</glyph>
<glyph name="guilsinglright" format="1">
  <advance width="405"/>
  <unicode hex="203A"/>
  <outline>
    <contour>
      <point x="107" y="19" type="line"/>
      <point x="313" y="203" type="line" smooth="yes"/>
      <point x="333" y="220"/>
      <point x="345" y="236"/>
      <point x="345" y="251" type="curve" smooth="yes"/>
      <point x="345" y="266"/>
      <point x="333" y="282"/>
      <point x="313" y="299" type="curve" smooth="yes"/>
      <point x="107" y="483" type="line"/>
      <point x="70" y="442" type="line"/>
      <point x="286" y="251" type="line"/>
      <point x="70" y="60" type="line"/>
    </contour>
  </outline>
</glyph>
<glyph name="fraction" format="1">
  <advance width="377"/>
  <unicode hex="2044"/>
  <outline>
    <contour>
      <point x="269" y="653" type="line"/>
      <point x="50" y="0" type="line"/>
      <point x="109" y="0" type="line"/>
      <point x="327" y="653" type="line"/>
    </contour>
  </outline>
</glyph>
<glyph name="uni2074" format="1">
  <advance width="299"/>
  <unicode hex="2074"/>
  <outline>
    <contour>
      <point x="61" y="694" type="line"/>
      <point x="35" y="508" type="line"/>
      <point x="183" y="508" type="line"/>
      <point x="183" y="414" type="line"/>
      <point x="229" y="414" type="line"/>
      <point x="229" y="694" type="line"/>
      <point x="183" y="694" type="line"/>
      <point x="183" y="552" type="line"/>
      <point x="86" y="552" type="line"/>
      <point x="106" y="694" type="line"/>
    </contour>
  </outline>
</glyph>
<glyph name="Euro" format="1">
  <advance width="533"/>
  <unicode hex="20AC"/>
  <outline>
    <contour>
      <point x="31" y="399" type="line"/>
      <point x="20" y="347" type="line"/>
      <point x="95" y="347" type="line"/>
      <point x="95" y="329" type="line" smooth="yes"/>
      <point x="95" y="315"/>
      <point x="95" y="302"/>
      <point x="96" y="289" type="curve"/>
      <point x="31" y="289" type="line"/>
      <point x="20" y="237" type="line"/>
      <point x="101" y="237" type="line"/>
      <point x="121" y="88"/>
      <point x="197" y="-10"/>
      <point x="363" y="-10" type="curve" smooth="yes"/>
      <point x="444" y="-10"/>
      <point x="492" y="14"/>
      <point x="533" y="46" type="curve"/>
      <point x="507" y="91" type="line"/>
      <point x="465" y="64"/>
      <point x="424" y="45"/>
      <point x="363" y="45" type="curve" smooth="yes"/>
      <point x="241" y="45"/>
      <point x="181" y="117"/>
      <point x="162" y="237" type="curve"/>
      <point x="380" y="237" type="line"/>
      <point x="388" y="289" type="line"/>
      <point x="157" y="289" type="line"/>
      <point x="156" y="302"/>
      <point x="156" y="315"/>
      <point x="156" y="329" type="curve" smooth="yes"/>
      <point x="156" y="347" type="line"/>
      <point x="397" y="347" type="line"/>
      <point x="406" y="399" type="line"/>
      <point x="159" y="399" type="line"/>
      <point x="172" y="533"/>
      <point x="229" y="609"/>
      <point x="363" y="609" type="curve" smooth="yes"/>
      <point x="397" y="609"/>
      <point x="432" y="606"/>
      <point x="473" y="603" type="curve"/>
      <point x="473" y="658" type="line"/>
      <point x="428" y="662"/>
      <point x="396" y="664"/>
      <point x="363" y="664" type="curve" smooth="yes"/>
      <point x="192" y="664"/>
      <point x="115" y="559"/>
      <point x="98" y="399" type="curve"/>
    </contour>
  </outline>
</glyph>
<glyph name="minus" format="1">
  <advance width="442"/>
  <unicode hex="2212"/>
  <outline>
    <contour>
      <point x="50" y="322" type="line"/>
      <point x="50" y="265" type="line"/>
      <point x="392" y="265" type="line"/>
      <point x="392" y="322" type="line"/>
    </contour>
  </outline>
</glyph>
